<?xml version="1.0" encoding="UTF-8"?>
<svg version="1.1" xmlns="http://www.w3.org/2000/svg" width="1510" height="2048">
<path d="M0 0 C2.6258502 0.37185242 3.79692192 0.79218816 5.67578125 2.71484375 C6.21589844 3.44832031 6.75601562 4.18179687 7.3125 4.9375 C7.91578125 5.75089844 8.5190625 6.56429688 9.140625 7.40234375 C9.75421875 8.25957031 10.3678125 9.11679688 11 10 C11.88945313 11.23943359 11.88945313 11.23943359 12.796875 12.50390625 C14.55378219 14.98767549 16.27832155 17.49172719 18 20 C18.48082031 20.67160156 18.96164062 21.34320312 19.45703125 22.03515625 C55.11099621 73.01148631 63.10429907 140.69046137 52.61621094 200.80322266 C51.28819288 207.69271096 49.56535981 214.43027326 47.54199219 221.14550781 C46.77764101 223.76082833 46.17400392 226.40785356 45.5625 229.0625 C44.27910622 234.24741089 42.67168443 239.30488666 41 244.375 C40.62597046 245.51787476 40.62597046 245.51787476 40.24438477 246.68383789 C38.79679195 250.99053333 37.0829048 254.95087974 35 259 C34.52707619 260.32118398 34.08624674 261.65456882 33.6875 263 C29.9567553 274.51915504 24.46634573 285.33386326 18.97021484 296.08837891 C17.9551487 298.08837084 16.96204278 300.09849306 15.96875 302.109375 C14.30568725 305.43954294 12.5172154 308.66800583 10.625 311.875 C10.02042969 312.90109375 9.41585938 313.9271875 8.79296875 314.984375 C6.69160093 318.5187017 4.58637873 322.05040189 2.4609375 325.5703125 C1.47776318 327.2054313 0.50394631 328.84620923 -0.4609375 330.4921875 C-3.54547501 335.73100517 -6.83733446 340.73928126 -10.38671875 345.67578125 C-11.4665165 347.23142208 -12.49199211 348.82612579 -13.4609375 350.453125 C-15.14412853 353.23850712 -17.00353449 355.82052172 -18.9375 358.4375 C-21.17362008 361.47369974 -23.36290327 364.49851651 -25.375 367.6875 C-25.91125 368.450625 -26.4475 369.21375 -27 370 C-27.66 370 -28.32 370 -29 370 C-29.19980469 370.65226562 -29.39960937 371.30453125 -29.60546875 371.9765625 C-31.58031854 376.2581696 -34.39494205 379.69114748 -37.3125 383.375 C-37.93406982 384.16648437 -38.55563965 384.95796875 -39.19604492 385.7734375 C-47.40176394 396.14249189 -56.15331953 406.02173296 -65.03125 415.81640625 C-66.83534784 417.81737985 -68.61007017 419.8395031 -70.375 421.875 C-77.36612398 429.8856629 -84.56512672 437.64146595 -92.13671875 445.10546875 C-94.27173038 447.2762877 -96.13183614 449.59807504 -98 452 C-101.01677674 455.31845442 -102.7150827 456.96570962 -107 458 C-107.67075042 459.33128363 -108.33673381 460.66497184 -109 462 C-110.47705078 463.7199707 -110.47705078 463.7199707 -112.1953125 465.42578125 C-112.82469727 466.05395752 -113.45408203 466.68213379 -114.10253906 467.3293457 C-114.76995117 467.98378662 -115.43736328 468.63822754 -116.125 469.3125 C-116.80788086 469.98821045 -117.49076172 470.6639209 -118.19433594 471.36010742 C-122.04086492 475.14472875 -125.92502543 478.8463802 -130.046875 482.33203125 C-132.58375373 484.49852568 -135.03749131 486.74942853 -137.5 489 C-142.96968778 493.98551071 -148.46321739 498.93225055 -154.1875 503.625 C-157.07150052 505.97473059 -157.07150052 505.97473059 -159.6875 508.8125 C-162 511 -162 511 -165 511 C-165.39046509 511.89755005 -165.39046509 511.89755005 -165.78881836 512.81323242 C-167.08784549 515.15860352 -168.29268846 516.32940477 -170.37890625 517.98828125 C-171.04873535 518.52646484 -171.71856445 519.06464844 -172.40869141 519.61914062 C-173.47482666 520.45735352 -173.47482666 520.45735352 -174.5625 521.3125 C-175.28614746 521.89064453 -176.00979492 522.46878906 -176.75537109 523.06445312 C-181.14187902 526.56107321 -185.54908834 530.03332885 -190.0078125 533.4375 C-192.17723813 535.1390103 -194.28436368 536.90917869 -196.39794922 538.67919922 C-198.4972707 540.40997173 -200.64336833 542.0754978 -202.79443359 543.74121094 C-213.06927529 551.70105108 -222.948599 560.12698169 -232.546875 568.890625 C-234 570 -234 570 -236 570 C-236.33 570.99 -236.66 571.98 -237 573 C-238.49609375 574.5078125 -238.49609375 574.5078125 -240.4375 576.125 C-250.07273952 584.26532554 -259.08019859 592.9206891 -267.97973633 601.84936523 C-269.95474792 603.82979524 -271.93512621 605.80474787 -273.91601562 607.77929688 C-275.18261289 609.04655403 -276.44890041 610.31412085 -277.71484375 611.58203125 C-278.30232895 612.16749222 -278.88981415 612.75295319 -279.49510193 613.3561554 C-281.75951496 615.63359126 -283.8601484 617.81004827 -285.76782227 620.40112305 C-286.37775024 621.19256714 -286.37775024 621.19256714 -287 622 C-287.66 622 -288.32 622 -289 622 C-289.26941406 622.57621094 -289.53882813 623.15242187 -289.81640625 623.74609375 C-291.0206018 626.03923181 -292.37511405 627.99919642 -293.9375 630.0625 C-294.69353516 631.06990234 -294.69353516 631.06990234 -295.46484375 632.09765625 C-297 634 -297 634 -298.37890625 635.37109375 C-302.75651704 639.76980146 -306.47563592 644.8342863 -310.25 649.75 C-310.69601562 650.32621094 -311.14203125 650.90242187 -311.6015625 651.49609375 C-314.01574105 654.60897007 -314.01574105 654.60897007 -316 658 C-316.66 658 -317.32 658 -318 658 C-318.09667969 658.56074219 -318.19335938 659.12148438 -318.29296875 659.69921875 C-319.16474066 662.53608978 -320.55586035 664.42392146 -322.3125 666.8125 C-324.74483572 670.19898368 -326.9936295 673.55009399 -328.99609375 677.203125 C-330.14485747 679.25927795 -331.38538634 681.24728155 -332.625 683.25 C-339.66396341 694.96369483 -346.22147482 707.18486429 -351 720 C-351.38768555 720.99628418 -351.38768555 720.99628418 -351.78320312 722.01269531 C-359.43631113 741.77305505 -364.94078832 762.71833538 -365 784 C-365.0254059 785.62631214 -365.05148007 787.25261394 -365.078125 788.87890625 C-365.1390123 793.92143777 -365.09582109 798.95817945 -365 804 C-364.98743164 804.74282227 -364.97486328 805.48564453 -364.96191406 806.25097656 C-364.72897377 816.78082874 -363.0692781 826.57605748 -360.53515625 836.78564453 C-360.0162643 838.93270201 -359.54686026 841.08429668 -359.09375 843.24609375 C-356.04530613 857.53588218 -350.84209802 870.98858309 -345.09765625 884.3984375 C-344.08084289 886.80839373 -343.1637491 889.23717731 -342.25 891.6875 C-337.48083607 903.67798907 -330.57185375 914.93161474 -324 926 C-323.30920769 927.20645418 -322.62120097 928.41451304 -321.9375 929.625 C-316.19702483 939.6245374 -310.07758804 949.38526803 -303.8125 959.0625 C-303.11000122 960.15026733 -303.11000122 960.15026733 -302.39331055 961.26000977 C-299.98124703 964.98428761 -297.54604801 968.6901382 -295.0625 972.3671875 C-294.59996826 973.05288818 -294.13743652 973.73858887 -293.66088867 974.44506836 C-292.77722051 975.75081086 -291.88949997 977.05382211 -290.99731445 978.35375977 C-288 982.78092959 -288 982.78092959 -288 985 C-287.01 985.33 -286.02 985.66 -285 986 C-283.38671875 988.22265625 -283.38671875 988.22265625 -281.6875 991.0625 C-279.1241274 995.23605832 -276.44216736 999.16654407 -273.4609375 1003.046875 C-271.36826372 1005.84456722 -269.46830739 1008.75896764 -267.546875 1011.67578125 C-266.00222281 1013.99666018 -264.4166123 1016.28236895 -262.8125 1018.5625 C-262.23886719 1019.38105469 -261.66523437 1020.19960938 -261.07421875 1021.04296875 C-259.9283536 1022.67652792 -258.78164422 1024.30949965 -257.63134766 1025.93994141 C-256.12332798 1028.08088363 -254.62373375 1030.22754975 -253.125 1032.375 C-252.63620361 1033.06537354 -252.14740723 1033.75574707 -251.64379883 1034.46704102 C-251.18642334 1035.12502686 -250.72904785 1035.7830127 -250.2578125 1036.4609375 C-249.8467627 1037.04665527 -249.43571289 1037.63237305 -249.01220703 1038.23583984 C-247.91987292 1040.13965226 -247.43237867 1041.8569313 -247 1044 C-246.34 1044 -245.68 1044 -245 1044 C-243.37890625 1046.23046875 -243.37890625 1046.23046875 -241.5625 1049.1875 C-240.66724609 1050.63189453 -240.66724609 1050.63189453 -239.75390625 1052.10546875 C-239.17511719 1053.06066406 -238.59632813 1054.01585937 -238 1055 C-237.43152344 1055.90363281 -236.86304688 1056.80726562 -236.27734375 1057.73828125 C-235 1060 -235 1060 -235 1062 C-234.34 1062 -233.68 1062 -233 1062 C-231.72241211 1063.765625 -231.72241211 1063.765625 -230.27734375 1066.25 C-229.47635254 1067.61572144 -229.47635254 1067.61572144 -228.65917969 1069.0090332 C-227.80694824 1070.48956177 -227.80694824 1070.48956177 -226.9375 1072 C-226.35258789 1073.00442139 -225.76767578 1074.00884277 -225.16503906 1075.04370117 C-223.43409487 1078.02390039 -221.71481687 1081.01049746 -220 1084 C-219.33411865 1085.15749756 -219.33411865 1085.15749756 -218.65478516 1086.33837891 C-216.43333466 1090.20984277 -214.24629775 1094.09849726 -212.09570312 1098.00976562 C-211.32242167 1099.4143535 -210.54464616 1100.81647174 -209.76367188 1102.21679688 C-208.49729403 1104.4924102 -207.24687329 1106.77615166 -206 1109.0625 C-205.42040527 1110.0985437 -205.42040527 1110.0985437 -204.82910156 1111.15551758 C-202.48907553 1115.50256594 -201.41013722 1119.07194494 -201 1124 C-205.68967021 1121.97491514 -207.91309822 1119.99481407 -211 1116 C-212.79740886 1114.328096 -214.66084118 1112.74672071 -216.52734375 1111.15234375 C-219.57768764 1108.4971471 -222.53757924 1105.75245866 -225.5 1103 C-230.26393615 1098.58305149 -235.07818089 1094.241142 -240 1090 C-251.77941176 1079.83088235 -251.77941176 1079.83088235 -255 1075 C-255.763125 1074.54625 -256.52625 1074.0925 -257.3125 1073.625 C-260.39125239 1071.76342879 -262.52201526 1069.60188397 -265 1067 C-265.886875 1066.154375 -266.77375 1065.30875 -267.6875 1064.4375 C-270 1062 -270 1062 -271 1059.8125 C-272.4257159 1057.22838994 -274.29268033 1057.07033568 -277 1056 C-280.39297104 1052.93805052 -283.15278069 1049.55902414 -286 1046 C-288.35477895 1043.52446315 -290.658177 1041.26086492 -293.375 1039.1875 C-296.3739119 1036.68840675 -298.76959114 1033.91464368 -301.3046875 1030.95703125 C-304.14540871 1027.67776552 -307.11243153 1024.71005478 -310.5 1022 C-313.2100065 1019.8319948 -315.57721501 1017.48335462 -318 1015 C-318.845625 1014.175 -319.69125 1013.35 -320.5625 1012.5 C-322.89448943 1010.10821597 -324.91515471 1007.60605661 -327 1005 C-329.41870973 1002.51927207 -331.89276773 1000.10441036 -334.375 997.6875 C-337.14279507 994.85380504 -339.70283199 991.8954835 -342.25390625 988.8671875 C-343.95686375 986.92626835 -343.95686375 986.92626835 -346.15234375 985.4453125 C-348 984 -348 984 -349 981 C-349.70125 980.443125 -350.4025 979.88625 -351.125 979.3125 C-354.92389191 976.25686955 -357.85293062 972.71046878 -361 969 C-361.97972915 967.85873966 -362.96025893 966.71816636 -363.94140625 965.578125 C-372.13332396 956.05217056 -372.13332396 956.05217056 -375.703125 951.7578125 C-377.31900252 949.81766024 -378.96232464 947.90020041 -380.625 946 C-384.21756149 941.83039495 -387.57104972 937.47484904 -390.95361328 933.13500977 C-393.40106196 930.00360386 -395.87489172 926.92356067 -398.5 923.9375 C-400.68231233 921.37328301 -402.3122065 918.89336029 -404 916 C-404.556875 915.46375 -405.11375 914.9275 -405.6875 914.375 C-407 913 -407 913 -407 910 C-407.66 910 -408.32 910 -409 910 C-410.30078823 908.25963506 -411.51488895 906.45418109 -412.6875 904.625 C-415.22504319 900.71581184 -417.78522755 896.85069972 -420.5 893.0625 C-423.9448243 888.17839979 -427.06625105 883.12132729 -430.1640625 878.01171875 C-431.57052363 875.70452401 -433.0156548 873.44390394 -434.5 871.1875 C-437.25516394 866.79760546 -439.48483457 862.13619583 -441.76855469 857.49047852 C-444.32149077 852.3075884 -447.01062829 847.21135306 -449.75 842.125 C-454.01961176 834.14303351 -457.39203243 826.11859093 -460.16015625 817.5 C-460.77373075 815.67354566 -461.43408088 813.86261734 -462.12109375 812.0625 C-471.43700833 787.45223344 -473.55323887 762.90158892 -473.04882812 736.77392578 C-473.01016477 734.57746082 -473.00663099 732.38038056 -473.015625 730.18359375 C-472.43607276 707.03048179 -462.5971691 682.77811785 -451 663 C-450.38769531 661.90171875 -449.77539062 660.8034375 -449.14453125 659.671875 C-445.51956522 653.24410018 -445.51956522 653.24410018 -444 651 C-443.34 651 -442.68 651 -442 651 C-441.9175 650.278125 -441.835 649.55625 -441.75 648.8125 C-440.83427542 645.37853282 -439.26500601 643.73308081 -437 641 C-432.96528771 635.70218458 -428.9496081 630.38960091 -425.125 624.9375 C-423 622 -423 622 -421.61328125 620.62109375 C-419.58529255 618.58328428 -417.85409091 616.37366345 -416.0625 614.125 C-411.90338959 608.99451841 -407.51673902 604.13318673 -402.98657227 599.32861328 C-400.76539532 596.96369806 -398.804971 594.7074565 -397 592 C-396.34 592 -395.68 592 -395 592 C-394.62875 591.071875 -394.62875 591.071875 -394.25 590.125 C-392.76259631 587.59641373 -391.56321991 587.28160996 -389 586 C-388.7009375 585.39671875 -388.401875 584.7934375 -388.09375 584.171875 C-386.86390257 581.72974939 -385.43702936 580.17061385 -383.5 578.25 C-382.8915625 577.63640625 -382.283125 577.0228125 -381.65625 576.390625 C-380 575 -380 575 -378 575 C-377.62875 574.071875 -377.62875 574.071875 -377.25 573.125 C-375.76259631 570.59641373 -374.56321991 570.28160996 -372 569 C-371.7421875 568.42636719 -371.484375 567.85273437 -371.21875 567.26171875 C-369.54861963 564.16234221 -367.10478003 562.11152798 -364.5 559.8125 C-363.96318604 559.33055176 -363.42637207 558.84860352 -362.87329102 558.35205078 C-361.77458155 557.36628364 -360.67375295 556.38287323 -359.57080078 555.40185547 C-358.16155586 554.14417994 -356.76543679 552.87183303 -355.37109375 551.59765625 C-348.5799012 545.3951064 -341.52748233 539.53364475 -334.27734375 533.875 C-331.94255947 532.10599131 -331.94255947 532.10599131 -330.375 529.8125 C-329 528 -329 528 -326 527 C-325.154375 526.154375 -324.30875 525.30875 -323.4375 524.4375 C-322.633125 523.633125 -321.82875 522.82875 -321 522 C-320.34 522 -319.68 522 -319 522 C-319 521.34 -319 520.68 -319 520 C-316.8828125 518.0546875 -316.8828125 518.0546875 -314.125 515.875 C-313.22007812 515.15054688 -312.31515625 514.42609375 -311.3828125 513.6796875 C-309 512 -309 512 -307 512 C-307 511.34 -307 510.68 -307 510 C-305.34928604 508.97388051 -303.68029994 507.97691857 -302 507 C-300.99283182 506.00721994 -299.99403713 505.00592753 -299 504 C-295.38900501 500.93225204 -291.69167571 497.96980981 -288 495 C-287.38962891 494.50741699 -286.77925781 494.01483398 -286.15039062 493.50732422 C-284.25079709 491.97806429 -282.34514421 490.45670093 -280.4375 488.9375 C-279.5261731 488.20370117 -279.5261731 488.20370117 -278.59643555 487.45507812 C-274.2300126 484 -274.2300126 484 -272 484 C-271.67 483.01 -271.34 482.02 -271 481 C-269.35666496 479.96210419 -267.68756133 478.96432076 -266 478 C-265.195625 477.1646875 -265.195625 477.1646875 -264.375 476.3125 C-263 475 -263 475 -260 475 C-259.7525 474.40703125 -259.505 473.8140625 -259.25 473.203125 C-257.81031137 470.6656738 -256.34848507 469.45955898 -254 467.75 C-253.29875 467.22921875 -252.5975 466.7084375 -251.875 466.171875 C-250 465 -250 465 -248 465 C-248 464.34 -248 463.68 -248 463 C-246.34859635 461.97499084 -244.67813249 460.98063709 -243 460 C-241.12077315 458.4889816 -239.26834306 456.94429405 -237.4375 455.375 C-232.36595725 451.06925704 -227.12412681 447.0643131 -221.76953125 443.11328125 C-218.56493059 440.66802179 -215.57289418 438.05481782 -212.62109375 435.3125 C-211 434 -211 434 -208 433 C-206.31902798 431.34776254 -204.65471969 429.67852861 -203 428 C-200.87182611 426.27952226 -198.73655281 424.59692787 -196.5625 422.9375 C-191.53024699 419.04289824 -186.624633 415.03850062 -181.8125 410.875 C-174.40518407 404.46833951 -166.9012022 398.2070577 -159.125 392.25 C-155.82182646 389.69834213 -152.91947155 386.99067817 -150 384 C-146.70096467 380.96126591 -143.35398768 377.97783953 -140 375 C-139.29617188 374.36835938 -138.59234375 373.73671875 -137.8671875 373.0859375 C-133.23904028 369 -133.23904028 369 -131 369 C-130.7525 368.38125 -130.505 367.7625 -130.25 367.125 C-128.76259631 364.59641373 -127.56321991 364.28160996 -125 363 C-124.71125 362.39671875 -124.4225 361.7934375 -124.125 361.171875 C-122.78284392 358.58076812 -121.20583192 357.14766422 -119 355.25 C-118.29875 354.63640625 -117.5975 354.0228125 -116.875 353.390625 C-115 352 -115 352 -113 352 C-112.73880371 351.41210693 -112.47760742 350.82421387 -112.20849609 350.21850586 C-110.92903318 347.86972212 -109.57736167 346.36282963 -107.6640625 344.50390625 C-107.01179688 343.86259766 -106.35953125 343.22128906 -105.6875 342.56054688 C-105.006875 341.90119141 -104.32625 341.24183594 -103.625 340.5625 C-98.40452856 335.50832774 -98.40452856 335.50832774 -93.6484375 330.02734375 C-93.10445312 329.35832031 -92.56046875 328.68929688 -92 328 C-91.34 328 -90.68 328 -90 328 C-89.7525 327.38125 -89.505 326.7625 -89.25 326.125 C-88 324 -88 324 -85.9375 323 C-85.298125 322.67 -84.65875 322.34 -84 322 C-83.855625 321.401875 -83.71125 320.80375 -83.5625 320.1875 C-82.71062082 316.8746365 -80.44621111 315.33501969 -78 313 C-76.30210178 311.01911874 -74.64413867 309.02453066 -73 307 C-72.28199219 306.12472656 -71.56398438 305.24945313 -70.82421875 304.34765625 C-68.54505906 301.56864811 -66.26839006 298.78780674 -64 296 C-63.32324219 295.17242187 -62.64648438 294.34484375 -61.94921875 293.4921875 C-59.31096672 290.1190316 -56.96517224 286.57018118 -54.5859375 283.01171875 C-54.06257813 282.34785156 -53.53921875 281.68398438 -53 281 C-52.34 281 -51.68 281 -51 281 C-50.74734375 280.29359375 -50.4946875 279.5871875 -50.234375 278.859375 C-48.87187501 275.70320413 -47.1874386 273.08857283 -45.25 270.25 C-44.53972656 269.20328125 -43.82945312 268.1565625 -43.09765625 267.078125 C-42.40542969 266.06234375 -41.71320313 265.0465625 -41 264 C-39.89386519 262.3346389 -38.78945842 260.66812753 -37.6875 259 C-36.30529702 256.90887343 -34.90814939 254.87968238 -33.38671875 252.88671875 C-31.91238579 251.04594093 -31.91238579 251.04594093 -31.125 248.8125 C-30.17044045 246.42610111 -29.13098582 244.35646815 -27.875 242.125 C-19.95918608 228.01622578 -13.31952396 213.93463469 -7.67211914 198.77075195 C-6.87742187 196.67705805 -6.00474267 194.62172068 -5.125 192.5625 C3.41272129 171.0564975 8.24178597 147.28894919 9.82739258 124.26318359 C9.94570188 122.71194282 10.09012633 121.16253689 10.2565918 119.61572266 C11.18214914 110.91959723 11.20048732 102.23414132 11.1875 93.5 C11.18656342 92.68664185 11.18562683 91.87328369 11.18466187 91.03527832 C11.128616 68.46121661 9.49629454 46.87294231 4.59716797 24.79223633 C3.61829559 20.2152276 2.81083653 15.60920854 2 11 C1.79117187 9.85144531 1.58234375 8.70289063 1.3671875 7.51953125 C0.91145833 5.01302083 0.45572917 2.50651042 0 0 Z " fill="#EA2C2D" transform="translate(959,0)"/>
<path d="M0 0 C2.06653572 -0.00218322 4.13253282 -0.02040701 6.19897461 -0.03930664 C18.08826409 -0.09092299 29.72978592 1.01021037 41.14233398 4.49780273 C41.85703857 4.71146484 42.57174316 4.92512695 43.30810547 5.14526367 C48.5463593 6.78652331 52.87882942 8.82389498 57.26733398 12.18530273 C57.26733398 12.51530273 57.26733398 12.84530273 57.26733398 13.18530273 C56.26996216 13.23690552 56.26996216 13.23690552 55.25244141 13.28955078 C40.38441238 14.10259688 25.69441033 15.48261635 10.95483398 17.56030273 C10.23137787 17.65926849 9.50792175 17.75823425 8.76254272 17.86019897 C-0.14938493 19.09008068 -8.69720099 20.83165027 -17.35839844 23.2668457 C-20.23008531 24.04850304 -23.0589829 24.68918745 -25.98266602 25.23217773 C-31.3554046 26.24732389 -36.51668142 27.81021314 -41.73266602 29.43530273 C-42.7265332 29.74177734 -43.72040039 30.04825195 -44.74438477 30.36401367 C-51.0916927 32.33281693 -57.42247155 34.35058959 -63.73266602 36.43530273 C-64.79807617 36.7857666 -64.79807617 36.7857666 -65.88500977 37.14331055 C-70.27628015 38.61619826 -74.49146569 40.32380318 -78.73266602 42.18530273 C-80.29240598 42.81715912 -81.85466946 43.44284685 -83.42016602 44.06030273 C-84.27352539 44.4019043 -85.12688477 44.74350586 -86.00610352 45.09545898 C-87.86333636 45.83781997 -89.72281529 46.5745806 -91.58422852 47.30639648 C-98.28534019 50.00275409 -104.54628125 53.15464971 -110.82250977 56.73217773 C-113.53593491 58.08706922 -115.74738165 58.76747288 -118.73266602 59.18530273 C-118.73266602 59.84530273 -118.73266602 60.50530273 -118.73266602 61.18530273 C-120.45688028 62.40015659 -122.23901486 63.53348978 -124.04516602 64.62280273 C-127.3011024 66.59338907 -130.16850267 68.365475 -132.73266602 71.18530273 C-133.23411133 71.66354492 -133.73555664 72.14178711 -134.25219727 72.63452148 C-137.72681269 76.27415822 -140.40012844 80.33787174 -141.29516602 85.31030273 C-140.05676668 91.63989935 -135.76530583 95.5230531 -130.73266602 99.18530273 C-130.20415039 99.58491211 -129.67563477 99.98452148 -129.13110352 100.39624023 C-122.97414213 104.65457917 -115.9060921 106.9371777 -108.90454102 109.41479492 C-106.76960191 110.17219913 -104.64141064 110.94632701 -102.51391602 111.72436523 C-88.68172655 116.74506837 -74.65836691 120.80343017 -60.36547852 124.28295898 C-57.29861867 125.0447274 -54.26855557 125.87328529 -51.23266602 126.74780273 C-46.1331909 128.1643236 -40.97097351 129.12655056 -35.7668457 130.06054688 C-31.63291416 130.80778956 -27.56325284 131.67826845 -23.48266602 132.68530273 C-15.48339488 134.58142626 -7.37116473 135.65265759 0.7590332 136.8190918 C4.49662305 137.36477846 8.22535167 137.962139 11.95483398 138.56030273 C14.38771858 138.94534278 16.82089238 139.32850846 19.25415039 139.71118164 C21.49617947 140.06396243 23.73801033 140.41800346 25.97973633 140.77270508 C46.97596904 144.1279473 46.97596904 144.1279473 68.10473633 146.44726562 C73.4458387 146.89696039 78.76387953 147.46514136 84.08374023 148.11889648 C84.78217545 148.20470474 85.48061066 148.290513 86.20021057 148.37892151 C87.64986232 148.5572049 89.09951339 148.73549377 90.54916382 148.91378784 C102.80443139 150.41389262 115.01994271 151.643707 127.34790039 152.39624023 C134.94252837 152.86716197 142.51640305 153.44869181 150.09545898 154.12280273 C175.25441761 156.35198465 200.34662105 157.93912932 225.58706665 158.85710144 C235.2130596 159.20989104 244.83377755 159.66064004 254.4553833 160.11569214 C272.72169506 160.97387694 290.98585586 161.73402428 309.26733398 162.18530273 C310.13442993 162.2072168 311.00152588 162.22913086 311.89489746 162.25170898 C401.67325176 164.50369401 491.58586244 163.38209412 586.08430481 158.48260498 C591.72905128 158.18946948 597.36528095 158.07401111 603.01635742 157.99584961 C624.95200026 157.64177258 646.79828958 155.87078147 668.66183949 154.17012501 C672.23333883 153.89232329 675.8049937 153.61656272 679.37670898 153.34155273 C680.07255411 153.28775263 680.76839924 153.23395252 681.48533058 153.17852211 C690.07435246 152.51829249 698.65412468 151.98984711 707.26342773 151.68139648 C718.32934062 151.27839025 729.30025605 150.23261815 740.31130981 149.08761597 C745.91506923 148.5050192 751.52087044 147.94279933 757.12670898 147.38061523 C758.74797447 147.21749092 758.74797447 147.21749092 760.4019928 147.05107117 C768.03879694 146.28943742 775.67254695 145.64384012 783.32983398 145.12280273 C794.62301911 144.34274121 805.83454931 143.01357279 817.06884766 141.64819336 C818.49958598 141.47430662 819.9303313 141.30047747 821.36108398 141.12670898 C822.05297318 141.04264801 822.74486237 140.95858704 823.4577179 140.87197876 C829.01220702 140.20295615 834.5719003 139.63882463 840.14233398 139.12280273 C847.42583627 138.4405217 854.62449029 137.42652429 861.84985352 136.28833008 C867.3958735 135.42701226 872.93063691 134.7768326 878.51733398 134.24780273 C886.94059789 133.43865836 895.23261235 132.08904641 903.56835938 130.64648438 C909.19086346 129.67879832 914.78638217 128.83049237 920.45483398 128.18530273 C927.60966245 127.35057275 934.62900754 126.03628499 941.69506836 124.64624023 C946.43840802 123.71494717 951.16687926 122.86238724 955.95483398 122.18530273 C961.84122092 121.32592066 967.59498488 120.04607631 973.3894043 118.71875 C978.47597749 117.56011774 983.57019523 116.54333097 988.70483398 115.62280273 C994.07288602 114.65348964 999.29499797 113.43342758 1004.53686523 111.92358398 C1007.53320637 111.11341449 1010.53763297 110.48844341 1013.57983398 109.87280273 C1029.78257475 106.46543556 1045.66968654 101.71392758 1061.26733398 96.18530273 C1062.40299805 95.78698242 1063.53866211 95.38866211 1064.70874023 94.97827148 C1076.324689 90.71671482 1088.09154403 85.29220365 1098.26733398 78.18530273 C1098.92862305 77.72639648 1099.58991211 77.26749023 1100.27124023 76.79467773 C1108.51706241 70.84892361 1117.20392088 63.25986197 1120.14233398 53.18530273 C1120.18358398 52.19530273 1120.22483398 51.20530273 1120.26733398 50.18530273 C1120.31631836 49.50854492 1120.36530273 48.83178711 1120.41577148 48.13452148 C1120.85592485 38.33264458 1117.16890443 30.8389019 1111.26733398 23.18530273 C1110.28794608 22.165107 1109.29446796 21.15741168 1108.26733398 20.18530273 C1108.59733398 19.19530273 1108.92733398 18.20530273 1109.26733398 17.18530273 C1111.87530749 18.44877437 1114.47856805 19.72065497 1117.07983398 20.99780273 C1118.18681641 21.53244141 1118.18681641 21.53244141 1119.31616211 22.07788086 C1120.02836914 22.42915039 1120.74057617 22.78041992 1121.47436523 23.14233398 C1122.12896729 23.46177979 1122.78356934 23.78122559 1123.45800781 24.11035156 C1125.38988448 25.25811205 1126.71287738 26.57476166 1128.26733398 28.18530273 C1129.41202148 28.86592773 1129.41202148 28.86592773 1130.57983398 29.56030273 C1139.19631508 34.77026805 1145.9836294 42.40548246 1148.85327148 52.18139648 C1150.65681946 60.90988812 1148.5027649 68.4965018 1144.26733398 76.18530273 C1138.9507994 83.35444821 1132.24367972 89.65483177 1125.26733398 95.18530273 C1124.27733398 96.05155273 1123.28733398 96.91780273 1122.26733398 97.81030273 C1119.73094579 99.81827672 1117.25523676 101.4277811 1114.41967773 102.96655273 C1111.63594446 104.54282275 1108.96605013 106.28013762 1106.26733398 107.99780273 C1099.1953904 112.37102762 1091.85277927 115.80474205 1084.26733398 119.18530273 C1082.41290098 120.03889101 1080.55870994 120.8930053 1078.70483398 121.74780273 C1067.04032817 127.01231421 1055.28507823 131.80236071 1043.26733398 136.18530273 C1042.0569043 136.6300293 1040.84647461 137.07475586 1039.59936523 137.53295898 C1028.30043695 141.63367991 1016.82054839 145.03724913 1005.28588867 148.39794922 C1001.72847016 149.43962648 998.20251561 150.51726082 994.70483398 151.74780273 C988.03616002 154.03054113 981.11066728 155.52053788 974.26733398 157.18530273 C971.55794397 157.84774058 968.84962168 158.51432471 966.14233398 159.18530273 C965.47919189 159.34949707 964.8160498 159.51369141 964.1328125 159.68286133 C959.77215433 160.77503157 955.45640022 161.98150874 951.14233398 163.24780273 C945.34856356 164.93326322 939.53534095 166.25590686 933.62670898 167.47045898 C930.5221448 168.13108136 927.46318192 168.8843924 924.39233398 169.68530273 C919.0571804 171.04928341 913.68224163 172.07956064 908.26660156 173.05810547 C904.00397792 173.83576345 899.79448887 174.73486032 895.57983398 175.74780273 C890.3891497 176.97884522 885.21981028 177.83081216 879.94311523 178.59545898 C875.56537626 179.2979442 871.23517789 180.17049362 866.89233398 181.06030273 C850.00517816 184.49511433 833.03712275 187.27772118 815.98413086 189.7512207 C809.54110478 190.68796614 803.11914492 191.6948325 796.70483398 192.81030273 C790.36563758 193.90376051 784.03769232 194.69418549 777.63916016 195.34594727 C770.73050924 196.07518966 763.88235672 197.12785072 757.01733398 198.18530273 C748.00646987 199.56137367 739.04317841 200.66515281 729.95874023 201.39624023 C722.47523142 202.01986597 715.04142181 202.94472746 707.59637451 203.91479492 C696.37356389 205.37501559 685.17936857 206.62021344 673.88476562 207.39624023 C667.0426786 207.87432598 660.21833567 208.45785143 653.39233398 209.12280273 C652.51330414 209.20836426 651.63427429 209.29392578 650.72860718 209.38208008 C649.83308136 209.46925293 648.93755554 209.55642578 648.01489258 209.64624023 C631.67901549 211.23487675 615.372999 212.61199197 598.97827148 213.39404297 C597.41576259 213.46880858 595.85326293 213.54376712 594.29077148 213.61889648 C593.47284119 213.65816757 592.65491089 213.69743866 591.81219482 213.73789978 C584.50278719 214.10036971 577.20039157 214.55657608 569.89705849 215.02455521 C565.58852269 215.29948006 561.27954903 215.56750643 556.97063732 215.83646584 C553.45923578 216.05635546 549.94819764 216.2801072 546.43777466 216.51513672 C495.9776734 219.86206571 445.31503608 219.3532693 394.76704997 219.31387299 C389.37382774 219.31010045 383.9806239 219.31146716 378.58740234 219.31567383 C272.31757192 219.39592394 272.31757192 219.39592394 224.36979294 216.38240433 C220.55628351 216.14530771 216.74199011 215.92149279 212.92773438 215.69677734 C211.38310138 215.60568466 209.83846942 215.51457455 208.2938385 215.42344666 C207.15920512 215.35653279 207.15920512 215.35653279 206.00164986 215.28826714 C203.77274774 215.15622473 201.54394894 215.02255174 199.31517029 214.88844299 C191.45780696 214.41742662 183.60069899 213.98707735 175.73608398 213.65405273 C174.90897919 213.61884018 174.08187439 213.58362762 173.22970581 213.54734802 C171.64717661 213.48019243 170.06464692 213.41304824 168.4821167 213.34591675 C149.55471457 212.53045217 130.72567504 210.78906855 111.86791992 209.00415039 C100.06819711 207.88783316 88.28638437 206.83252515 76.45483398 206.12280273 C64.76494754 205.41125959 53.19050058 204.07673076 41.57177734 202.64599609 C33.39685137 201.64335891 25.23264594 200.79088498 17.01733398 200.18530273 C6.65934616 199.41281232 -3.58881323 198.07069796 -13.87548828 196.64624023 C-20.88315679 195.68059712 -27.874912 194.81812314 -34.92016602 194.18530273 C-43.94238774 193.36742428 -52.86264041 192.01719236 -61.81542969 190.64624023 C-68.279469 189.6661893 -74.72449631 188.80475417 -81.23266602 188.18530273 C-99.43557182 186.42181583 -117.48753879 183.25355142 -135.52767944 180.29800415 C-143.93601442 178.92143621 -152.34605383 177.65804246 -160.79516602 176.56030273 C-167.7471763 175.65280687 -174.55321835 174.50100832 -181.39282227 172.93139648 C-185.09409184 172.10456317 -188.81387641 171.42096189 -192.54516602 170.74780273 C-205.75409568 168.30651664 -218.29027393 165.37241257 -230.73266602 160.18530273 C-232.42007202 159.53922386 -234.10756668 158.89337645 -235.79516602 158.24780273 C-244.85970338 154.57777053 -253.12570075 150.34926054 -260.73266602 144.18530273 C-261.59891602 143.60780273 -262.46516602 143.03030273 -263.35766602 142.43530273 C-269.42567432 136.68666329 -272.04875816 131.34757497 -272.29003906 122.98828125 C-272.2925769 121.72455688 -272.2925769 121.72455688 -272.29516602 120.43530273 C-272.29750244 119.61924561 -272.29983887 118.80318848 -272.30224609 117.96240234 C-272.16513696 112.98009106 -271.36193973 109.53901283 -268.73266602 105.18530273 C-268.19641602 104.27780273 -267.66016602 103.37030273 -267.10766602 102.43530273 C-261.18737752 93.79304252 -252.96100177 84.31215593 -243.73266602 79.18530273 C-243.21704102 78.64905273 -242.70141602 78.11280273 -242.17016602 77.56030273 C-240.43486988 75.90045426 -239.06794998 75.5879379 -236.73266602 75.18530273 C-236.73266602 74.52530273 -236.73266602 73.86530273 -236.73266602 73.18530273 C-234.86873646 71.87754571 -232.93735032 70.66556601 -230.98266602 69.49780273 C-230.39138916 69.14331055 -229.8001123 68.78881836 -229.19091797 68.42358398 C-227.96483966 67.69052235 -226.73670014 66.9608979 -225.5065918 66.23461914 C-223.91817168 65.29503345 -222.33847919 64.34072963 -220.76000977 63.38452148 C-209.69870198 56.76599482 -198.23039783 51.07404813 -186.27172852 46.27124023 C-184.0670612 45.32832098 -182.09000733 44.302147 -180.04516602 43.06030273 C-177.42468139 41.57700955 -175.42729105 40.68457067 -172.61547852 39.80639648 C-167.73948173 38.22371046 -163.03314008 36.32398317 -158.29516602 34.37280273 C-149.56993304 30.83438067 -140.77311263 27.70233614 -131.80297852 24.84692383 C-129.90056169 24.23895807 -128.00380274 23.61336197 -126.10766602 22.98608398 C-117.04492998 20.0465543 -107.86825416 17.53727848 -98.67016602 15.06030273 C-96.80666504 14.55490967 -96.80666504 14.55490967 -94.90551758 14.03930664 C-87.33199512 12.02375635 -79.7708932 10.32042182 -72.07714844 8.83984375 C-69.49095419 8.33370558 -66.94131521 7.77628243 -64.38110352 7.15795898 C-57.89811776 5.69117208 -51.28213572 4.87756744 -44.7043457 3.953125 C-42.36933467 3.62444523 -40.03535602 3.28907234 -37.70141602 2.95288086 C-25.09421904 1.15130102 -12.75570578 -0.0015012 0 0 Z " fill="#0073BC" transform="translate(271.732666015625,1730.814697265625)"/>
<path d="M0 0 C-1.26688949 3.80066846 -2.31737062 3.96993411 -5.8125 5.75 C-11.05469901 8.48031198 -16.12090967 11.42248826 -21.17578125 14.484375 C-24.05894439 16.03163267 -26.87227761 17.05752531 -30 18 C-30 18.66 -30 19.32 -30 20 C-31.01707031 20.54527344 -31.01707031 20.54527344 -32.0546875 21.1015625 C-38.47751948 24.57095928 -44.77417595 28.18975922 -51 32 C-52.05574219 32.64195312 -53.11148437 33.28390625 -54.19921875 33.9453125 C-59.10827612 36.94434174 -63.99001444 39.95602638 -68.75 43.1875 C-72.37508584 45.64191592 -76.11322107 47.76876568 -79.95703125 49.859375 C-82.74877415 51.41805364 -85.35640326 53.20235422 -88 55 C-93.60433899 58.60649593 -99.24311796 62.15774638 -104.8984375 65.68359375 C-111.32113962 69.70673616 -117.7027411 73.78294102 -124 78 C-136 86 -136 86 -138.9921875 87.9921875 C-141.02143322 89.3467749 -143.04741075 90.70626934 -145.0703125 92.0703125 C-146.07835937 92.74835938 -147.08640625 93.42640625 -148.125 94.125 C-149.13820313 94.80820312 -150.15140625 95.49140625 -151.1953125 96.1953125 C-153.43294207 97.63512429 -155.62846281 98.81689605 -158 100 C-158.556875 100.5775 -159.11375 101.155 -159.6875 101.75 C-163.08442288 105.05511415 -167.02676114 107.43931366 -171 110 C-175.11175348 112.68522676 -179.05454312 115.51715057 -182.97265625 118.47265625 C-191.63682864 125 -191.63682864 125 -194 125 C-194 125.66 -194 126.32 -194 127 C-195.35217797 127.93612321 -196.71246721 128.86177499 -198.1015625 129.7421875 C-202.74763427 132.82044904 -207.03586462 136.44466027 -211.40234375 139.90234375 C-215.1709353 142.86830682 -218.88581478 145.53148887 -223 148 C-223.60585938 148.60585938 -224.21171875 149.21171875 -224.8359375 149.8359375 C-227.05254153 152.05254153 -229.3655618 153.97919769 -231.8125 155.9375 C-237.24093197 160.33577194 -242.52524752 164.88334041 -247.78442383 169.48217773 C-251.13117634 172.40362028 -254.52979144 175.22506372 -258 178 C-258.78375 178.78375 -259.5675 179.5675 -260.375 180.375 C-262.33332503 182.33332503 -264.24833834 184.06085234 -266.375 185.8125 C-269.73362552 188.64542761 -272.54006987 191.78710435 -275.3828125 195.12890625 C-277.4689753 197.54260668 -279.74456352 199.74456352 -282 202 C-283.83306096 204.12858712 -285.65048503 206.26809845 -287.44921875 208.42578125 C-287.96097656 208.94527344 -288.47273437 209.46476563 -289 210 C-289.66 210 -290.32 210 -291 210 C-291.2371875 210.54527344 -291.474375 211.09054687 -291.71875 211.65234375 C-293.32917574 214.60315433 -295.34152106 216.98704217 -297.5 219.5625 C-299.81239639 222.32911711 -301.99917699 224.99876548 -304 228 C-304.66 228 -305.32 228 -306 228 C-306.268125 228.763125 -306.53625 229.52625 -306.8125 230.3125 C-308.00193232 233.00437316 -308.9708207 233.9708207 -311 236 C-311.96400795 237.66208267 -312.92343199 239.32718925 -313.84765625 241.01171875 C-315.04470924 243.07714239 -316.37401482 244.98725542 -317.75 246.9375 C-335.42819111 273.16387973 -344.71211896 306.78340599 -339.24609375 338.23046875 C-338.38798248 342.23028924 -337.23704071 346.10183393 -336 350 C-335.67644531 351.15113281 -335.35289062 352.30226563 -335.01953125 353.48828125 C-331.39893948 366.06429594 -325.83926022 377.61218534 -319.90332031 389.22094727 C-319.0791687 390.84408046 -318.276681 392.4781673 -317.4765625 394.11328125 C-310.03414896 408.66339661 -300.35621765 422.68566228 -290.62890625 435.79296875 C-288.65559713 438.46663699 -286.84313577 441.23529635 -285 444 C-280.86394562 449.78331414 -276.65758795 455.51133258 -272.32421875 461.1484375 C-271 463 -271 463 -269.63671875 465.29296875 C-267.62084321 468.6271018 -265.39405669 471.7724044 -263.125 474.9375 C-262.70347656 475.53240234 -262.28195312 476.12730469 -261.84765625 476.74023438 C-259.77560173 479.63920974 -257.65882696 482.44694933 -255.34765625 485.16015625 C-250.9601383 490.46751989 -247.87223439 496.36207808 -246 503 C-245.34 503 -244.68 503 -244 503 C-226.35021174 538.02502426 -219.81986749 575.52738648 -231.71875 613.78125 C-233.96626779 620.53812257 -236.22750338 626.93482588 -240 633 C-241.08475391 635.57484292 -242.05809944 638.17571216 -243.03515625 640.79296875 C-244 643 -244 643 -246 645 C-246.67629206 646.66278419 -247.3417486 648.32999182 -248 650 C-253.05073545 659.02781157 -259.50800551 667.17241101 -265.7824707 675.36523438 C-266.90584305 676.8735763 -267.95677117 678.43515675 -269 680 C-269.66 680 -270.32 680 -271 680 C-271.0825 680.61875 -271.165 681.2375 -271.25 681.875 C-272 684 -272 684 -273.9375 684.9375 C-276.77422403 686.39884268 -276.84417214 688.0764354 -278 691 C-280.63043503 693.96767029 -282.21848945 695.73949648 -286 697 C-286.69042645 698.32118641 -287.35359487 699.65672689 -288 701 C-289.22259907 702.35754378 -290.49824711 703.66847953 -291.8125 704.9375 C-292.53308594 705.63746094 -293.25367188 706.33742188 -293.99609375 707.05859375 C-294.65738281 707.69925781 -295.31867188 708.33992188 -296 709 C-296.78375 709.825 -297.5675 710.65 -298.375 711.5 C-301.57732568 714.54983398 -305.00631087 717.22989092 -308.5 719.9375 C-311.05595539 721.97534597 -311.05595539 721.97534597 -313.3828125 724.41015625 C-316.3688474 727.36499377 -319.54734096 729.88403834 -322.875 732.4375 C-326.67625224 735.38256989 -330.45240563 738.32024801 -334.0625 741.5 C-337 744 -337 744 -339.34375 745.40234375 C-343.17130815 747.7045074 -346.63705832 750.45106731 -350.18359375 753.16015625 C-353.0707705 755.04623149 -355.695606 756.06075399 -359 757 C-359 757.66 -359 758.32 -359 759 C-361.1171875 760.5078125 -361.1171875 760.5078125 -363.875 762.125 C-364.77992188 762.66382813 -365.68484375 763.20265625 -366.6171875 763.7578125 C-369 765 -369 765 -371 765 C-371 765.66 -371 766.32 -371 767 C-371.804375 767.391875 -372.60875 767.78375 -373.4375 768.1875 C-378.71336404 770.87171153 -383.89915429 773.7037335 -388.9375 776.8125 C-391 778 -391 778 -393 778 C-393 775 -393 775 -391.53125 773.45703125 C-390.52578125 772.64298828 -390.52578125 772.64298828 -389.5 771.8125 C-384.10077831 767.28442932 -379.00577147 762.53360607 -374.625 757 C-374.08875 756.34 -373.5525 755.68 -373 755 C-372.34 755 -371.68 755 -371 755 C-370.86658203 754.13761719 -370.86658203 754.13761719 -370.73046875 753.2578125 C-369.80798657 750.40650393 -368.39263021 749.02248681 -366.3125 746.875 C-362.57348275 742.84062052 -359.85283157 738.690811 -357.2265625 733.87109375 C-356.82179688 733.25363281 -356.41703125 732.63617187 -356 732 C-355.34 732 -354.68 732 -354 732 C-353.87625 730.948125 -353.87625 730.948125 -353.75 729.875 C-352.82297362 726.32139888 -351.08792977 724.00907526 -349 721 C-346.88007672 716.90912101 -344.92869843 712.74636925 -343 708.5625 C-342.505 707.49128906 -342.01 706.42007813 -341.5 705.31640625 C-341.005 704.22199219 -340.51 703.12757813 -340 702 C-339.50886719 700.93394531 -339.01773438 699.86789062 -338.51171875 698.76953125 C-332.34630145 684.15230414 -330.40447664 668.65372665 -330.375 652.9375 C-330.36828278 652.26019836 -330.36156555 651.58289673 -330.35464478 650.8850708 C-330.29325102 640.26379037 -332.11796539 631.16596528 -335 621 C-335.50518461 619.0013033 -336.00634439 617.00157541 -336.5 615 C-337.61251918 610.95115969 -339.11666836 607.38510023 -341.1015625 603.69140625 C-342 602 -342 602 -342.9375 599.5625 C-349.3190224 584.1717695 -360.50133391 571.00010719 -371.2956543 558.52636719 C-376.75166487 552.18991415 -381.90307302 545.62687933 -387 539 C-387.59683594 538.24976563 -388.19367188 537.49953125 -388.80859375 536.7265625 C-390 535 -390 535 -390 533 C-390.99 532.67 -391.98 532.34 -393 532 C-394.71875 529.890625 -394.71875 529.890625 -396.5 527.25 C-397.38171875 525.95835937 -397.38171875 525.95835937 -398.28125 524.640625 C-403 517.39090909 -403 517.39090909 -403 515 C-403.66 515 -404.32 515 -405 515 C-406.7165029 512.5089775 -408.31243879 510.02278714 -409.875 507.4375 C-410.30941406 506.73302734 -410.74382813 506.02855469 -411.19140625 505.30273438 C-413.2388149 501.96724131 -415.23762124 498.609399 -417.171875 495.20703125 C-418.52144266 492.83952047 -419.89650006 490.53590771 -421.375 488.25 C-425.22564419 482.12937729 -428.90572141 475.81000718 -431.6875 469.125 C-432.87749789 466.06135907 -432.87749789 466.06135907 -434.4375 463.6875 C-438.58795948 456.5487097 -441.01882799 448.3465414 -443.89379883 440.62182617 C-444.93660012 437.82069722 -445.98767215 435.02996353 -447.125 432.265625 C-447.93118339 430.17818586 -448.44978053 428.25368197 -448.875 426.0625 C-449.65135835 422.32021013 -450.71184561 418.76440104 -451.875 415.125 C-463.29966876 374.70916052 -460.36647244 330.18128848 -446 291 C-445.65098633 290.00419922 -445.65098633 290.00419922 -445.29492188 288.98828125 C-440.50581657 275.35005301 -433.85094646 260.47007308 -425 249 C-423.98330491 247.3434648 -422.98448454 245.67587827 -422 244 C-420.82235583 242.0564937 -419.63468644 240.11902974 -418.4375 238.1875 C-417.83808594 237.21167969 -417.23867188 236.23585938 -416.62109375 235.23046875 C-416.08613281 234.49441406 -415.55117188 233.75835938 -415 233 C-414.34 233 -413.68 233 -413 233 C-412.7525 232.278125 -412.505 231.55625 -412.25 230.8125 C-410.88745796 227.74678041 -409.14629658 225.56170882 -407 223 C-406.67 222.34 -406.34 221.68 -406 221 C-405.34 221 -404.68 221 -404 221 C-403.7834375 220.47921875 -403.566875 219.9584375 -403.34375 219.421875 C-401.45630531 216.02008516 -399.01414415 213.20590591 -396.5 210.25 C-396.00113281 209.64800781 -395.50226562 209.04601562 -394.98828125 208.42578125 C-393.70581757 206.90951723 -392.35739729 205.44956624 -391 204 C-390.34 204 -389.68 204 -389 204 C-388.73832031 203.42121094 -388.47664062 202.84242188 -388.20703125 202.24609375 C-386.10450199 198.3336202 -382.98649772 195.25799752 -380 192 C-379.113125 191.030625 -378.22625 190.06125 -377.3125 189.0625 C-374.96443245 186.96827759 -373.9196564 186.70474465 -371 186 C-370.3162955 184.67532254 -369.65035814 183.34136367 -369 182 C-367.66666667 181.33333333 -366.33333333 180.66666667 -365 180 C-364.73960937 179.41476562 -364.47921875 178.82953125 -364.2109375 178.2265625 C-362.55324019 175.17853842 -360.32308856 173.53781094 -357.625 171.375 C-356.66851563 170.59898437 -355.71203125 169.82296875 -354.7265625 169.0234375 C-352.51019423 167.37862552 -350.51177212 166.1070844 -348 165 C-348 164.34 -348 163.68 -348 163 C-346.34928604 161.97388051 -344.68029994 160.97691857 -343 160 C-341.98232915 159.01798878 -340.98376332 158.01597723 -340 157 C-338.84684608 155.92284941 -337.67982427 154.86037024 -336.5 153.8125 C-335.9121875 153.28269531 -335.324375 152.75289062 -334.71875 152.20703125 C-333 151 -333 151 -330 151 C-330 150.34 -330 149.68 -330 149 C-327.8828125 147.2734375 -327.8828125 147.2734375 -325.125 145.375 C-324.22007812 144.74335937 -323.31515625 144.11171875 -322.3828125 143.4609375 C-320 142 -320 142 -318 142 C-318 141.34 -318 140.68 -318 140 C-316.57885742 138.90258789 -316.57885742 138.90258789 -314.60546875 137.72265625 C-313.89712891 137.29146484 -313.18878906 136.86027344 -312.45898438 136.41601562 C-311.70939453 135.96935547 -310.95980469 135.52269531 -310.1875 135.0625 C-308.72035346 134.18221207 -307.2554235 133.29821701 -305.79296875 132.41015625 C-305.1383667 132.01965088 -304.48376465 131.62914551 -303.80932617 131.22680664 C-301.96538857 129.97653186 -300.56849377 128.57322052 -299 127 C-297.35049237 126.04328557 -295.69840298 125.09042764 -294.02734375 124.171875 C-291.01239939 122.4291326 -288.17132239 120.44511659 -285.30859375 118.46484375 C-283 117 -283 117 -280.20703125 115.6171875 C-276.39604686 113.69544872 -272.8490138 111.47508172 -269.25 109.1875 C-267.82586602 108.29111802 -266.4013876 107.39528303 -264.9765625 106.5 C-264.29239258 106.06945312 -263.60822266 105.63890625 -262.90332031 105.1953125 C-255.77104437 100.71614075 -248.5774793 96.67537579 -241 93 C-235.95554732 90.52440306 -230.95860711 87.98743677 -226.02001953 85.30566406 C-218.36998686 81.15960319 -210.58589127 77.36214581 -202.71435547 73.6550293 C-197.54082817 71.21745661 -192.40819394 68.72097337 -187.3125 66.125 C-182.85518696 63.87805439 -178.40581386 61.87262665 -173.74609375 60.08984375 C-170.18314399 58.6758139 -166.69093912 57.11701974 -163.1875 55.5625 C-157.17740547 52.90455639 -151.12358827 50.43902637 -144.96484375 48.140625 C-142.27868312 47.10721406 -139.64656844 45.98245265 -137.00610352 44.83886719 C-131.97531437 42.73520508 -126.84122964 40.88085867 -121.73828125 38.9609375 C-116.76997817 37.08258915 -111.87156323 35.115516 -107 33 C-100.14189232 30.23313737 -93.29313627 27.71195423 -86.18359375 25.67578125 C-83.69069699 24.90427653 -81.35623085 23.86174942 -78.9765625 22.796875 C-75.46700899 21.3819562 -71.82151785 20.3901151 -68.19921875 19.3046875 C-61.69965212 17.32011188 -55.27501271 15.09437464 -48.84204102 12.90551758 C-43.07827112 10.96187125 -37.30744018 9.2034091 -31.42211914 7.66430664 C-29.09868449 7.02706587 -26.83645631 6.29419667 -24.5625 5.5 C-19.9776152 3.92472312 -15.31284875 2.78060706 -10.6015625 1.6484375 C-3.59782609 -0.09723854 -3.59782609 -0.09723854 0 0 Z " fill="#EA2C2D" transform="translate(1217,418)"/>
<path d="M0 0 C-1.26257233 1.17560179 -2.53537084 2.34022865 -3.8125 3.5 C-4.52019531 4.1496875 -5.22789062 4.799375 -5.95703125 5.46875 C-8 7 -8 7 -11 7 C-11.25652344 7.56460937 -11.51304687 8.12921875 -11.77734375 8.7109375 C-13.14057613 11.26318727 -14.75445796 13.36777841 -16.5625 15.625 C-20.61964115 20.70275255 -21.48384036 23.64246214 -21.3984375 30.17578125 C-20.74535046 34.80501584 -18.60426264 37.17283711 -15 40 C-10.39303881 43.10524456 -5.49150711 45.40564574 -0.24511719 47.20849609 C1.27599163 47.74475477 2.78660932 48.3115692 4.28613281 48.90551758 C11.98558182 51.90114454 19.77176329 53.61166817 27.875 55.125 C28.55563507 55.25484283 29.23627014 55.38468567 29.93753052 55.51846313 C39.9147243 57.41451345 49.83614448 58.80088869 59.96484375 59.578125 C65.33969278 59.99391719 70.65888426 60.71767916 76 61.4375 C90.22962673 63.29904625 104.52074087 64.33395566 118.82495117 65.42845154 C124.15433813 65.84141191 129.4757617 66.31247673 134.796875 66.8203125 C158.85177589 69.08532738 182.84650104 69.73627371 207 70 C208.31339355 70.01659668 209.62678711 70.03319336 210.97998047 70.05029297 C217.68161562 70.12635188 224.37801701 70.11483023 231.07958984 70.03710938 C233.92420975 70.01018309 236.76719835 69.99560124 239.61181641 69.99414062 C263.90749776 69.9665151 287.9839467 68.66068283 312.16285706 66.38401031 C314.2127156 66.19101043 316.2627827 66.00034655 318.31286621 65.80975342 C334.14490423 64.31892786 349.8437322 62.42268463 365.5390625 59.8605957 C370.26733918 59.09371363 374.98650624 58.50225285 379.75 58 C387.23472207 57.18599481 394.58805769 55.85517916 401.98486328 54.4609375 C407.19135258 53.48636852 412.36703034 52.64010065 417.625 52 C424.26492357 51.17548202 430.75527968 49.89079958 437.30151367 48.53344727 C443.94631284 47.17003808 450.60780379 46.08237674 457.31591797 45.08325195 C463.09637535 44.20160102 468.68568394 42.97377372 474.3359375 41.453125 C477.2579744 40.95612166 479.17364461 41.14775996 482 42 C483.67987227 43.31665664 485.34466005 44.65263027 487 46 C488.83391152 46.93362768 490.67103115 47.86174574 492.52734375 48.75 C495.59143456 50.29898745 498.53324722 52.02192557 501.5 53.75 C507.16769415 57.03359123 512.93454038 60.03306877 518.81298828 62.91992188 C523.8945299 65.42213124 528.88814583 68.06481328 533.875 70.75 C539.08784386 73.54353614 544.25713277 76.09779888 549.8046875 78.17578125 C555.03691859 80.14019541 560.09202586 82.51428421 565.0625 85.0625 C568.3462435 86.73374918 571.67217195 88.04061031 575.13671875 89.28515625 C577 90 577 90 579.9375 91.5 C583.84026415 93.41155795 587.85966943 94.70269642 592 96 C592 96.99 592 97.98 592 99 C591.05640625 99.37511719 590.1128125 99.75023437 589.140625 100.13671875 C587.84367547 100.6534588 586.54680652 101.17040113 585.25 101.6875 C584.22108643 102.09742188 584.22108643 102.09742188 583.17138672 102.515625 C579.13421378 104.12936831 575.12286508 105.79060644 571.125 107.5 C562.01699181 111.32068002 552.63789397 114.50235777 543.25 117.5625 C538.68956491 119.05341147 534.24931136 120.83658553 529.796875 122.62109375 C525.41975549 124.27893169 520.93318632 125.58999144 516.45654297 126.94946289 C513.16722625 127.94917541 509.88558928 128.9705709 506.60546875 130 C495.54259123 133.45560882 484.52201139 136.84348068 473.22998047 139.47412109 C470.58781342 140.09720275 467.9523454 140.74561143 465.31640625 141.39453125 C451.78818184 144.70890907 438.21698217 147.69593796 424.56762695 150.46630859 C422.0945655 150.98034419 419.63125809 151.52715828 417.16796875 152.0859375 C413.89418944 152.82070456 410.63724277 153.41020001 407.3125 153.875 C402.23317286 154.62265797 397.19762621 155.51255569 392.15283203 156.46533203 C383.86167461 158.02607079 375.63104966 159.39484759 367.23364258 160.21533203 C362.95371809 160.64327905 358.71948301 161.18125646 354.47265625 161.8671875 C336.96067265 164.6357017 319.43042201 165.98433629 301.75 167.1875 C299.90390137 167.31424103 299.90390137 167.31424103 298.02050781 167.44354248 C274.86503158 169.01710717 251.71369643 170.21369498 228.5 170.1875 C227.22568619 170.18759064 227.22568619 170.18759064 225.92562866 170.18768311 C200.29733761 170.16227785 174.58634811 169.11433769 149.0859375 166.4921875 C145.32347537 166.10923591 141.56270463 165.8201997 137.7890625 165.5703125 C124.58533739 164.6892119 111.68828921 163.16864176 98.64453125 160.9375 C93.95736109 160.13795606 89.28806554 159.52350479 84.5625 159 C78.08900573 158.241599 71.8508499 156.94311082 65.51367188 155.46313477 C61.04408797 154.42583016 56.61060183 153.5787608 52.0625 152.9375 C47.19254276 152.24353109 42.60629499 151.15624482 37.88671875 149.78515625 C34.57191387 148.88356521 31.24023285 148.18891691 27.875 147.5 C23.18199902 146.5205911 18.73967371 145.34421867 14.23046875 143.734375 C11.73955727 142.91425003 9.24387342 142.3347214 6.6875 141.75 C-23.33489367 134.43587093 -56.02348168 120.78760913 -80 101 C-80.66902344 100.45859375 -81.33804687 99.9171875 -82.02734375 99.359375 C-89.79760706 92.81265009 -98.15926275 83.34945124 -100 73 C-100.9078505 61.04911559 -98.89940357 53.65916499 -92 44 C-91.34 43.01 -90.68 42.02 -90 41 C-89.34 41 -88.68 41 -88 41 C-87.77957031 40.42507813 -87.55914062 39.85015625 -87.33203125 39.2578125 C-85.58550426 36.29742364 -83.48057554 34.86303482 -80.6875 32.875 C-79.74261719 32.19179687 -78.79773438 31.50859375 -77.82421875 30.8046875 C-75.25361342 29.16206003 -72.86698528 28.01310591 -70 27 C-70 26.34 -70 25.68 -70 25 C-68.04565516 23.90948783 -66.08626519 22.82801643 -64.125 21.75 C-63.03445313 21.14671875 -61.94390625 20.5434375 -60.8203125 19.921875 C-56.3605381 17.58391572 -51.68607846 15.82627758 -47 14 C-45.42581808 13.35987355 -43.85287237 12.71669762 -42.28125 12.0703125 C-33.9688248 8.67806529 -25.63896495 5.41762022 -17.125 2.5625 C-16.02961914 2.1924585 -16.02961914 2.1924585 -14.91210938 1.81494141 C-4.65100766 -1.55033589 -4.65100766 -1.55033589 0 0 Z " fill="#0073BC" transform="translate(487,1584)"/>
<path d="M0 0 C0 0.66 0 1.32 0 2 C-15.87565359 7.10358434 -15.87565359 7.10358434 -22.67578125 8.4765625 C-26.98933227 9.44801769 -31.21234223 10.76317765 -35.45703125 11.99609375 C-38.62676489 12.89424319 -41.79998361 13.71815354 -45 14.5 C-56.50947122 17.3316953 -67.8115854 20.84159738 -79.10986328 24.40625 C-81.90268311 25.28356049 -84.70118941 26.14202098 -87.5 27 C-93.02061971 28.69444763 -98.53423464 30.41045183 -104.04321289 32.14233398 C-107.21959431 33.13928922 -110.3983511 34.11833499 -113.58984375 35.06640625 C-119.11661215 36.71089393 -124.35118658 38.4904373 -129.5703125 40.9375 C-132.60166038 42.2631055 -135.68997756 43.34427551 -138.8125 44.4375 C-144.32589816 46.37399968 -149.72427258 48.47472219 -155.09765625 50.76953125 C-156.96985973 51.56326489 -158.85232367 52.33341253 -160.74609375 53.07421875 C-187.7291578 63.71389588 -187.7291578 63.71389588 -208 83 C-208.66 83 -209.32 83 -210 83 C-211.21035342 86.78235444 -211.53481905 90.05570951 -211 94 C-206.92462344 100.16565035 -200.57110262 103.13398107 -194 106 C-193.07058594 106.433125 -192.14117187 106.86625 -191.18359375 107.3125 C-184.86639523 110.13883649 -178.70412444 111.93006795 -171.91015625 113.2265625 C-168.56197151 113.8888408 -165.26413278 114.64513386 -161.9453125 115.4375 C-137.07715435 121.19056819 -111.51235762 122.85788986 -86.125 124.75 C-85.04889654 124.83051228 -85.04889654 124.83051228 -83.95105362 124.91265106 C-79.05389437 125.27825274 -74.15609848 125.63421702 -69.2578125 125.984375 C-68.03347 126.07270599 -66.8091275 126.16103699 -65.54768372 126.25204468 C-62.38633282 126.47209377 -59.22466559 126.68026961 -56.06157875 126.87374115 C-54.66505544 126.9592695 -53.2686824 127.04728131 -51.8724575 127.13755035 C-34.41405127 128.24032292 -16.9389354 128.18115284 0.54622149 128.20018864 C3.15785655 128.20316692 5.76948768 128.20728026 8.38112068 128.21169281 C16.67108299 128.22534265 24.96103571 128.2350092 33.25100845 128.2388947 C41.6749586 128.24287107 50.09879364 128.25488027 58.52270508 128.28125 C107.10189973 128.43004505 155.487745 127.64327016 204 125 C205.03320374 124.94393585 206.06640747 124.8878717 207.13092041 124.83010864 C215.40164034 124.37895827 223.6703301 123.90260831 231.9375 123.390625 C237.67198316 123.05165609 243.3995806 122.85608804 249.1418457 122.71142578 C266.04217772 122.28442432 282.83480576 120.90845464 299.67407227 119.45947266 C309.62274096 118.61239185 319.54039153 117.88739241 329.51953125 117.52734375 C340.46611528 117.12125049 351.30296573 116.0873845 362.1897583 114.90231323 C367.5559213 114.31837342 372.92437304 113.75638104 378.29296875 113.1953125 C379.3305835 113.08656296 380.36819824 112.97781342 381.43725586 112.86576843 C388.99336658 112.08245457 396.54493891 111.44448011 404.125 110.9375 C414.7269816 110.21798838 425.223708 108.88080049 435.74951172 107.46069336 C443.24294586 106.45716697 450.71434569 105.6045316 458.25 105 C467.60792164 104.24139198 476.8339081 102.89580572 486.10986328 101.4609375 C492.77379052 100.44142416 499.41020186 99.59248219 506.125 99 C514.77806382 98.23147131 523.29281205 96.88869799 531.859375 95.4609375 C537.93928211 94.45760308 543.99307497 93.60417188 550.125 93 C558.00810547 92.21829414 565.74869718 90.87114799 573.54125977 89.4609375 C579.2055028 88.4481665 584.84009199 87.59712084 590.5625 87 C598.08878548 86.21160152 605.46960628 84.86812561 612.90283203 83.46313477 C618.40263562 82.43558797 623.87837777 81.56667839 629.4375 80.9375 C634.50985477 80.35500397 639.44191319 79.55474049 644.4375 78.5 C652.57285934 76.78775022 660.74000979 75.85936251 669 75 C669 75.66 669 76.32 669 77 C668.36610352 77.30180176 667.73220703 77.60360352 667.07910156 77.91455078 C651.78612092 85.17409195 651.78612092 85.17409195 636.61328125 92.6796875 C634.76299549 93.6145105 632.90543235 94.53499344 631.04296875 95.4453125 C624.79360522 98.5098271 618.76017761 101.80898449 612.7890625 105.38671875 C609.91225797 107.05075275 606.97507341 108.52025145 604 110 C598.55769979 113.02617578 593.21399101 116.20100633 587.98046875 119.57421875 C577.81210917 126.12203511 569.60555255 129.59806193 557.64819336 131.87670898 C553.87608687 132.59774297 550.19115219 133.44223698 546.5 134.5 C540.95935178 136.08069013 535.35362172 137.15409075 529.69921875 138.24609375 C526.38847783 138.92082764 523.14180799 139.70372221 519.875 140.5625 C515.88426334 141.59202515 511.95493837 142.35610878 507.875 142.9375 C502.64993623 143.68305012 497.57174016 144.74064254 492.4375 145.9375 C485.08462635 147.63921218 477.73120228 148.867021 470.26049805 149.92333984 C465.21078309 150.64437638 460.2419892 151.51266 455.25 152.5625 C449.73437175 153.70814441 444.25607304 154.52141134 438.66064453 155.16259766 C432.44853833 155.89490122 426.29471384 156.91271139 420.125 157.9375 C410.07564351 159.5944685 400.01885328 160.88106169 389.89575195 161.99365234 C384.67561772 162.56895026 379.49234056 163.18444555 374.3125 164.0625 C367.8905644 165.11150143 361.44393089 165.587487 354.96264648 166.10961914 C346.66193681 166.80205598 338.40405436 167.74629397 330.13446045 168.73150635 C317.69860156 170.20927029 305.30190931 171.44689889 292.79785156 172.2109375 C285.31837442 172.67727416 277.8613407 173.25860072 270.3984375 173.9375 C245.50218813 176.19407788 220.67837851 177.76659937 195.6968689 178.67179871 C188.93784803 178.91872289 182.18178737 179.20870844 175.42578125 179.52734375 C173.99505028 179.59459656 173.99505028 179.59459656 172.53541565 179.66320801 C168.89100173 179.83523362 165.24663375 180.00808667 161.60244751 180.18487549 C155.40267524 180.48449187 149.20199212 180.75071493 143 181 C141.93263611 181.04450287 140.86527222 181.08900574 139.76556396 181.13485718 C113.65054398 182.18831021 87.53103831 182.18752201 61.3984375 182.18530273 C56.42216302 182.18522213 51.4459819 182.19207557 46.46972656 182.20581055 C1.97617521 182.32660379 -42.43024343 181.30021907 -86.8359375 178.421875 C-92.21891107 178.08428667 -97.58855355 177.88467834 -102.97998047 177.76025391 C-122.61575727 177.27722093 -142.13550664 174.94146786 -161.66047668 172.9294281 C-168.8500127 172.1957505 -176.04409094 171.56212448 -183.24609375 170.96484375 C-191.35088652 170.28450276 -199.3521719 169.35954447 -207.375 168 C-214.61462016 166.82671932 -221.8321327 165.71869509 -229.125 164.9375 C-235.23877687 164.27543279 -241.23637742 163.2901865 -247.26635742 162.10302734 C-251.31317382 161.30639022 -255.3534566 160.63578808 -259.4375 160.0625 C-265.26451342 159.20111541 -270.93868162 157.91680227 -276.65014648 156.49633789 C-280.525287 155.54129356 -284.3846152 154.74621312 -288.3203125 154.078125 C-294.10471954 153.04987488 -299.64391115 151.49154919 -305.25 149.75 C-306.25216553 149.440625 -307.25433105 149.13125 -308.28686523 148.8125 C-349.42019678 135.90481361 -349.42019678 135.90481361 -358.93359375 120.63671875 C-360.96886794 115.60444741 -360.88592993 110.3018442 -360 105 C-358.58984375 102.109375 -358.58984375 102.109375 -357 100 C-356.34 100 -355.68 100 -355 100 C-354.63068359 98.86884766 -354.63068359 98.86884766 -354.25390625 97.71484375 C-352.12562846 93.10689028 -348.05527433 90.87462484 -344 88 C-343.3296875 87.505 -342.659375 87.01 -341.96875 86.5 C-332.0845309 79.50501418 -320.72075718 74.58336998 -309.53515625 70.08203125 C-307.36031586 69.15378658 -305.39727034 68.15273902 -303.375 66.9375 C-299.89361005 64.93892429 -296.44182913 63.49933196 -292.70703125 62.0546875 C-289.94909556 60.9801671 -287.22572116 59.84112472 -284.5 58.6875 C-274.37633245 54.45182044 -264.11964708 50.53289481 -253.84033203 46.69238281 C-251.23877745 45.71360743 -248.65155966 44.69879713 -246.0625 43.6875 C-234.77186719 39.3489698 -223.45168071 35.27715657 -211.78515625 32.0625 C-208.07624902 31.02140323 -204.39410448 29.91293724 -200.70996094 28.78833008 C-192.36561005 26.24357101 -184.01047412 23.91598232 -175.53125 21.8671875 C-172.47800154 21.11738534 -169.46028298 20.2998822 -166.4375 19.4375 C-160.90814039 17.90156678 -155.30800523 16.83682111 -149.67578125 15.75 C-146.49299058 15.10058894 -143.38569311 14.34203228 -140.25 13.5 C-134.30605982 11.96607995 -128.31854378 11.03638157 -122.25512695 10.125 C-117.28411079 9.37502644 -112.36612252 8.4992561 -107.4375 7.5 C-97.25269692 5.51171104 -86.9425489 4.46968642 -76.62939453 3.38818359 C-72.96744422 2.99651798 -69.31038572 2.57100565 -65.65234375 2.14453125 C-43.74808513 -0.28102349 -22.01535386 -0.32191017 0 0 Z " fill="#0073BC" transform="translate(524,1126)"/>
<path d="M0 0 C-1.11440652 3.34321955 -1.97472343 4.06019619 -4.625 6.25 C-9.54542764 10.42705368 -14.40407961 14.60611942 -18 20 C-18.66 20 -19.32 20 -20 20 C-20.0825 20.515625 -20.165 21.03125 -20.25 21.5625 C-21.11094703 24.36057784 -22.53801651 26.63119907 -24.01171875 29.14453125 C-28.29674381 37.18953877 -27.34215524 44.57932927 -24.94921875 52.9609375 C-24.63597656 53.63382813 -24.32273437 54.30671875 -24 55 C-22.515 55.495 -22.515 55.495 -21 56 C-20.60167969 56.59683594 -20.20335937 57.19367188 -19.79296875 57.80859375 C-17.1886821 60.99161076 -13.98044789 62.31441464 -10.3125 64.0625 C-9.62994141 64.40087891 -8.94738281 64.73925781 -8.24414062 65.08789062 C0.80540926 69.50584841 9.64047976 72.01848628 19.5 74 C20.47208405 74.1960936 20.47208405 74.1960936 21.46380615 74.39614868 C35.61844866 77.21524759 49.79272557 78.51801714 64.16162109 79.66894531 C68.95864256 80.08268155 73.73636845 80.61850324 78.51928711 81.16918945 C90.87537889 82.59092103 103.2234029 83.53486898 115.63916016 84.22851562 C117.04590465 84.30718057 118.45264282 84.38595875 119.859375 84.46484375 C120.57543915 84.50499603 121.2915033 84.54514832 122.02926636 84.58651733 C132.69366593 85.19666484 143.34700995 85.98594714 154.00076294 86.75708008 C156.60065111 86.94520347 159.20070911 87.13084555 161.80078125 87.31640625 C162.53335144 87.37051163 163.26592163 87.424617 164.02069092 87.48036194 C180.86191206 88.67763553 197.66173576 89.17143652 214.54296875 89.203125 C215.58878931 89.20595238 216.63460987 89.20877975 217.71212196 89.21169281 C223.27349712 89.22657281 228.8348472 89.23586634 234.39624023 89.24023438 C238.87191145 89.24456761 243.34738427 89.25827313 247.82299805 89.28125 C285.46555047 89.47036533 322.79919002 87.96303313 360.27960205 84.4289856 C365.28688896 83.96222172 370.29485911 83.62328099 375.31445312 83.31640625 C387.95046259 82.54196665 400.44565352 81.15963348 412.98291016 79.46142578 C420.086272 78.50039851 427.17315107 77.63795609 434.3125 77 C443.12229423 76.19885673 451.82352579 74.85455186 460.55737305 73.46313477 C466.73727223 72.48321011 472.90395442 71.60636668 479.125 70.9375 C484.91557405 70.30720529 490.594392 69.37501076 496.30834961 68.24145508 C502.73833468 66.99226657 509.20516924 66.05860033 515.6875 65.125 C525.58569391 63.69000303 535.45510987 62.13084898 545.3125 60.4375 C546.47289795 60.23979004 547.6332959 60.04208008 548.82885742 59.83837891 C555.84245059 58.6199774 562.79785306 57.2235528 569.74731445 55.68041992 C574.17453831 54.75430171 578.61655141 54.04584393 583.09765625 53.4375 C585.92197309 53.06841868 585.92197309 53.06841868 588.30859375 52.375 C590.3125 51.875 590.3125 51.875 594 52 C596.31601201 53.78663783 598.16635219 55.73432768 600.1015625 57.92578125 C601.82331802 59.80695857 603.34249644 61.05314923 605.5 62.375 C606.325 62.91125 607.15 63.4475 608 64 C608 64.66 608 65.32 608 66 C608.721875 66.2475 609.44375 66.495 610.1875 66.75 C613.27426687 68.12189639 615.37439589 69.88395758 618 72 C621.60676578 74.42763082 625.31023149 76.70091836 629 79 C630.01578125 79.64324219 631.0315625 80.28648438 632.078125 80.94921875 C643.21646065 87.93125427 654.59534224 94.53272775 667 99 C668.51207031 99.556875 668.51207031 99.556875 670.0546875 100.125 C672.69942693 101.09406483 675.34764817 102.05201113 678 103 C677.67 103.99 677.34 104.98 677 106 C675.16845703 106.81201172 675.16845703 106.81201172 672.7578125 107.4296875 C671.42000732 107.78281006 671.42000732 107.78281006 670.05517578 108.14306641 C669.08821777 108.38460449 668.12125977 108.62614258 667.125 108.875 C666.1335498 109.1332959 665.14209961 109.3915918 664.12060547 109.65771484 C662.07262698 110.19039199 660.02328566 110.71785533 657.97265625 111.24023438 C655.26904684 111.93123573 652.57109664 112.63970826 649.875 113.359375 C641.95444066 115.47270449 634.01832937 117.515292 626.05932617 119.47875977 C622.46587799 120.36918358 618.88366398 121.29214455 615.30859375 122.25390625 C606.68368136 124.57319584 598.1174158 126.65285484 589.33984375 128.3203125 C586.36034161 128.92666732 583.48237847 129.65831141 580.5625 130.5 C575.46678262 131.95159902 570.31733367 132.93528433 565.10913086 133.875 C560.75827978 134.66168714 556.4418499 135.53958843 552.125 136.5 C545.99978148 137.83945553 539.85369848 138.88089312 533.66577148 139.875 C529.13430582 140.61302685 524.66612326 141.47995769 520.1875 142.5 C513.4862647 143.9891634 506.75484855 144.94431947 499.95874023 145.87280273 C494.36094589 146.64312292 488.80569941 147.53347429 483.25 148.5625 C477.03748881 149.70369231 470.836575 150.54607597 464.55859375 151.23291016 C459.26168383 151.82185553 454.01308597 152.60239387 448.75 153.4375 C439.21621448 154.92709521 429.65004782 155.92207746 420.04931641 156.87255859 C413.23260731 157.55041931 406.43602559 158.30101761 399.6418457 159.17578125 C386.36276071 160.87798005 373.08727247 161.80116294 359.72698975 162.58651733 C353.88273176 162.93514877 348.04295365 163.33807768 342.203125 163.75390625 C341.26741669 163.82040375 340.33170837 163.88690125 339.36764526 163.95541382 C335.64155281 164.22085282 331.91552478 164.48710068 328.1897583 164.75708008 C327.32227966 164.81984131 326.45480103 164.88260254 325.56103516 164.94726562 C324.43189194 165.02938293 324.43189194 165.02938293 323.27993774 165.11315918 C304.1413973 166.44861603 285.07267025 167.16784948 265.88671875 167.203125 C264.81850199 167.20595238 263.75028522 167.20877975 262.64969826 167.21169281 C256.97276199 167.22656409 251.29585024 167.23586391 245.61889648 167.24023438 C241.04622213 167.24457331 236.47374134 167.25830313 231.90112305 167.28125 C195.4924538 167.46006534 159.30641992 166.35111677 123.06821156 162.65682602 C117.97720114 162.14625761 112.9273649 161.83480056 107.8125 161.6875 C97.34527232 161.26271136 87.0074769 159.50511465 76.66918945 157.90307617 C75.26777903 157.68643929 73.86633059 157.4700482 72.46484375 157.25390625 C71.77423355 157.14723633 71.08362335 157.04056641 70.37208557 156.93066406 C64.54428351 156.04695195 58.70235876 155.33793047 52.84202576 154.70704651 C47.07758109 154.07075455 41.49541014 152.98448365 35.82421875 151.78515625 C31.66626271 150.93147988 27.49678566 150.20953961 23.3125 149.5 C17.43444974 148.48994659 11.68073574 147.25662746 5.91015625 145.734375 C2.87132493 144.96752898 -0.17540204 144.35677986 -3.25 143.75 C-30.03720837 138.08404563 -55.69021316 128.4775897 -80 116 C-81.99906279 114.99812778 -83.99882767 113.99765189 -86 113 C-86 112.34 -86 111.68 -86 111 C-86.71414063 110.7525 -87.42828125 110.505 -88.1640625 110.25 C-97.95602901 105.9339817 -106.03070936 97.10361545 -110.125 87.30859375 C-112.98733797 78.32545271 -112.48341458 69.65915944 -108.29296875 61.1875 C-102.52399929 51.42730998 -94.72334154 43.90419715 -85.390625 37.6171875 C-83.4473815 36.30264043 -81.60439334 34.93294031 -79.75 33.5 C-75.28577314 30.2793792 -70.24055139 28.04087453 -65.30859375 25.63671875 C-62.83000082 24.41059072 -60.43899139 23.15649491 -58.0625 21.75 C-54.79856621 19.88489498 -51.47325521 18.41284958 -48 17 C-46.04103792 16.1890171 -44.08276289 15.37637355 -42.125 14.5625 C-41.08988281 14.13324219 -40.05476563 13.70398437 -38.98828125 13.26171875 C-36.40867617 12.17255216 -33.85888769 11.03893553 -31.3125 9.875 C-27.65170222 8.22664802 -23.94684561 6.93961735 -20.125 5.71875 C-18.17170637 5.05807715 -16.2685844 4.25370017 -14.375 3.4375 C-9.51488116 1.36744938 -5.30060055 0 0 0 Z " fill="#0073BC" transform="translate(438,1359)"/>
<path d="M0 0 C0.66 0 1.32 0 2 0 C3.96580984 18.89361683 -6.63407701 36.36095293 -18.0703125 50.56640625 C-26.84672286 61.07427962 -36.74721714 70.21932406 -48 78 C-48.90878906 78.64582031 -49.81757812 79.29164062 -50.75390625 79.95703125 C-53.15632975 81.65770363 -55.5741285 83.33303586 -58 85 C-58.969375 85.680625 -59.93875 86.36125 -60.9375 87.0625 C-65.49799771 89.94771284 -70.23439413 92.47316509 -75 95 C-75.80614746 95.42829102 -76.61229492 95.85658203 -77.44287109 96.29785156 C-80.20971192 97.76527521 -82.97937113 99.22724213 -85.75 100.6875 C-86.64920166 101.16324463 -87.54840332 101.63898926 -88.47485352 102.12915039 C-93.25030743 104.63525691 -98.00627833 106.9633216 -103 109 C-104.09957031 109.44859375 -105.19914062 109.8971875 -106.33203125 110.359375 C-109.51606621 111.63155956 -112.70132017 112.90047174 -115.88916016 114.16308594 C-117.28536877 114.7166602 -118.68089001 115.27197159 -120.07568359 115.82910156 C-136.50796243 122.38667375 -153.14998547 128.6460061 -170.2578125 133.2109375 C-172.98823125 133.94344464 -172.98823125 133.94344464 -175.4765625 135.01171875 C-178.36916383 136.14457964 -181.21298249 136.78828249 -184.25 137.4375 C-188.06546102 138.28775391 -191.75775317 139.18136652 -195.4375 140.5 C-200.36374784 142.23548548 -205.41474917 143.19981996 -210.5234375 144.25 C-213.55569531 144.90415 -216.51662879 145.65515152 -219.5 146.5 C-224.8803651 148.01794643 -230.31390621 149.17191367 -235.78515625 150.3125 C-238.25491906 150.84066313 -240.68581767 151.41340366 -243.125 152.0625 C-246.22717579 152.8130264 -249.22872024 153.38070741 -252.375 153.875 C-257.49611698 154.69103746 -262.51353849 155.77101391 -267.5625 156.9375 C-274.70952464 158.57749028 -281.86008134 159.8391655 -289.11035156 160.92553711 C-293.8810465 161.64583576 -298.59051654 162.49852439 -303.3125 163.5 C-310.39594605 164.96554056 -317.50905951 165.93710427 -324.67944336 166.875 C-330.43614773 167.63301954 -336.15587283 168.49913645 -341.875 169.5 C-349.8313585 170.87856364 -357.81556453 171.90294113 -365.83105469 172.87280273 C-371.69550252 173.5828709 -377.54770627 174.34463477 -383.39624023 175.17553711 C-392.20366063 176.42450922 -400.98983035 177.41941976 -409.85400391 178.16040039 C-415.61984266 178.65614447 -421.366934 179.25677051 -427.11328125 179.94140625 C-427.82942596 180.02672104 -428.54557068 180.11203583 -429.28341675 180.19993591 C-430.76617567 180.376779 -432.24893322 180.55363363 -433.73168945 180.73049927 C-446.40127272 182.23578785 -459.02836655 183.46060314 -471.76928711 184.2109375 C-479.5116651 184.67625236 -487.23432822 185.25647636 -494.9609375 185.9375 C-516.95499868 187.87376095 -538.90036051 189.53808613 -560.9662838 190.35852146 C-569.87430946 190.69201835 -578.77739368 191.07918707 -587.67978382 191.53986073 C-634.84421076 193.97958728 -681.92194517 194.4722845 -729.14350498 194.38570613 C-736.03093608 194.37439452 -742.91823768 194.37848539 -749.80566406 194.39111328 C-796.0464734 194.47379903 -842.14270523 193.92115926 -888.32670498 191.53387833 C-898.09483709 191.03058927 -907.86397151 190.64147348 -917.63922119 190.30758667 C-942.49438377 189.4546971 -967.21380584 187.22476986 -991.96876526 184.90377808 C-999.88755628 184.16944767 -1007.81087929 183.55048221 -1015.7421875 182.96875 C-1025.01382058 182.2812816 -1034.17341674 181.3480068 -1043.375 180 C-1051.72114338 178.82733502 -1060.04155826 177.73833014 -1068.4375 177 C-1076.6383409 176.2638414 -1084.67956104 174.93303114 -1092.77807617 173.4609375 C-1098.09580323 172.49514277 -1103.38423139 171.64689568 -1108.75 171 C-1115.18911072 170.19332648 -1121.4621189 168.91760421 -1127.79589844 167.53344727 C-1133.17864628 166.36188882 -1138.5676239 165.34929996 -1144 164.4375 C-1149.52731731 163.50042089 -1154.8903459 162.3154845 -1160.2734375 160.74609375 C-1163.4313234 159.88197311 -1166.60540601 159.22027427 -1169.8125 158.5625 C-1192.79834006 153.6972466 -1216.67373461 145.9261251 -1237 134 C-1237 133.34 -1237 132.68 -1237 132 C-1228.62209362 132.66895018 -1220.32187362 133.70804235 -1212 134.875 C-1210.72125 135.05208496 -1209.4425 135.22916992 -1208.125 135.41162109 C-1201.06757847 136.39784595 -1194.02962362 137.45871463 -1187 138.625 C-1179.90740071 139.79156604 -1172.82843513 140.54167237 -1165.66894531 141.16064453 C-1158.3354859 141.81707535 -1151.05257884 142.75065249 -1143.75592041 143.73077393 C-1132.63084731 145.22393374 -1121.52929314 146.47659409 -1110.33056641 147.28125 C-1103.77613461 147.75740436 -1097.25430699 148.38104522 -1090.72241211 149.10302734 C-1077.79271959 150.52981255 -1064.8844012 151.50194626 -1051.89550781 152.16235352 C-1043.10619544 152.61645578 -1034.33843724 153.18977566 -1025.56640625 153.90625 C-918.49436223 162.50224095 -810.29189353 161.70932695 -597.40211487 152.78234863 C-590.04085986 152.19905785 -582.69097865 151.76003108 -575.3125 151.47265625 C-566.07372233 151.11122117 -556.9244374 150.31968582 -547.73336792 149.32983398 C-543.40309974 148.86368161 -539.07076616 148.41766567 -534.73828125 147.97265625 C-533.88931778 147.88521149 -533.04035431 147.79776672 -532.16566467 147.70767212 C-525.26443124 147.00610887 -518.35828947 146.47018474 -511.4375 146 C-501.34019324 145.30002605 -491.33792961 144.08500714 -481.31164551 142.72949219 C-472.94397614 141.59823965 -464.60689999 140.63815787 -456.1875 140 C-446.84431496 139.28327161 -437.66363931 137.95601959 -428.41552734 136.4609375 C-422.05552898 135.44074922 -415.7258349 134.59295039 -409.3125 134 C-401.2369666 133.2449669 -393.31763154 131.90755773 -385.33959961 130.4609375 C-379.85717192 129.47342805 -374.40993735 128.62935328 -368.875 128 C-361.74069691 127.17539531 -354.75421624 125.8534482 -347.7109375 124.4609375 C-342.60535933 123.46218206 -337.53967709 122.62399551 -332.375 122 C-325.81042814 121.1947075 -319.43336104 119.87667539 -312.98046875 118.4609375 C-308.29045693 117.44400937 -303.63912243 116.61260817 -298.875 116 C-292.94552224 115.2208942 -287.24334067 113.94724422 -281.44335938 112.52905273 C-276.77393831 111.39467656 -272.10558447 110.41906673 -267.375 109.5625 C-260.61724773 108.33198392 -253.90138617 106.95087761 -247.1875 105.5 C-246.24503418 105.29834229 -245.30256836 105.09668457 -244.33154297 104.88891602 C-238.66585853 103.65429086 -233.08375137 102.22821362 -227.49780273 100.67382812 C-224.33425187 99.82040222 -221.14983776 99.14323331 -217.9375 98.5 C-212.97111901 97.46556296 -208.18190627 96.20463791 -203.34765625 94.6796875 C-200.97040761 93.99143249 -198.62116715 93.50782593 -196.1875 93.0625 C-191.01788891 92.09523 -186.10101186 90.52859256 -181.09375 88.9375 C-178.54106056 88.16395774 -176.04789512 87.52964539 -173.4375 87 C-168.87948985 86.05352795 -164.5566354 84.57209368 -160.15625 83.06640625 C-157.03492254 82.01179932 -153.90066283 81.02563579 -150.75 80.0625 C-149.68007812 79.73507812 -148.61015625 79.40765625 -147.5078125 79.0703125 C-145.66524778 78.50810456 -143.82262749 77.9460767 -141.97949219 77.38574219 C-139.86016972 76.7400494 -137.74251306 76.08909911 -135.625 75.4375 C-134.97112305 75.23970947 -134.31724609 75.04191895 -133.64355469 74.83813477 C-130.44942374 73.85166411 -127.35344899 72.76353962 -124.29296875 71.42578125 C-121.72448277 70.31368471 -119.37641156 69.4589409 -116.6875 68.75 C-104.49320662 65.21272406 -92.65648603 59.98805624 -81 55 C-80.28457031 54.69835938 -79.56914063 54.39671875 -78.83203125 54.0859375 C-67.2500443 49.08808197 -55.98460455 43.18598087 -45 37 C-43.59041016 36.22076172 -43.59041016 36.22076172 -42.15234375 35.42578125 C-34.01911625 30.82873962 -26.4452129 25.62569511 -19 20 C-18.44715332 19.58314941 -17.89430664 19.16629883 -17.32470703 18.73681641 C-10.79589065 13.74602912 -5.64162378 8.84839666 -1.3046875 1.8359375 C-0.87414063 1.23007813 -0.44359375 0.62421875 0 0 Z " fill="#0073BC" transform="translate(1508,1854)"/>
<path d="M0 0 C0.72380859 0.32371582 1.44761719 0.64743164 2.19335938 0.98095703 C11.91357144 5.34798036 21.20694703 9.93200128 30 16 C31.16611725 16.75085396 32.33269093 17.50100023 33.5 18.25 C35.59798806 19.71859164 37.20493824 21.20493824 39 23 C39.99 23.33 40.98 23.66 42 24 C43.13556274 25.10115175 44.26367817 26.21090279 45.35546875 27.35546875 C47.44324483 29.44324483 49.65702923 31.36378213 51.875 33.3125 C56.29951529 37.27817667 60.25108857 41.3962299 64 46 C64.57363281 46.69738281 65.14726563 47.39476562 65.73828125 48.11328125 C88.99136979 77.14097271 98.53398003 113.79051719 94.61767578 150.59277344 C90.55878657 179.08203975 78.91251772 204.81476444 62 228 C61.55398438 228.6290625 61.10796875 229.258125 60.6484375 229.90625 C57.30358076 234.52254351 53.63657487 238.85441033 49.9375 243.1875 C49.43065674 243.78208008 48.92381348 244.37666016 48.40161133 244.98925781 C45.3993121 248.47605119 42.26975635 251.75872585 39 255 C38.401875 255.78375 37.80375 256.5675 37.1875 257.375 C34.68756671 260.37491995 31.9141136 262.77139726 28.953125 265.3046875 C25.55597804 268.25341106 22.4786233 271.49858512 19.375 274.75 C17 277 17 277 14 278 C12.31769827 279.65088353 10.65345407 281.32022466 9 283 C6.95652803 284.66584477 4.91342247 286.28668128 2.8125 287.875 C2.24007568 288.31062256 1.66765137 288.74624512 1.07788086 289.19506836 C-7.7691376 295.89174412 -16.96787076 301.98346677 -26.32763672 307.93310547 C-27.83900946 308.89729509 -29.34374584 309.87186801 -30.84765625 310.84765625 C-41.21830505 317.55268544 -51.87882609 323.54421263 -62.95214844 328.9909668 C-68.85010191 331.89638722 -74.63129694 334.99159833 -80.40234375 338.140625 C-83.74486872 339.91385648 -87.17088384 341.44957502 -90.63696289 342.96435547 C-93.03434209 344.01505105 -95.4164798 345.09501452 -97.796875 346.18359375 C-107.1021266 350.42423202 -116.38547564 354.50380932 -126 358 C-126.93972656 358.34546875 -127.87945313 358.6909375 -128.84765625 359.046875 C-132.4615319 360.36840477 -136.08079722 361.67370291 -139.70703125 362.9609375 C-144.49703618 364.67410092 -149.20046929 366.49136459 -153.875 368.5 C-160.13238129 371.13258113 -166.48944309 373.09660371 -173 375 C-175.59985669 375.76988568 -178.19870401 376.5430476 -180.796875 377.31860352 C-182.56687577 377.8466303 -184.33768304 378.37196288 -186.109375 378.89428711 C-190.16523232 380.09996403 -194.07229966 381.42214797 -198 383 C-199.90890242 383.50921838 -201.82636434 383.98712498 -203.75 384.4375 C-207.46213558 385.33713629 -211.08021014 386.3072392 -214.6875 387.5625 C-220.39919207 389.53562999 -225.9385533 391 -232 391 C-231.67 390.01 -231.34 389.02 -231 388 C-230.34 388 -229.68 388 -229 388 C-228.7525 387.278125 -228.505 386.55625 -228.25 385.8125 C-225.86664217 380.44994488 -222.93344954 377.59448191 -217.625 375.1875 C-212.93714313 372.96633518 -208.41963841 370.6017187 -203.9375 368 C-199.8826509 365.65239793 -195.81686484 363.33984114 -191.6875 361.125 C-181.00090218 355.33182215 -170.48475525 349.15615215 -160.39453125 342.375 C-157.68289353 340.8179095 -154.98772896 339.89934533 -152 339 C-152 338.34 -152 337.68 -152 337 C-150.19921875 335.7734375 -150.19921875 335.7734375 -147.6875 334.375 C-143.80430051 332.12711973 -140.16576209 329.73639046 -136.5625 327.0625 C-122.92495624 316.97498541 -122.92495624 316.97498541 -117 315 C-117 314.34 -117 313.68 -117 313 C-114 311 -114 311 -111 311 C-110.67 310.01 -110.34 309.02 -110 308 C-107.90433071 306.39135244 -105.81553909 304.90501521 -103.625 303.4375 C-97.89320222 299.47932613 -92.74033636 295.21895211 -87.65625 290.44140625 C-84.95935458 287.96264208 -82.17120452 285.66431969 -79.3125 283.375 C-75.08649713 279.97845615 -71.26568322 276.38730871 -67.55859375 272.43359375 C-66 271 -66 271 -64 271 C-63.6596875 270.1646875 -63.6596875 270.1646875 -63.3125 269.3125 C-61.63281165 266.3530491 -59.45866715 264.33873216 -57 262 C-56.443125 261.401875 -55.88625 260.80375 -55.3125 260.1875 C-54 259 -54 259 -52 259 C-51.7525 258.38125 -51.505 257.7625 -51.25 257.125 C-50 255 -50 255 -48 254.0625 C-45.2551735 252.60431092 -45.08634731 250.82450302 -44 248 C-43.01 247.67 -42.02 247.34 -41 247 C-40.31867549 245.33927151 -39.65257873 243.672233 -39 242 C-38.01 241.34 -37.02 240.68 -36 240 C-34.99260254 238.33779419 -33.99477045 236.66979326 -33 235 C-31.88891391 233.55171862 -30.76230452 232.11528489 -29.625 230.6875 C-26.76941397 227.08934086 -24.31991653 223.42019516 -22.04296875 219.43359375 C-21.52669922 218.72396484 -21.52669922 218.72396484 -21 218 C-20.34 218 -19.68 218 -19 218 C-18.6596875 216.7315625 -18.6596875 216.7315625 -18.3125 215.4375 C-16.99511722 211.98721176 -15.42122604 209.70327096 -13.23046875 206.79296875 C-11.35669133 204.06260736 -10.2452986 201.05664201 -9 198 C-8.525625 197.236875 -8.05125 196.47375 -7.5625 195.6875 C-4.0741164 189.6874802 -1.88418786 182.96563259 0.21875 176.37109375 C0.76135172 174.72429752 1.34816677 173.09167783 1.96875 171.47265625 C11.85443792 144.77380972 10.46561587 112.94589799 -1 87 C-3.44433231 81.87448148 -6.16074527 76.91572461 -9 72 C-9.79083984 70.62521484 -9.79083984 70.62521484 -10.59765625 69.22265625 C-12.38577751 66.38855876 -14.60249392 64.3430173 -17 62 C-18.11321547 60.73708563 -19.21668154 59.46553884 -20.3125 58.1875 C-27.04293628 50.41749023 -27.04293628 50.41749023 -35 44 C-35 43.34 -35 42.68 -35 42 C-35.556875 41.9175 -36.11375 41.835 -36.6875 41.75 C-39 41 -39 41 -41.16015625 39.25390625 C-65.35530346 20.05088019 -97.57945728 12.07503802 -128 14 C-134.77416474 14.81320095 -141.3748939 16.40789069 -148 18 C-149.8198752 18.41468425 -151.64019845 18.82740651 -153.4609375 19.23828125 C-162.26573692 21.25201199 -170.93713516 23.42243718 -179.50390625 26.30078125 C-182 27 -182 27 -186 27 C-182.77081257 19.73432827 -177.37593825 13.86842043 -170 11 C-169.505 9.515 -169.505 9.515 -169 8 C-166.76705828 6.54619971 -164.60268614 5.29029346 -162.25 4.0625 C-161.34701172 3.56073242 -161.34701172 3.56073242 -160.42578125 3.04882812 C-116.33169805 -20.35079271 -44.88266288 -20.4357052 0 0 Z " fill="#0073BD" transform="translate(1415,1120)"/>
</svg>
