<?xml version="1.0" encoding="UTF-8"?>
<svg version="1.1" xmlns="http://www.w3.org/2000/svg" width="1869" height="2051">
<path d="M0 0 C21.89838086 -0.07040837 43.79674277 -0.12314286 65.69521427 -0.15543652 C75.86545177 -0.17083656 86.0356185 -0.19179303 96.20581055 -0.22631836 C105.080984 -0.25643278 113.95610615 -0.27562471 122.83132929 -0.28226548 C127.52085286 -0.28614083 132.21022981 -0.295101 136.89970589 -0.31719017 C183.37561542 -0.52733821 227.4152725 5.0837508 265 35 C265.5455957 35.43280273 266.09119141 35.86560547 266.65332031 36.31152344 C279.16063057 46.34228368 290.10573983 57.40677998 299.69726562 70.25732422 C300.9351735 71.9132812 302.19300348 73.55233514 303.453125 75.19140625 C355.48937776 144.15675859 371.05226603 243.97317828 384.61376953 514.70019531 C374.59303198 585.97362802 351.98821107 658.10506393 318.95751953 722.13378906 C318.02863244 723.94419522 317.12082707 725.76398757 316.21484375 727.5859375 C294.78631409 769.95860594 260.94091853 805.5887801 215.34179688 820.98828125 C187.90130663 829.87169716 159.83511123 830.15699326 131.28509521 830.12025452 C128.73520657 830.12069143 126.18531798 830.12156854 123.63542962 830.12284368 C118.12607698 830.12460325 112.61673869 830.12330404 107.10738754 830.11920547 C98.91540207 830.11312832 90.72342335 830.11287355 82.53143604 830.11374746 C68.74598936 830.11505635 54.96054751 830.1117391 41.17510223 830.10573006 C27.53763556 830.09980084 13.9001709 830.09596165 0.26270294 830.09487724 C-1.01206025 830.09477413 -1.01206025 830.09477413 -2.31257624 830.09466894 C-6.62898464 830.09433058 -10.94539305 830.09402921 -15.26180145 830.09374207 C-45.78716587 830.09164501 -76.31252768 830.08491704 -106.83789062 830.07543945 C-136.48177069 830.06624622 -166.12565004 830.05916692 -195.76953125 830.05493164 C-196.68425106 830.05480011 -197.59897086 830.05466859 -198.54140945 830.05453308 C-207.7279046 830.05321449 -216.91439976 830.05193868 -226.10089493 830.05069422 C-244.81268568 830.04815841 -263.5244764 830.04533716 -282.23626709 830.04234314 C-283.09649149 830.04220585 -283.95671589 830.04206856 -284.84300769 830.04192711 C-342.22867295 830.03273578 -399.6143365 830.01666242 -457 830 C-457 846.5 -457 863 -457 880 C-322.69 880 -188.38 880 -50 880 C-50 1111.29742962 -50 1111.29742962 -106 1168 C-127.60222848 1189.36742165 -154.78164631 1204.95288933 -182 1218 C-182.77988281 1218.37737305 -183.55976562 1218.75474609 -184.36328125 1219.14355469 C-258.02656079 1254.55413119 -345.39765696 1271.35093812 -437.4375 1275.5625 C-439.20963867 1275.62727539 -439.20963867 1275.62727539 -441.01757812 1275.69335938 C-523.52202686 1278.51058445 -606.96248957 1264.05405875 -809.78955078 1166.3359375 C-818.3877614 1158.19979653 -826.06439511 1149.59218691 -833 1140 C-833.4223291 1139.41669922 -833.8446582 1138.83339844 -834.27978516 1138.23242188 C-859.67209194 1102.68514338 -867.19527726 1064.06691441 -867.12698364 1021.08143616 C-867.12813968 1019.46252023 -867.12973041 1017.84360456 -867.13171089 1016.22468942 C-867.13583806 1011.83261518 -867.13384385 1007.440563 -867.13072467 1003.04848874 C-867.12844349 998.28970456 -867.13196361 993.53092395 -867.13470459 988.7721405 C-867.13913248 979.47170953 -867.1381991 970.17128667 -867.13529195 960.8708554 C-867.13302603 953.30613455 -867.13273053 945.74141596 -867.13381577 938.17669487 C-867.133969 937.09667782 -867.13412223 936.01666077 -867.13428011 934.90391592 C-867.13459986 932.70930843 -867.13492407 930.51470094 -867.1352527 928.32009345 C-867.13809879 907.77965479 -867.13483421 887.2392206 -867.12945233 866.69878267 C-867.12498572 849.10753582 -867.12576074 831.51629556 -867.13037109 813.92504883 C-867.13573334 793.45554271 -867.13782352 772.98604051 -867.13475883 752.51653379 C-867.13444031 750.33006283 -867.13412594 748.14359186 -867.13381577 745.9571209 C-867.13366149 744.88157298 -867.13350721 743.80602506 -867.13334826 742.69788479 C-867.13248801 735.1504216 -867.13393538 727.60296092 -867.13629532 720.05549812 C-867.1391119 710.84590574 -867.13831608 701.63632188 -867.13301457 692.42673046 C-867.13040243 687.73575454 -867.1293299 683.04479277 -867.13266373 678.35381699 C-867.16328673 631.2623701 -867.16328673 631.2623701 -864.3125 615.1875 C-864.13734863 614.18525391 -863.96219727 613.18300781 -863.78173828 612.15039062 C-857.87443536 579.76961903 -845.09702772 549.16659985 -825 523 C-824.33484375 522.1234375 -823.6696875 521.246875 -822.984375 520.34375 C-788.68488333 476.28424037 -740.30185494 448.34193591 -685.03724575 440.72964513 C-676.51908606 439.72953636 -667.98195817 439.85601536 -659.42016602 439.86196899 C-657.63165188 439.85954805 -655.8431383 439.85668489 -654.05462551 439.85341966 C-649.15632594 439.84569659 -644.2580404 439.84404885 -639.35973549 439.84336853 C-634.06965335 439.84152325 -628.77957931 439.83391292 -623.48950195 439.82688904 C-614.3236603 439.81537728 -605.15782047 439.80712537 -595.99197388 439.80076981 C-581.48348793 439.79041996 -566.9750247 439.76984856 -552.46655273 439.74765015 C-547.49641426 439.74017066 -542.52627569 439.73275682 -537.55613708 439.72536278 C-535.69297898 439.72258693 -535.69297898 439.72258693 -533.79218131 439.719755 C-519.6596335 439.69883707 -505.52708318 439.68000642 -491.39453125 439.66210938 C-490.1030983 439.66047119 -488.81166534 439.65883301 -487.48109806 439.65714519 C-466.58655569 439.63090047 -445.69201156 439.6122341 -424.79745972 439.59551747 C-403.3109412 439.5780507 -381.82445702 439.54915499 -360.33796597 439.5106281 C-347.10619253 439.48732345 -333.87447512 439.47324215 -320.642681 439.47130047 C-311.55705213 439.46917884 -302.47147877 439.45614805 -293.38587487 439.43482114 C-288.15736396 439.42288443 -282.92896317 439.41557831 -277.70043945 439.42153358 C-211.44086522 439.48685427 -151.63902061 425.32828461 -99 383 C-98.20070068 382.35949707 -98.20070068 382.35949707 -97.38525391 381.70605469 C-81.83739157 369.12304612 -66.98819851 354.86864839 -55.21679688 338.65673828 C-53.9724368 336.96247114 -52.68736032 335.30678264 -51.390625 333.65234375 C-24.15787427 298.435277 -7.53606969 254.99165586 -2 211 C-1.91269654 210.3671364 -1.82539309 209.7342728 -1.73544407 209.08223152 C-0.62732626 199.8986479 -0.82308261 190.64829563 -0.79467773 181.41357422 C-0.78508664 179.4318268 -0.77507586 177.45008137 -0.76467896 175.46833801 C-0.73775719 170.11167582 -0.7166791 164.75500494 -0.69667697 159.39831305 C-0.67473846 153.79157795 -0.64738841 148.18486926 -0.62062073 142.57815552 C-0.57079982 131.97142083 -0.52582185 121.36467139 -0.48259836 110.75790799 C-0.43313513 98.67808192 -0.37825082 86.59828236 -0.32291877 74.51848197 C-0.20926157 49.67901274 -0.10238741 24.83951806 0 0 Z M-286 1011 C-299.8653008 1027.76833151 -306.06904351 1048.09352114 -304.78125 1069.6640625 C-302.23303964 1091.37285465 -292.0158584 1110.49196144 -274.9375 1124.125 C-263.22264386 1133.08058606 -248.78874382 1139.07570351 -234 1140 C-233.21625 1140.05285156 -232.4325 1140.10570312 -231.625 1140.16015625 C-212.27718504 1140.82235825 -192.96327783 1133.70514289 -178.25 1121.1875 C-162.73228632 1106.59412666 -153.29712894 1087.30997539 -152 1066 C-151.81424106 1042.78013241 -159.91562312 1022.44885244 -176.11328125 1005.83203125 C-191.26748298 991.50895576 -210.85113113 984.35371039 -231.58203125 984.75 C-253.026852 986.31853546 -271.29799839 995.39427715 -286 1011 Z " fill="#FFDE57" transform="translate(1303,436)"/>
<path d="M0 0 C3.27680959 0.00543902 6.55361196 0.00780714 9.83042526 0.00987244 C40.93912066 0.04042192 71.9198702 0.39153596 102.93153 3.08677673 C105.66147804 3.32302944 108.39215895 3.54847959 111.12318039 3.7719574 C179.91375479 9.45764279 253.16529542 16.04452771 312.60169601 54.31785583 C313.26572433 54.74534119 313.92975266 55.17282654 314.61390305 55.61326599 C332.8328602 67.48219319 350.67664892 81.52857586 364.60169601 98.31785583 C365.40736008 99.22406677 366.21302414 100.13027771 367.04310226 101.06394958 C398.19483199 136.2924509 415.18790059 181.92440383 414.98264694 228.79220581 C414.98611538 230.55579305 414.9908878 232.31937811 414.99682868 234.08295876 C415.00920577 238.86576158 415.00322982 243.64838191 414.99387002 248.43118489 C414.98702455 253.61398102 414.99758778 258.79674784 415.00580978 263.97953796 C415.01909145 274.10790075 415.01629424 284.23619653 415.00757186 294.36456185 C415.00077332 302.60284967 414.99988794 310.84111882 415.00314331 319.07940865 C415.00360301 320.25571492 415.00406271 321.43202119 415.00453634 322.6439731 C415.0054956 325.03426107 415.00646824 327.42454903 415.00745411 329.81483699 C415.0159918 352.18519616 415.00619957 374.55551834 414.99005301 396.92587144 C414.97665307 416.08332551 414.97897843 435.24072502 414.9928093 454.3981781 C415.00889685 476.69157195 415.01516614 498.98493345 415.0059725 521.27833229 C415.00501695 523.65971728 415.00407383 526.04110227 415.00314331 528.42248726 C415.00268048 529.59390763 415.00221766 530.76532801 415.00174081 531.97224597 C414.9991603 540.19156222 415.0035016 548.41085778 415.01058197 556.63017082 C415.01903261 566.65983722 415.01664244 576.68943327 415.00073974 586.71909171 C414.99290446 591.8275688 414.98968354 596.93592899 414.99968719 602.04440498 C415.07024944 641.31510995 415.07024944 641.31510995 411.60169601 658.31785583 C411.36477224 659.51579993 411.12784847 660.71374403 410.88374519 661.94798946 C410.30173595 664.76302262 409.63672746 667.53585713 408.91419601 670.31785583 C408.53182785 671.80720642 408.53182785 671.80720642 408.14173508 673.3266449 C396.81616349 715.85504573 371.46758969 755.30017109 336.60169601 782.31785583 C336.0594841 782.74179626 335.51727219 783.16573669 334.95862961 783.6025238 C303.65812806 807.91971732 263.12169164 825.38781509 222.97612095 825.45372772 C221.88524364 825.45754165 221.88524364 825.45754165 220.77232841 825.46143264 C218.34636276 825.4687257 215.92044833 825.46902722 213.4944725 825.46934509 C211.73299428 825.47319787 209.97151696 825.47748585 208.21004075 825.48217058 C203.37738388 825.49378395 198.54473643 825.4992885 193.71206844 825.5038054 C188.49634603 825.50976512 183.28063609 825.52143078 178.06492233 825.53244019 C169.02617663 825.55078034 159.98743062 825.56563045 150.94867516 825.57821655 C137.8573106 825.59653553 124.76596376 825.62120167 111.67461326 825.64759046 C90.40413814 825.69038327 69.13365808 825.72949137 47.86317062 825.76560974 C45.95375881 825.76885395 45.95375881 825.76885395 44.00577303 825.77216369 C34.97524751 825.78748413 25.94472177 825.80267719 16.91419601 825.81785583 C6.62114571 825.83516807 -3.67190446 825.85255911 -13.96495438 825.87010193 C-15.86612315 825.87334023 -15.86612315 825.87334023 -17.80569937 825.87664396 C-38.98136331 825.91283106 -60.15701854 825.95279578 -81.33267051 825.99540472 C-94.38005349 826.02147457 -107.42743392 826.04415458 -120.47483025 826.0623883 C-129.42913417 826.07511671 -138.3834278 826.09126527 -147.33772107 826.11003745 C-152.49468206 826.12072654 -157.65163324 826.12987268 -162.80860329 826.1347332 C-213.44257231 826.18504732 -260.0382795 829.80123647 -306.39830399 852.31785583 C-307.11937332 852.66541931 -307.84044266 853.01298279 -308.58336258 853.37107849 C-330.29666895 863.96870103 -350.12636141 878.3170556 -367.71471024 894.82176208 C-370.00115372 896.94845406 -372.32817483 898.98858144 -374.71080399 901.00535583 C-377.88364546 903.76942632 -380.65667858 906.70659515 -383.37096024 909.91941833 C-384.91919114 911.75104411 -386.48731326 913.55078533 -388.08189774 915.34129333 C-428.10916879 960.61717345 -450.6536778 1018.91639663 -450.71715164 1079.22801208 C-450.72647139 1081.27961106 -450.73664303 1083.33120632 -450.74759293 1085.38279724 C-450.77467649 1090.90232704 -450.78997746 1096.42183164 -450.80302095 1101.94141006 C-450.81874715 1107.72829804 -450.84550666 1113.51513524 -450.87105179 1119.30198669 C-450.91767267 1130.2378853 -450.95449711 1141.17379364 -450.98772466 1152.10974026 C-451.02606459 1164.56939795 -451.07544332 1177.02900445 -451.12570882 1189.48861885 C-451.22878018 1215.09832647 -451.31812055 1240.70806704 -451.39830399 1266.31785583 C-469.97580968 1266.34132138 -488.55331232 1266.35890159 -507.13082981 1266.36966801 C-515.75864854 1266.37480216 -524.386458 1266.38178927 -533.01427078 1266.39329529 C-540.54312862 1266.40333087 -548.07197974 1266.40973016 -555.60084409 1266.41194433 C-559.57924589 1266.41323652 -563.5576285 1266.4162261 -567.53602409 1266.42358589 C-610.65446898 1266.50016307 -610.65446898 1266.50016307 -627.77330399 1263.63035583 C-628.82219803 1263.45665466 -629.87109207 1263.28295349 -630.95177078 1263.10398865 C-684.37745785 1253.78869925 -728.12934418 1223.01422274 -759.39830399 1179.31785583 C-809.00448833 1108.20509252 -825.78474527 1011.71729673 -834.99254227 927.03904724 C-835.26364345 924.55281126 -835.5485432 922.06804217 -835.84703445 919.58494568 C-841.17578965 874.36796265 -841.34881246 825.54412903 -835.65153885 780.35832214 C-835.38155252 778.18287917 -835.12838057 776.00592605 -834.87828445 773.82810974 C-825.05148244 688.69029403 -809.81184935 591.36192795 -740.39830399 511.31785583 C-739.86414871 510.7617865 -739.32999344 510.20571716 -738.77965164 509.63279724 C-731.71998692 502.32137627 -724.48338542 495.50563816 -716.39830399 489.31785583 C-715.5596077 488.67251892 -715.5596077 488.67251892 -714.70396805 488.0141449 C-705.65171487 481.08604891 -696.33459303 474.90044364 -686.39830399 469.31785583 C-685.69254227 468.91711853 -684.98678055 468.51638123 -684.25963211 468.10350037 C-642.84497559 444.78271423 -596.3746606 435.76282317 -549.21467972 435.95709229 C-546.79573024 435.95577992 -544.37678118 435.95314561 -541.95783436 435.94932479 C-536.75313551 435.94406729 -531.54853063 435.94789525 -526.34384727 435.96023941 C-518.60500544 435.97854216 -510.86622762 435.97922876 -503.12736808 435.97661344 C-490.10172268 435.97269525 -477.07612335 435.98260581 -464.05049133 436.00066566 C-451.17157512 436.01847594 -438.29267813 436.02997539 -425.41374969 436.03322411 C-424.61006945 436.03343032 -423.8063892 436.03363654 -422.978355 436.03384901 C-418.89612185 436.03486415 -414.81388868 436.03576825 -410.73165549 436.03662964 C-381.89005655 436.04291464 -353.04848261 436.06308115 -324.20689774 436.09153748 C-296.20462043 436.11913362 -268.20234999 436.14036341 -240.2000618 436.15306091 C-239.33543499 436.15345549 -238.47080819 436.15385007 -237.57998057 436.15425661 C-228.89627538 436.1582125 -220.21257014 436.16203989 -211.52886485 436.16577318 C-193.84245072 436.17337984 -176.15603704 436.1818436 -158.46962357 436.19082642 C-157.65660404 436.19123829 -156.84358451 436.19165016 -156.00592803 436.19207451 C-101.80337567 436.2196313 -47.6008396 436.26785106 6.60169601 436.31785583 C6.60169601 419.48785583 6.60169601 402.65785583 6.60169601 385.31785583 C-128.36830399 385.31785583 -263.33830399 385.31785583 -402.39830399 385.31785583 C-402.39830399 200.17446358 -402.39830399 200.17446358 -400.08580399 181.31785583 C-399.95391678 180.21014832 -399.82202957 179.1024408 -399.68614578 177.96116638 C-395.7486398 146.30800599 -386.67108078 114.84108717 -365.39830399 90.31785583 C-364.94374832 89.78257263 -364.48919266 89.24728943 -364.02086258 88.69578552 C-335.1996203 54.94082115 -291.07906261 38.57888923 -249.39830399 27.31785583 C-248.31404129 27.02314392 -247.22977859 26.72843201 -246.11265945 26.42478943 C-200.44798469 14.22534142 -152.89739762 8.22476513 -105.89830399 4.06785583 C-105.03778427 3.99063293 -104.17726456 3.91341003 -103.29066849 3.83384705 C-96.66500956 3.24876823 -90.03478637 2.76249766 -83.39830399 2.31785583 C-82.10853653 2.23065277 -80.81876907 2.14344971 -79.48991776 2.05360413 C-52.99563312 0.30100004 -26.54625484 -0.04584972 0 0 Z M-273.39830399 145.31785583 C-274.15627274 145.98301208 -274.91424149 146.64816833 -275.69517899 147.33348083 C-291.12619568 161.70028949 -297.70479051 180.70995547 -299.68346024 201.28269958 C-300.39535173 221.86564942 -292.09040934 240.90973357 -278.86705399 256.25535583 C-265.75395295 270.13981575 -248.06981868 279.71341745 -228.70689774 280.65379333 C-206.94466036 281.06155827 -187.72975832 275.217261 -171.39830399 260.31785583 C-170.48564774 259.54248474 -170.48564774 259.54248474 -169.55455399 258.75144958 C-160.52735473 250.56542117 -154.32815188 238.69129798 -150.39830399 227.31785583 C-150.07990555 226.46965271 -149.76150711 225.62144958 -149.43346024 224.74754333 C-143.27821178 205.28901597 -147.12719584 183.70389083 -156.19102859 165.96458435 C-159.29675988 160.19333226 -162.97767826 155.16336788 -167.39830399 150.31785583 C-167.91521805 149.70941833 -168.43213211 149.10098083 -168.96471024 148.47410583 C-176.80644636 139.82657727 -188.56055865 133.37009199 -199.39830399 129.31785583 C-200.23619461 128.9994574 -201.07408524 128.68105896 -201.93736649 128.35301208 C-226.73493118 120.5993067 -254.51257056 128.23076369 -273.39830399 145.31785583 Z " fill="#3C79AA" transform="translate(838.3983039855957,-0.3178558349609375)"/>
<path d="M0 0 C98.15919083 -0.93165341 197.10565815 4.51299232 392.41040039 44.02606201 C394.06217285 44.55949219 394.06217285 44.55949219 395.74731445 45.10369873 C460.5605418 66.25062468 460.5605418 66.25062468 475.41040039 93.02606201 C478.71742243 100.50977278 479.17517075 107.34331305 476.41040039 115.02606201 C464.41104542 140.32306283 431.89595691 152.67511525 407.27368164 161.65106201 C395.13022039 165.92606496 382.81179424 169.58390044 370.41040039 173.02606201 C368.76225342 173.48359863 368.76225342 173.48359863 367.08081055 173.95037842 C287.73792877 195.59153824 204.20726936 203.29954923 122.34790039 207.71356201 C121.22121948 207.77450043 120.09453857 207.83543884 118.93371582 207.89822388 C111.09434594 208.31597769 103.25362813 208.68859407 95.41040039 209.02606201 C93.69945694 209.10024857 93.69945694 209.10024857 91.95394897 209.17593384 C67.59038362 210.19190104 43.22892551 210.22766246 18.84790039 210.21356201 C17.81205685 210.21329514 16.7762133 210.21302826 15.70898056 210.2127533 C-17.43065386 210.2020535 -50.4954658 209.93118573 -83.58959961 208.02606201 C-84.74308899 207.96054138 -85.89657837 207.89502075 -87.08502197 207.82751465 C-187.24543052 202.08930686 -297.60539654 194.79788813 -428.58959961 132.02606201 C-429.4287793 131.38797607 -430.26795898 130.74989014 -431.13256836 130.09246826 C-437.76381139 124.51547691 -442.7787828 116.25921621 -443.90209961 107.62371826 C-444.38455434 97.83893332 -439.94269106 90.18019543 -433.58959961 83.02606201 C-374.80427128 21.32390441 -240.16590614 15.66629285 -30.63110352 0.46575928 C-20.42153314 0.2347673 -10.211543 0.10277008 0 0 Z " fill="#9C9C9C" transform="translate(832.589599609375,1838.9739379882813)"/>
<path d="M0 0 C98.15919083 -0.93165341 197.10565815 4.51299232 392.41040039 44.02606201 C394.06217285 44.55949219 394.06217285 44.55949219 395.74731445 45.10369873 C460.5605418 66.25062468 460.5605418 66.25062468 475.41040039 93.02606201 C478.71742243 100.50977278 479.17517075 107.34331305 476.41040039 115.02606201 C464.41104542 140.32306283 431.89595691 152.67511525 407.27368164 161.65106201 C395.13022039 165.92606496 382.81179424 169.58390044 370.41040039 173.02606201 C368.76225342 173.48359863 368.76225342 173.48359863 367.08081055 173.95037842 C287.73792877 195.59153824 204.20726936 203.29954923 122.34790039 207.71356201 C121.22121948 207.77450043 120.09453857 207.83543884 118.93371582 207.89822388 C111.09434594 208.31597769 103.25362813 208.68859407 95.41040039 209.02606201 C93.69945694 209.10024857 93.69945694 209.10024857 91.95394897 209.17593384 C67.59038362 210.19190104 43.22892551 210.22766246 18.84790039 210.21356201 C17.81205685 210.21329514 16.7762133 210.21302826 15.70898056 210.2127533 C-17.43065386 210.2020535 -50.4954658 209.93118573 -83.58959961 208.02606201 C-84.74308899 207.96054138 -85.89657837 207.89502075 -87.08502197 207.82751465 C-187.24543052 202.08930686 -297.60539654 194.79788813 -428.58959961 132.02606201 C-429.4287793 131.38797607 -430.26795898 130.74989014 -431.13256836 130.09246826 C-437.76381139 124.51547691 -442.7787828 116.25921621 -443.90209961 107.62371826 C-444.38455434 97.83893332 -439.94269106 90.18019543 -433.58959961 83.02606201 C-374.80427128 21.32390441 -240.16590614 15.66629285 -30.63110352 0.46575928 C-20.42153314 0.2347673 -10.211543 0.10277008 0 0 Z M-72.90209961 20.52606201 C-73.73805664 20.57375732 -74.57401367 20.62145264 -75.43530273 20.67059326 C-77.48680746 20.7878221 -79.53821379 20.90677062 -81.58959961 21.02606201 C-80.92959961 21.68606201 -80.26959961 22.34606201 -79.58959961 23.02606201 C-82.19823283 23.89560642 -84.06446745 24.23072411 -86.76171875 24.4274292 C-88.03205963 24.52355751 -88.03205963 24.52355751 -89.32806396 24.62162781 C-90.25097229 24.68805984 -91.17388062 24.75449188 -92.12475586 24.82293701 C-94.12975813 24.97518704 -96.13472066 25.12796107 -98.13964844 25.28118896 C-99.20003326 25.36132233 -100.26041809 25.44145569 -101.35293579 25.52401733 C-163.16145619 30.24597401 -226.50720802 37.39363802 -285.58959961 57.02606201 C-286.57959961 57.35461182 -287.56959961 57.68316162 -288.58959961 58.02166748 C-300.75476152 62.12140708 -312.32377674 66.86466232 -323.58959961 73.02606201 C-324.53061523 73.53910889 -325.47163086 74.05215576 -326.44116211 74.58074951 C-337.18728002 80.73564677 -345.89403597 87.62705373 -350.96459961 99.15106201 C-352.55246683 106.45525121 -351.37497596 111.72397767 -347.58959961 118.02606201 C-341.48584999 126.54448181 -333.56774379 131.9602729 -324.58959961 137.02606201 C-323.99324707 137.36347412 -323.39689453 137.70088623 -322.7824707 138.04852295 C-247.95522006 179.51807251 -144.13784098 183.87328227 -56.08004761 187.91891479 C-54.31993612 187.99464055 -52.55995608 188.07345127 -50.80007935 188.15444946 C-28.46114231 189.16752708 -6.13429551 189.22765354 16.22290039 189.21356201 C17.17300365 189.21329514 18.12310692 189.21302826 19.10200119 189.2127533 C48.58402507 189.20237106 77.98143259 188.961729 107.41040039 187.02606201 C108.43282837 186.96054138 109.45525635 186.89502075 110.50866699 186.82751465 C254.72186103 181.66875274 254.72186103 181.66875274 379.34008789 121.45965576 C384.33400968 115.58944204 386.18527101 110.60409281 385.85180664 102.82684326 C384.2448297 92.63036124 377.45283888 85.7380418 369.44946289 79.84637451 C302.73770454 33.90337112 199.34980327 29.46929808 -29.95874023 21.67010498 C-40.17290116 21.97273992 -50.37097665 22.08460282 -60.58959961 22.02606201 C-59.92959961 21.36606201 -59.26959961 20.70606201 -58.58959961 20.02606201 C-63.37425523 19.94810428 -68.12814225 20.24723577 -72.90209961 20.52606201 Z " fill="#888888" transform="translate(832.589599609375,1838.9739379882813)"/>
<path d="M0 0 C-0.66 0.66 -1.32 1.32 -2 2 C9.02007733 2.06313221 20.01518302 1.90202229 31.0300293 1.57220459 C124.44017214 -1.15845171 219.36794261 2.81679968 434 65 C440.12085795 71.05117076 444.04713885 76.58118139 444.4375 85.4375 C444.06829521 95.12912564 439.19205721 100.78987205 432.23828125 107.265625 C426.72819068 112.09945407 420.44773879 115.58128136 414 119 C413.10958008 119.48799072 413.10958008 119.48799072 412.20117188 119.98583984 C342.31246869 157.82623814 247.22441517 162.0191747 170.0625 166.75 C169.09602539 166.80925659 168.12955078 166.86851318 167.13378906 166.92956543 C160.42462256 167.33291002 153.71378327 167.68315945 147 168 C145.99229553 168.0483902 144.98459106 168.0967804 143.9463501 168.14663696 C121.71974861 169.17624175 99.49543214 169.20153494 77.25 169.1875 C76.30090004 169.18723312 75.35180008 169.18696625 74.37393951 169.18669128 C44.54070872 169.17617505 14.78065263 168.94808261 -15 167 C-16.01727173 166.93447937 -17.03454346 166.86895874 -18.0826416 166.80145264 C-237.17837628 152.58003397 -237.17837628 152.58003397 -287 101 C-290.84147064 96.46580515 -292.69565992 91.63761399 -293.375 85.75 C-292.55633517 77.56335172 -289.13941115 70.47663381 -283 65 C-220.21725966 14.32297422 -110.72189156 9.82460189 -26.63476562 4.25708008 C-23.89401616 4.08834175 -23.89401616 4.08834175 -21 3 C-21.66 2.34 -22.32 1.68 -23 1 C-20.10425766 0.83160792 -17.20842326 0.66522615 -14.3125 0.5 C-13.49587891 0.45230469 -12.67925781 0.40460938 -11.83789062 0.35546875 C-7.88646942 0.13150156 -3.95981243 -0.06451833 0 0 Z M-194.2578125 71.078125 C-199.05439409 76.36942128 -200.8041813 81.07144911 -200.5078125 88.29296875 C-199.63602888 92.94024602 -197.25891464 95.69866998 -194 99 C-193.47792969 99.57105469 -192.95585938 100.14210938 -192.41796875 100.73046875 C-148.34093938 144.21051804 -42.77931985 144.00216746 15 147 C16.20227234 147.06515305 16.20227234 147.06515305 17.42883301 147.13162231 C36.40670705 148.1364508 55.37670254 148.20164742 74.375 148.1875 C75.58153984 148.18709969 75.58153984 148.18709969 76.81245422 148.18669128 C102.58872775 148.17597323 128.28221217 147.89661434 154 146 C154.87696533 145.93683594 155.75393066 145.87367188 156.6574707 145.80859375 C259.27005596 141.5732786 259.27005596 141.5732786 346.96875 97.82421875 C351.01176875 92.60834315 352.55356938 88.75354644 352 82 C348.28676458 70.61423598 338.13620276 64.27243996 328 59 C280.07116074 35.47457162 222.37792687 30.1008796 169.8125 25.75 C168.81046539 25.66700653 167.80843079 25.58401306 166.77603149 25.49850464 C148.1590391 23.97505081 129.54688605 22.94146524 110.875 22.4375 C109.72996506 22.40623016 109.72996506 22.40623016 108.5617981 22.37432861 C25.25281766 20.1496093 -63.60487587 22.15423521 -194.2578125 71.078125 Z " fill="#939393" transform="translate(774,1859)"/>
<path d="M0 0 C98.15919083 -0.93165341 197.10565815 4.51299232 392.41040039 44.02606201 C394.06217285 44.55949219 394.06217285 44.55949219 395.74731445 45.10369873 C460.5605418 66.25062468 460.5605418 66.25062468 475.41040039 93.02606201 C478.71742243 100.50977278 479.17517075 107.34331305 476.41040039 115.02606201 C464.41104542 140.32306283 431.89595691 152.67511525 407.27368164 161.65106201 C395.13022039 165.92606496 382.81179424 169.58390044 370.41040039 173.02606201 C368.76225342 173.48359863 368.76225342 173.48359863 367.08081055 173.95037842 C287.73792877 195.59153824 204.20726936 203.29954923 122.34790039 207.71356201 C121.22121948 207.77450043 120.09453857 207.83543884 118.93371582 207.89822388 C111.09434594 208.31597769 103.25362813 208.68859407 95.41040039 209.02606201 C93.69945694 209.10024857 93.69945694 209.10024857 91.95394897 209.17593384 C67.59038362 210.19190104 43.22892551 210.22766246 18.84790039 210.21356201 C17.81205685 210.21329514 16.7762133 210.21302826 15.70898056 210.2127533 C-17.43065386 210.2020535 -50.4954658 209.93118573 -83.58959961 208.02606201 C-84.74308899 207.96054138 -85.89657837 207.89502075 -87.08502197 207.82751465 C-187.24543052 202.08930686 -297.60539654 194.79788813 -428.58959961 132.02606201 C-429.4287793 131.38797607 -430.26795898 130.74989014 -431.13256836 130.09246826 C-437.76381139 124.51547691 -442.7787828 116.25921621 -443.90209961 107.62371826 C-444.38455434 97.83893332 -439.94269106 90.18019543 -433.58959961 83.02606201 C-374.80427128 21.32390441 -240.16590614 15.66629285 -30.63110352 0.46575928 C-20.42153314 0.2347673 -10.211543 0.10277008 0 0 Z M-338.58959961 51.02606201 C-339.64276367 51.38135986 -340.69592773 51.73665771 -341.78100586 52.10272217 C-366.76400526 60.6505663 -394.42662751 71.6236572 -408.52709961 95.27606201 C-410.42276474 101.96664483 -411.03632472 109.70420994 -408.15209961 116.21356201 C-387.12573676 151.08655406 -334.11741827 162.43905276 -297.21002197 171.61785889 C-229.53854074 188.18611356 -159.8235104 195.52731653 -90.40209961 199.71356201 C-88.88774826 199.80496964 -88.88774826 199.80496964 -87.34280396 199.89822388 C-62.98281074 201.3486007 -38.6614215 202.18625013 -14.25756836 202.19403076 C-11.80178307 202.19726326 -9.34599795 202.20062861 -6.89021301 202.20411682 C-1.77332109 202.21004773 3.34355411 202.21196329 8.46044922 202.21136475 C13.60143592 202.21128399 18.74233255 202.21815674 23.88330078 202.23187256 C56.11642625 202.31644118 88.22796213 201.9029283 120.41040039 200.02606201 C121.10695362 199.98605701 121.80350685 199.94605202 122.52116776 199.90483475 C130.94879486 199.41942005 139.36789254 198.84951181 147.78540039 198.21356201 C148.91543488 198.1295816 150.04546936 198.0456012 151.20974731 197.95907593 C288.63787706 188.27270834 288.63787706 188.27270834 435.41040039 126.02606201 C441.20796607 119.14018137 445.00311195 112.61678845 444.71118164 103.44403076 C443.22773246 91.51864059 434.90695949 83.56290629 425.84790039 76.46356201 C357.34117676 27.56688802 250.49383594 21.12432505 117.59790039 10.33856201 C116.52486664 10.27771423 115.45183289 10.21686646 114.34628296 10.1541748 C82.30708328 8.3628364 50.30483035 7.81715546 18.22290039 7.83856201 C16.86972088 7.83896233 16.86972088 7.83896233 15.48920441 7.83937073 C-82.83870088 7.87572326 -182.59816532 13.52506417 -338.58959961 51.02606201 Z " fill="#848484" transform="translate(832.589599609375,1838.9739379882813)"/>
<path d="M0 0 C-0.66 0.66 -1.32 1.32 -2 2 C9.02007733 2.06313221 20.01518302 1.90202229 31.0300293 1.57220459 C124.44017214 -1.15845171 219.36794261 2.81679968 434 65 C440.12085795 71.05117076 444.04713885 76.58118139 444.4375 85.4375 C444.06829521 95.12912564 439.19205721 100.78987205 432.23828125 107.265625 C426.72819068 112.09945407 420.44773879 115.58128136 414 119 C413.10958008 119.48799072 413.10958008 119.48799072 412.20117188 119.98583984 C342.31246869 157.82623814 247.22441517 162.0191747 170.0625 166.75 C169.09602539 166.80925659 168.12955078 166.86851318 167.13378906 166.92956543 C160.42462256 167.33291002 153.71378327 167.68315945 147 168 C145.99229553 168.0483902 144.98459106 168.0967804 143.9463501 168.14663696 C121.71974861 169.17624175 99.49543214 169.20153494 77.25 169.1875 C76.30090004 169.18723312 75.35180008 169.18696625 74.37393951 169.18669128 C44.54070872 169.17617505 14.78065263 168.94808261 -15 167 C-16.01727173 166.93447937 -17.03454346 166.86895874 -18.0826416 166.80145264 C-237.17837628 152.58003397 -237.17837628 152.58003397 -287 101 C-290.84147064 96.46580515 -292.69565992 91.63761399 -293.375 85.75 C-292.55633517 77.56335172 -289.13941115 70.47663381 -283 65 C-220.21725966 14.32297422 -110.72189156 9.82460189 -26.63476562 4.25708008 C-23.89401616 4.08834175 -23.89401616 4.08834175 -21 3 C-21.66 2.34 -22.32 1.68 -23 1 C-20.10425766 0.83160792 -17.20842326 0.66522615 -14.3125 0.5 C-13.49587891 0.45230469 -12.67925781 0.40460938 -11.83789062 0.35546875 C-7.88646942 0.13150156 -3.95981243 -0.06451833 0 0 Z M-9 13 C-9.96504456 13.06552063 -10.93008911 13.13104126 -11.92437744 13.19854736 C-74.02479734 17.41488392 -137.75591067 23.83133646 -197 44 C-197.78729492 44.26522461 -198.57458984 44.53044922 -199.38574219 44.80371094 C-217.55684115 51.00591915 -237.52708012 59.55456533 -248.9375 75.75 C-251.3488099 80.85630332 -252.01640718 85.86780644 -250.234375 91.359375 C-244.78769521 103.71029679 -233.4992657 110.06057948 -222 116 C-220.9171875 116.57363281 -219.834375 117.14726563 -218.71875 117.73828125 C-133.76174103 160.11935797 -17.55926978 159.49213915 347.296875 127.04858398 C366.51027567 120.49428286 390.1017499 112.01579704 401 93.625 C402.69308032 87.48758383 403.09729297 81.72824644 400.4375 75.8125 C386.77876729 52.34388709 349.81027852 43.33465883 325.58496094 36.79101562 C271.82564122 22.60917402 216.33248616 16.78621324 161 13 C160.11465576 12.93834656 159.22931152 12.87669312 158.31713867 12.81317139 C102.98734155 9.00244531 46.32122722 9.12967622 -9 13 Z " fill="#949494" transform="translate(774,1859)"/>
<path d="M0 0 C1.28014481 -0.00701431 2.56028961 -0.01402863 3.87922668 -0.02125549 C7.98850003 -0.040639 12.09771679 -0.04568996 16.20703125 -0.046875 C17.2587854 -0.04753778 17.2587854 -0.04753778 18.33178711 -0.04821396 C40.67574052 -0.05559207 62.83252349 0.32321463 85.01953125 3.203125 C85.69318726 3.29033813 86.36684326 3.37755127 87.06091309 3.46740723 C140.9951805 10.53404331 140.9951805 10.53404331 159.01953125 26.203125 C160.97741194 28.78396773 161.02061024 30.23171829 161.14453125 33.515625 C159.22914114 39.79384815 154.86156265 42.54837601 149.3359375 45.765625 C83.05660527 78.86219662 -31.81929159 73.23296046 -101.33374023 50.99902344 C-109.96702194 48.04958886 -119.95476747 44.25369978 -124.98046875 36.203125 C-125.54448311 32.88170712 -125.62192775 30.52412048 -124.125 27.44140625 C-112.38721281 11.36966687 -82.17186317 8.24368897 -64.3125 5.30078125 C-43.04778274 2.00015084 -21.52026226 0.07973749 0 0 Z " fill="#ABABAB" transform="translate(831.98046875,1911.796875)"/>
<path d="M0 0 C0.9706842 0.05091797 1.94136841 0.10183594 2.94146729 0.15429688 C96.0798752 5.06214253 198.81321715 12.82426895 324.375 76.375 C329.62659155 82.56209774 332.8371703 89.55665402 332.375 97.7890625 C330.27647435 110.16161999 320.78721193 119.02702681 311.05126953 126.02587891 C304.67806015 130.41575677 297.97148623 133.90031216 290.94140625 137.10888672 C289.14643958 137.93278365 287.36913077 138.79486172 285.59375 139.66015625 C209.85957451 175.09771845 117.5265461 182.08227009 35.375 188.1875 C33.80841141 188.30585709 33.80841141 188.30585709 32.21017456 188.42660522 C24.14447441 189.02808076 16.07480579 189.53790004 8 190 C7.25030819 190.04340263 6.50061638 190.08680527 5.72820663 190.13152313 C-25.32593855 191.91397712 -56.32758748 192.31781655 -87.4284668 192.26074219 C-93.6807295 192.24935503 -99.93282172 192.25613479 -106.18507862 192.26761913 C-137.17343362 192.31589469 -168.05951931 191.7658851 -199 190 C-200.05320623 189.94009258 -200.05320623 189.94009258 -201.12768936 189.87897491 C-209.4047218 189.40289304 -217.6717871 188.82890988 -225.9375 188.1875 C-227.03936646 188.10385193 -228.14123291 188.02020386 -229.27648926 187.934021 C-314.41065301 181.44037923 -411.11949356 173.86358434 -514.53515625 114.76171875 C-520.45636976 107.64047263 -522.43239418 101.67691848 -522.33984375 92.421875 C-521.35174484 82.47274116 -514.61485793 74.81060883 -507.17578125 68.66796875 C-490.43012432 55.79162199 -470.85467357 47.73049977 -451 41 C-449.9181543 40.63165039 -448.83630859 40.26330078 -447.72167969 39.88378906 C-356.14229993 9.14404383 -255.01343341 1.83697214 0 0 Z M-190 5 C-192.1995424 5.13023989 -194.39908675 5.26044697 -196.59863281 5.390625 C-337.58136773 13.29629971 -337.58136773 13.29629971 -493 76 C-498.20862639 82.76491718 -501.53009406 88.75504479 -501.40234375 97.37109375 C-499.82123422 107.7020327 -492.81784357 115.60977405 -484.7644043 121.68701172 C-411.91657023 173.16445232 -299.97603247 177.71606359 -180 186 C-179.14156494 186.0400415 -178.28312988 186.08008301 -177.39868164 186.12133789 C-159.35555036 186.94610415 -141.30868543 187.3554669 -123.25 187.625 C-122.52579487 187.63590164 -121.80158974 187.64680328 -121.055439 187.65803528 C-24.96044671 189.08482371 72.20207083 184.30474825 299.6875 117.26953125 C303.126775 113.89416169 305.68835746 110.2125054 308 106 C308.37125 105.37996094 308.7425 104.75992187 309.125 104.12109375 C311.37399948 98.66927806 310.8184651 91.80503086 309.1953125 86.2421875 C299.4831554 64.87544189 271.50463542 54.2358861 251.08862305 46.50561523 C236.31697917 41.09833654 221.23473011 36.88170368 206 33 C204.22810303 32.54778076 204.22810303 32.54778076 202.42041016 32.08642578 C137.35340391 15.71472744 69.59129287 8.88604269 2.73724365 5.15429688 C0.04925802 5.00277665 -2.63819984 4.84374176 -5.32568359 4.68359375 C-66.54937251 1.10900124 -128.79064438 1.25182725 -190 5 Z " fill="#939393" transform="translate(945,1849)"/>
<path d="M0 0 C94.43941892 -1.1168245 191.70429359 3.36902391 361.21636963 61.82617188 C365.60468389 66.49209239 368.95190292 72.05169442 369.55230713 78.51367188 C369.26746072 85.31833606 366.57450315 89.86025782 362.32183838 95.03320312 C361.82812744 95.6390625 361.3344165 96.24492188 360.82574463 96.86914062 C311.31179834 151.4456101 182.43552857 151.36115464 114.88433838 155.72070312 C113.46698395 155.8122467 113.46698395 155.8122467 112.02099609 155.90563965 C105.45665569 156.32302961 98.89061497 156.69307887 92.32183838 157.03320312 C91.3931897 157.08266083 90.46454102 157.13211853 89.50775146 157.18307495 C69.26517443 158.22439275 49.01628648 158.22069521 28.75250244 158.21850586 C24.91423762 158.21842531 21.07609397 158.2252707 17.237854 158.23901367 C-19.34600744 158.36768372 -55.83260205 157.21219877 -92.30316162 154.22070312 C-93.34538879 154.13705505 -94.38761597 154.05340698 -95.46142578 153.96722412 C-279.04666305 139.14245868 -279.04666305 139.14245868 -319.67816162 94.03320312 C-324.08014043 87.75056671 -325.97515062 81.66403161 -324.67816162 74.03320312 C-321.70939613 63.11312865 -311.05997738 55.68051723 -301.73773193 50.28515625 C-228.86054423 9.79386235 -131.96300277 5.91370139 0 0 Z M-62.67816162 7.03320312 C-63.64320618 7.09872375 -64.60825073 7.16424438 -65.60253906 7.23175049 C-127.70295896 11.44808704 -191.43407229 17.86453959 -250.67816162 38.03320312 C-251.46545654 38.29842773 -252.25275146 38.56365234 -253.06390381 38.83691406 C-271.23500277 45.03912227 -291.20524174 53.58776846 -302.61566162 69.78320312 C-305.02697152 74.88950644 -305.6945688 79.90100957 -303.91253662 85.39257812 C-298.46585683 97.74349991 -287.17742732 104.09378261 -275.67816162 110.03320312 C-274.59534912 110.60683594 -273.51253662 111.18046875 -272.39691162 111.77148438 C-187.43990265 154.1525611 -71.2374314 153.52534227 293.61871338 121.08178711 C312.83211405 114.52748599 336.42358828 106.04900016 347.32183838 87.65820312 C349.0149187 81.52078695 349.41913135 75.76144956 346.75933838 69.84570312 C333.10060567 46.37709022 296.1321169 37.36786196 271.90679932 30.82421875 C218.1474796 16.64237715 162.65432454 10.81941637 107.32183838 7.03320312 C106.43649414 6.97154968 105.5511499 6.90989624 104.63897705 6.84637451 C49.30917993 3.03564844 -7.3569344 3.16287934 -62.67816162 7.03320312 Z " fill="#8A8A8A" transform="translate(827.6781616210938,1864.966796875)"/>
<path d="M0 0 C3.24219543 3.19587835 4.42333953 5.46557449 5.265625 9.9296875 C4.22118505 16.09188322 0.40668307 19.43851628 -4.3828125 23.2109375 C-36.42794762 44.34948278 -84.03455317 45.94519029 -121.359375 48.6171875 C-122.65246582 48.71362549 -123.94555664 48.81006348 -125.27783203 48.90942383 C-139.99386216 49.91773628 -154.74115219 49.81746752 -169.484375 49.8046875 C-170.5178582 49.80428719 -170.5178582 49.80428719 -171.57221985 49.80387878 C-192.22737738 49.79383389 -212.78664656 49.67694865 -233.359375 47.6171875 C-234.02833801 47.55166687 -234.69730103 47.48614624 -235.38653564 47.41864014 C-326.14422099 38.49692871 -326.14422099 38.49692871 -344.359375 16.6171875 C-346.13135881 13.71113404 -346.34690386 12.17838873 -346.421875 8.8046875 C-343.8199799 0.99900221 -337.32606536 -3.58272892 -330.359375 -7.3828125 C-327.47294423 -8.70751901 -324.53836445 -9.81929759 -321.546875 -10.8828125 C-320.71921631 -11.17978027 -319.89155762 -11.47674805 -319.03881836 -11.78271484 C-245.1511298 -37.71583103 -155.09737061 -34.85531979 0 0 Z M-237.359375 -19.3828125 C-238.54547363 -19.23295898 -239.73157227 -19.08310547 -240.95361328 -18.92871094 C-279.16561019 -14.38349404 -279.16561019 -14.38349404 -311.921875 4.0546875 C-313.86872911 7.52516656 -313.91963743 9.69535052 -313.359375 13.6171875 C-302.67472316 29.33713503 -276.3733782 32.53309308 -259.12939453 35.92822266 C-196.47598234 47.37803027 -88.81695933 56.58891039 -33.359375 19.6171875 C-29.80554759 16.84520212 -28.62377661 15.47260448 -27.296875 11.1796875 C-27.37847571 6.52844712 -28.21326786 5.05595577 -31.359375 1.6171875 C-34.53131772 -0.724435 -37.85610824 -2.58211376 -41.359375 -4.3828125 C-42.17664063 -4.80433594 -42.99390625 -5.22585938 -43.8359375 -5.66015625 C-62.16900156 -14.12365043 -83.50079906 -16.96221967 -103.359375 -19.3828125 C-104.56190918 -19.53379395 -105.76444336 -19.68477539 -107.00341797 -19.84033203 C-149.51467541 -24.91801991 -194.90075397 -24.89328794 -237.359375 -19.3828125 Z " fill="#A4A4A4" transform="translate(1020.359375,1934.3828125)"/>
<path d="M0 0 C1.60648407 0.09828094 1.60648407 0.09828094 3.24542236 0.19854736 C93.07899761 5.72534651 194.72018353 12.20642524 303 72 C309.32389068 80.1270367 311.0691481 86.65689306 310 97 C308.7927684 100.39126886 307.11924596 103.10527578 305 106 C304.319375 106.99 303.63875 107.98 302.9375 109 C249.33659069 169.05287062 111.79613861 171.87479327 8 180 C7.19391296 180.04985046 6.38782593 180.09970093 5.55731201 180.15106201 C-47.82806191 183.43105295 -101.55492816 183.74598147 -155 182 C-155.93450989 181.96970703 -156.86901978 181.93941406 -157.83184814 181.90820312 C-242.16246593 179.10977299 -328.37963834 171.3726828 -410 149 C-411.05123047 148.71302246 -412.10246094 148.42604492 -413.18554688 148.13037109 C-439.28789774 140.88675754 -470.19703179 131.37324738 -490 112 C-491.02287109 111.00033203 -491.02287109 111.00033203 -492.06640625 109.98046875 C-497.3372764 104.40148928 -501.11497266 98.25878795 -501.4375 90.4375 C-500.90655958 81.13799809 -496.3567134 74.60317725 -490 68 C-450.8371076 33.82456712 -388.78554314 24.53010279 -339 16 C-338.24666382 15.8700061 -337.49332764 15.74001221 -336.71716309 15.6060791 C-289.26491167 7.44419995 -241.27105851 3.03451979 -193.23254395 0.19140625 C-191.15551937 0.06842092 -189.0786035 -0.05642198 -187.00183105 -0.18359375 C-125.04629342 -3.97308422 -61.94753878 -3.86375321 0 0 Z M-195 3 C-196.29048248 3.07570221 -197.58096497 3.15140442 -198.91055298 3.22940063 C-206.11322437 3.66373539 -213.30717575 4.17626802 -220.5 4.75 C-221.55377838 4.83270142 -222.60755676 4.91540283 -223.69326782 5.00061035 C-344.8310042 14.13695996 -344.8310042 14.13695996 -458 55 C-459.06863281 55.57234375 -460.13726562 56.1446875 -461.23828125 56.734375 C-473.30638421 63.42013471 -484.41175457 71.48216482 -489 85 C-489.92485928 92.19454488 -489.23654201 98.06198963 -485 104 C-469.00781107 124.58465052 -442.03028364 134.24628708 -418 142 C-416.95956543 142.3398291 -415.91913086 142.6796582 -414.84716797 143.02978516 C-328.71868954 170.82645878 -234.11872556 177.03249867 265 127 C265.65871094 126.67322266 266.31742188 126.34644531 266.99609375 126.00976562 C279.59316148 119.65971001 292.75052739 109.97702266 298.4375 96.625 C299.72575371 88.32292053 298.36328879 82.31242902 293.70703125 75.30078125 C278.42864387 54.70817217 249.41613148 45.41589513 226 38 C225.07445312 37.70528809 224.14890625 37.41057617 223.1953125 37.10693359 C134.69732194 9.29637809 36.85086146 1.2039969 -65.17578125 0.83203125 C-67.52329018 0.82879847 -69.87079893 0.8254331 -72.2183075 0.82194519 C-77.1099799 0.8160144 -82.00163481 0.81409869 -86.89331055 0.81469727 C-91.80545781 0.81477799 -96.71751075 0.80791048 -101.62963867 0.79418945 C-132.8116348 0.70853114 -163.86909165 1.1493447 -195 3 Z " fill="#7F7F7F" transform="translate(945,1854)"/>
<path d="M0 0 C2.46958941 -0.0032335 4.93917864 -0.0065989 7.4087677 -0.01008606 C12.55417319 -0.01601514 17.69956205 -0.01793276 22.8449707 -0.01733398 C28.00711617 -0.0172533 33.16917179 -0.02411492 38.33129883 -0.0378418 C80.28777408 -0.14757166 122.10182202 0.75763791 163.95703125 3.79296875 C165.9062075 3.92899581 167.85542682 4.06440704 169.8046875 4.19921875 C174.35598456 4.51522347 178.90666157 4.83889129 183.45703125 5.16796875 C174.04430722 11.4431181 152.78111723 6.3903777 141.89453125 5.73046875 C132.75032543 5.17748988 123.60542544 4.64724168 114.45703125 4.16796875 C113.44121979 4.11424103 112.42540833 4.06051331 111.3788147 4.00515747 C87.76163606 2.81664424 64.10657561 2.98062908 40.46655273 2.98266602 C35.70609687 2.98274663 30.94573858 2.97589434 26.18530273 2.9621582 C-15.79363695 2.84311043 -57.67176368 3.82755292 -99.54296875 6.98046875 C-100.68413147 7.06444916 -101.82529419 7.14842957 -103.0010376 7.23495483 C-158.93981982 11.369128 -214.55341038 17.96460696 -269.54296875 29.16796875 C-270.27541809 29.31707703 -271.00786743 29.4661853 -271.76251221 29.61981201 C-348.10975176 44.21678701 -348.10975176 44.21678701 -408.54296875 88.16796875 C-412.9804177 95.067741 -413.62457669 102.11490602 -412.54296875 110.16796875 C-408.83035708 123.5138307 -395.83949817 132.5177406 -384.4140625 139.11816406 C-305.13088899 183.60115546 -202.24591257 191.8470755 4.45703125 204.16796875 C5.94550568 204.1844043 5.94550568 204.1844043 7.46405029 204.20117188 C105.60676677 205.23736087 204.44496702 200.4566792 468.10546875 124.6171875 C474.11134937 118.36189324 476.97757273 112.04246372 477.83203125 103.35546875 C477.57206036 94.95515949 473.08901004 87.17703468 467.45703125 81.16796875 C404.14909528 22.57078663 278.53322677 16.93921056 192.45703125 9.16796875 C192.45703125 8.50796875 192.45703125 7.84796875 192.45703125 7.16796875 C191.46703125 6.83796875 190.47703125 6.50796875 189.45703125 6.16796875 C202.19612154 6.78409001 214.84244412 7.90536645 227.51953125 9.29296875 C228.50147461 9.39990051 229.48341797 9.50683228 230.49511719 9.61700439 C278.29040024 14.86495251 325.82879189 22.3338223 372.45703125 34.16796875 C373.72369629 34.48878418 374.99036133 34.80959961 376.29541016 35.14013672 C460.49113163 56.76285428 460.49113163 56.76285428 482.45703125 87.16796875 C486.69859451 94.37992341 488.50824366 100.75826949 487.45703125 109.16796875 C482.09926222 126.4952218 466.02843382 136.51054534 450.89746094 144.5234375 C369.66422625 186.50717226 268.00257 194.90664931 104.45703125 206.16796875 C103.58504089 206.20664063 102.71305054 206.2453125 101.81463623 206.28515625 C2.5118259 210.65422706 -98.31126592 206.4961825 -270.54296875 181.16796875 C-271.29284058 181.01606079 -272.0427124 180.86415283 -272.81530762 180.7076416 C-391.82435722 156.47791108 -391.82435722 156.47791108 -417.98046875 119.66796875 C-422.12502007 112.8742014 -424.33567415 106.71974053 -423.1796875 98.71484375 C-419.45734915 83.82549036 -407.32713221 74.50795083 -394.84375 66.84375 C-390.82084101 64.46704549 -386.70522399 62.28927258 -382.54296875 60.16796875 C-381.85541504 59.81412109 -381.16786133 59.46027344 -380.45947266 59.09570312 C-297.99960917 17.45661213 -192.47660458 10.26336537 0 0 Z " fill="#9A9A9A" transform="translate(817.54296875,1840.83203125)"/>
<path d="M0 0 C0.9706842 0.05091797 1.94136841 0.10183594 2.94146729 0.15429688 C96.0798752 5.06214253 198.81321715 12.82426895 324.375 76.375 C329.62659155 82.56209774 332.8371703 89.55665402 332.375 97.7890625 C330.27647435 110.16161999 320.78721193 119.02702681 311.05126953 126.02587891 C304.67806015 130.41575677 297.97148623 133.90031216 290.94140625 137.10888672 C289.14643958 137.93278365 287.36913077 138.79486172 285.59375 139.66015625 C209.85957451 175.09771845 117.5265461 182.08227009 35.375 188.1875 C33.80841141 188.30585709 33.80841141 188.30585709 32.21017456 188.42660522 C24.14447441 189.02808076 16.07480579 189.53790004 8 190 C7.25030819 190.04340263 6.50061638 190.08680527 5.72820663 190.13152313 C-25.32593855 191.91397712 -56.32758748 192.31781655 -87.4284668 192.26074219 C-93.6807295 192.24935503 -99.93282172 192.25613479 -106.18507862 192.26761913 C-137.17343362 192.31589469 -168.05951931 191.7658851 -199 190 C-200.05320623 189.94009258 -200.05320623 189.94009258 -201.12768936 189.87897491 C-209.4047218 189.40289304 -217.6717871 188.82890988 -225.9375 188.1875 C-227.03936646 188.10385193 -228.14123291 188.02020386 -229.27648926 187.934021 C-314.41065301 181.44037923 -411.11949356 173.86358434 -514.53515625 114.76171875 C-520.45636976 107.64047263 -522.43239418 101.67691848 -522.33984375 92.421875 C-521.35174484 82.47274116 -514.61485793 74.81060883 -507.17578125 68.66796875 C-490.43012432 55.79162199 -470.85467357 47.73049977 -451 41 C-449.9181543 40.63165039 -448.83630859 40.26330078 -447.72167969 39.88378906 C-356.14229993 9.14404383 -255.01343341 1.83697214 0 0 Z M-198 2 C-198.6927578 2.03993828 -199.38551559 2.07987656 -200.09926605 2.12102509 C-208.38535375 2.60210961 -216.66216734 3.17414143 -224.9375 3.8125 C-226.04347534 3.89614807 -227.14945068 3.97979614 -228.28894043 4.065979 C-359.88139962 13.91326161 -359.88139962 13.91326161 -483 58 C-484.61068359 58.86044922 -484.61068359 58.86044922 -486.25390625 59.73828125 C-496.39463618 65.3720201 -505.75983397 72.05406985 -512 82 C-512.598125 82.94875 -513.19625 83.8975 -513.8125 84.875 C-516.67115759 92.39778313 -516.56099746 98.82463199 -513.4765625 106.2734375 C-497.93346104 134.97472008 -454.94455139 146.20341177 -425.99121094 154.8359375 C-348.34818135 177.6496267 -265.50011767 185.11671182 -185 189.1875 C-184.27904144 189.22442963 -183.55808289 189.26135925 -182.8152771 189.29940796 C-154.00186271 190.74076583 -125.15792342 191.2077304 -96.3125 191.1875 C-95.5471418 191.18738041 -94.7817836 191.18726082 -93.99323273 191.1871376 C-0.06194907 191.16872323 94.86259977 185.4616305 305 125 C306.01449219 124.25234375 307.02898438 123.5046875 308.07421875 122.734375 C315.85923968 116.74819285 323.92271417 108.95009671 325.30859375 98.72265625 C325.75275107 89.55686418 322.72332748 82.77827027 317.125 75.59375 C260.67807486 14.87054265 123.55114359 11.26188381 39.10546875 4.09765625 C38.35670975 4.03678329 37.60795074 3.97591034 36.83650208 3.91319275 C-4.57041126 0.66745961 -45.96049705 -0.33696556 -87.48339844 -0.26074219 C-93.74468722 -0.24934878 -100.00580588 -0.25613836 -106.26708889 -0.26761913 C-136.89707978 -0.31526139 -167.41931472 0.22083031 -198 2 Z " fill="#999999" transform="translate(945,1849)"/>
<path d="M0 0 C2.39822913 -0.00698119 4.79645809 -0.01402213 7.19468689 -0.02111816 C14.81078322 -0.04037877 22.42685072 -0.04529349 30.04296875 -0.046875 C31.33944839 -0.04746414 32.63592804 -0.04805328 33.97169495 -0.04866028 C72.09752679 -0.06089186 110.09103162 0.13527838 148.12786865 2.9720459 C151.2887147 3.20746311 154.45015411 3.43306019 157.61181641 3.65722656 C244.25614948 9.87590787 344.19744137 17.14350279 439.23046875 71.203125 C440.26300781 72.04617188 440.26300781 72.04617188 441.31640625 72.90625 C447.18920973 78.18920859 451.29438541 85.29537376 452.77734375 93.0703125 C453.20916964 101.53889795 449.75901511 108.19409631 444.66796875 114.765625 C392.73750865 170.90310971 272.68891942 176.28333374 128.91796875 188.890625 C127.82714996 188.95147278 126.73633118 189.01232056 125.61245728 189.07501221 C94.97556731 190.7597876 64.34678261 191.41210724 33.66796875 191.390625 C32.9020768 191.39050541 32.13618484 191.39038582 31.34708405 191.3902626 C-63.01711548 191.37177175 -158.35750073 185.69794674 -379.0234375 116.0859375 C-384.70580906 110.20473526 -388.36064685 103.88491441 -388.95703125 95.59765625 C-388.47234576 85.82821443 -382.75738543 77.70655255 -375.76953125 71.203125 C-308.06373378 16.7422197 -191.04422724 11.46130642 0 0 Z M-250.76953125 26.203125 C-251.43412354 26.34278687 -252.09871582 26.48244873 -252.78344727 26.62634277 C-322.52891215 40.17996923 -322.52891215 40.17996923 -377.76953125 81.203125 C-381.03209143 87.21053371 -383.19576579 93.37046652 -381.76953125 100.203125 C-375.2814902 118.46757263 -358.49595917 128.22608688 -341.89453125 136.265625 C-268.54455618 170.6616415 -180.4247818 178.79987302 -100.75390625 185.10546875 C-99.99088196 185.16634171 -99.22785767 185.22721466 -98.44171143 185.28993225 C-57.42109363 188.43482524 -16.3873525 189.5450487 24.74365234 189.46386719 C30.56432293 189.45247385 36.38481048 189.45926873 42.20547485 189.47074413 C81.28659751 189.5360476 120.2590614 188.40949337 159.23046875 185.390625 C160.33394653 185.30697693 161.43742432 185.22332886 162.57434082 185.137146 C298.61832658 175.7689161 298.61832658 175.7689161 438.23046875 114.203125 C444.05242912 105.96148911 446.27195616 99.33282997 445.23046875 89.203125 C441.04748296 74.66938356 426.82660544 66.09694894 414.36328125 59.16455078 C338.06762518 17.83114167 239.07151672 11.34893255 121.16796875 3.015625 C120.43669769 2.97869537 119.70542664 2.94176575 118.95199585 2.90371704 C113.37960829 2.62903026 107.80584413 2.40746697 102.23046875 2.203125 C100.51724426 2.13957321 100.51724426 2.13957321 98.76940918 2.07473755 C76.87946892 1.2838936 55.00888865 0.99921632 33.10546875 1.015625 C32.2992231 1.01589188 31.49297745 1.01615875 30.66230011 1.01643372 C-63.42326654 1.0552669 -158.50944743 6.79585966 -250.76953125 26.203125 Z " fill="#808080" transform="translate(817.76953125,1848.796875)"/>
<path d="M0 0 C3.66697865 0.00565103 7.33395265 0.00846488 11.0009346 0.0110817 C47.45630169 0.0488758 83.74453867 0.50620183 120.10661697 3.31805801 C121.8430748 3.44887772 121.8430748 3.44887772 123.61461258 3.58234024 C344.41721682 20.25191326 344.41721682 20.25191326 392.04411697 72.44305801 C397.14674168 78.63824471 399.25298917 84.27978476 399.10661697 92.31805801 C398.04230988 100.53842992 392.79947189 105.69096214 387.10661697 111.31805801 C386.5110701 111.93551895 385.91552322 112.55297989 385.30192947 113.18915176 C327.00913605 169.279773 191.90586792 170.93063954 -32.74012375 179.25165176 C-125.54395717 177.4030849 -222.6966877 170.92687559 -311.89338303 143.31805801 C-313.54346359 142.80855606 -313.54346359 142.80855606 -315.22687912 142.28876114 C-327.6581345 138.37862253 -339.61936365 133.78755636 -351.39338303 128.19305801 C-352.90593674 127.47521133 -352.90593674 127.47521133 -354.44904709 126.7428627 C-367.28071312 120.43241883 -381.44200398 111.58089307 -387.89338303 98.31805801 C-390.08439782 91.74501363 -389.718978 85.23954762 -386.70588303 79.00555801 C-370.58270851 50.67865471 -327.78866947 39.89833625 -298.84846115 31.85126114 C-242.33616414 16.4388165 -183.52991832 9.22588949 -125.28400803 4.41180801 C-124.5565538 4.35118179 -123.82909958 4.29055557 -123.07960129 4.22809219 C-82.09439684 0.94114135 -41.10439508 -0.06439542 0 0 Z M-375.51838303 71.75555801 C-380.26391428 77.54204451 -383.37948559 84.34468699 -382.95588303 91.94305801 C-380.99313149 102.65244016 -373.34957046 110.23132318 -364.93635178 116.53290176 C-299.44519107 160.73749303 -201.72189872 166.84091087 -118.89338303 173.50555801 C-117.91188278 173.5843721 -116.93038254 173.66318619 -115.91913986 173.74438858 C-77.26818387 176.8092829 -38.61433649 177.69941347 0.14494324 177.63611603 C3.66794506 177.63045955 7.19094203 177.62764906 10.7139473 177.62503433 C46.59787521 177.58636013 82.3131394 177.06230953 118.10661697 174.31805801 C119.84947983 174.18723831 119.84947983 174.18723831 121.62755203 174.05377579 C263.44606312 167.5964024 263.44606312 167.5964024 384.95817947 107.27899551 C389.84802289 101.04022977 392.82181355 94.97651717 392.50505447 86.92352676 C391.04804847 77.39585028 384.48458265 70.08459466 377.10661697 64.31805801 C307.99939559 14.592182 195.63788446 10.15248079 91.04411697 3.13055801 C90.35418655 3.09353775 89.66425613 3.05651749 88.95341873 3.0183754 C83.67274237 2.74202564 78.39061076 2.52039087 73.10661697 2.31805801 C71.45576599 2.25450623 71.45576599 2.25450623 69.77156448 2.18967056 C48.48516528 1.39415747 27.21936424 1.11417832 5.91911697 1.13055801 C5.13381859 1.13082489 4.3485202 1.13109177 3.5394249 1.13136673 C-91.43321144 1.17161739 -188.48572161 6.70155853 -375.51838303 71.75555801 Z " fill="#8E8E8E" transform="translate(844.893383026123,1854.681941986084)"/>
<path d="M0 0 C98.15919083 -0.93165341 197.10565815 4.51299232 392.41040039 44.02606201 C394.06217285 44.55949219 394.06217285 44.55949219 395.74731445 45.10369873 C460.5605418 66.25062468 460.5605418 66.25062468 475.41040039 93.02606201 C478.71742243 100.50977278 479.17517075 107.34331305 476.41040039 115.02606201 C464.41104542 140.32306283 431.89595691 152.67511525 407.27368164 161.65106201 C395.13022039 165.92606496 382.81179424 169.58390044 370.41040039 173.02606201 C368.76225342 173.48359863 368.76225342 173.48359863 367.08081055 173.95037842 C287.73792877 195.59153824 204.20726936 203.29954923 122.34790039 207.71356201 C121.22121948 207.77450043 120.09453857 207.83543884 118.93371582 207.89822388 C111.09434594 208.31597769 103.25362813 208.68859407 95.41040039 209.02606201 C93.69945694 209.10024857 93.69945694 209.10024857 91.95394897 209.17593384 C67.59038362 210.19190104 43.22892551 210.22766246 18.84790039 210.21356201 C17.81205685 210.21329514 16.7762133 210.21302826 15.70898056 210.2127533 C-17.43065386 210.2020535 -50.4954658 209.93118573 -83.58959961 208.02606201 C-84.74308899 207.96054138 -85.89657837 207.89502075 -87.08502197 207.82751465 C-187.24543052 202.08930686 -297.60539654 194.79788813 -428.58959961 132.02606201 C-429.4287793 131.38797607 -430.26795898 130.74989014 -431.13256836 130.09246826 C-437.76381139 124.51547691 -442.7787828 116.25921621 -443.90209961 107.62371826 C-444.38455434 97.83893332 -439.94269106 90.18019543 -433.58959961 83.02606201 C-374.80427128 21.32390441 -240.16590614 15.66629285 -30.63110352 0.46575928 C-20.42153314 0.2347673 -10.211543 0.10277008 0 0 Z M-106.58959961 5.02606201 C-107.85165222 5.11327515 -109.11370483 5.20048828 -110.41400146 5.29034424 C-204.27820191 11.7977946 -309.47057126 19.57882188 -395.58959961 61.02606201 C-396.28762695 61.36057373 -396.9856543 61.69508545 -397.70483398 62.03973389 C-406.76226009 66.45232609 -414.72113564 71.72151635 -422.58959961 78.02606201 C-423.19288086 78.46434326 -423.79616211 78.90262451 -424.41772461 79.35418701 C-431.95723542 84.9889793 -437.16347903 93.77113366 -438.58959961 103.02606201 C-439.10124834 112.34766235 -434.4803925 120.09071907 -428.65209961 127.02606201 C-368.38839851 190.35737351 -227.96394279 195.15920405 -54.58959961 208.02606201 C-53.28321533 208.08406982 -53.28321533 208.08406982 -51.95043945 208.14324951 C41.09003836 212.23877493 135.31562142 208.52125235 343.41040039 178.02606201 C344.09130737 177.86942078 344.77221436 177.71277954 345.47375488 177.5513916 C373.50872125 171.06154804 402.62448342 163.06803459 428.41040039 150.02606201 C429.13163086 149.6694751 429.85286133 149.31288818 430.59594727 148.94549561 C446.81799351 140.88686927 463.65218625 131.23318426 471.41040039 114.04168701 C473.56892581 107.53238379 473.35027566 101.68554148 470.78540039 95.33856201 C463.90721623 81.89266728 452.40760197 73.21592671 439.41040039 66.02606201 C438.54946777 65.54918945 438.54946777 65.54918945 437.67114258 65.06268311 C356.26979155 20.76614449 249.15087463 12.87610709 128.28540039 4.33856201 C127.23812775 4.2776236 126.1908551 4.21668518 125.11184692 4.15390015 C99.87260653 2.70575722 74.64831331 1.86910483 49.36743164 1.82293701 C46.96123742 1.81590971 44.55504337 1.80882294 42.14884949 1.80168152 C34.50686367 1.78230536 26.86490831 1.77724726 19.22290039 1.77606201 C17.9188324 1.77562016 16.6147644 1.7751783 15.2711792 1.77472305 C-25.44020573 1.7674948 -65.96765684 2.15219378 -106.58959961 5.02606201 Z " fill="#000000" transform="translate(832.589599609375,1838.9739379882813)"/>
<path d="M0 0 C4.76045586 0.00008061 9.52081415 -0.00677167 14.28125 -0.02050781 C53.50096804 -0.13185243 92.59019045 0.79411027 131.72452164 3.44778633 C141.01688532 4.07734486 150.24351946 4.36407011 159.55712891 4.19946289 C165.74054119 4.09564264 165.74054119 4.09564264 169.00952148 5.18530273 C169.00952148 5.84530273 169.00952148 6.50530273 169.00952148 7.18530273 C169.56502686 7.16064941 170.12053223 7.13599609 170.69287109 7.1105957 C180.72762569 6.88026765 190.62107002 8.17208069 200.57202148 9.31030273 C201.55693573 9.42167572 202.54184998 9.53304871 203.55661011 9.64779663 C384.75788198 30.21399267 384.75788198 30.21399267 439.00952148 74.18530273 C439.5831543 74.59780273 440.15678711 75.01030273 440.74780273 75.43530273 C447.53773955 80.48827897 453.14299047 88.89521453 455.00952148 97.18530273 C455.78938601 105.3738803 453.84032115 112.04934211 448.94702148 118.68530273 C395.04205447 183.2367809 256.52398728 188.08313085 171.94702148 196.37280273 C108.47838064 202.05894686 44.71223972 203.88870011 -18.99047852 203.18530273 C-19.91318542 203.17563477 -20.83589233 203.1659668 -21.78656006 203.15600586 C-120.59457656 202.0695319 -221.54637661 194.33725748 -429.05297852 121.08764648 C-435.42952935 114.19300089 -437.71934445 108.0354999 -437.45922852 98.59545898 C-435.89065555 87.18409067 -428.39981623 79.31948425 -419.75219727 72.39233398 C-352.01332273 22.64126143 -245.52134216 15.19233011 -98.24047852 2.43530273 C-96.69656433 2.3465538 -96.69656433 2.3465538 -95.12145996 2.25601196 C-89.0875727 1.91520885 -83.05279241 1.60628848 -77.01577759 1.32632446 C-75.03463218 1.23397506 -73.05364197 1.13821838 -71.07284546 1.03866577 C-47.3981635 -0.13028191 -23.69710491 -0.00207329 0 0 Z M-88.28497314 3.02709961 C-91.07364757 3.190166 -93.86273501 3.34312324 -96.65209961 3.49389648 C-188.41756674 8.49854978 -288.21644081 16.28860117 -424.55297852 81.74780273 C-430.56983591 89.03672301 -432.79612312 95.46552317 -432.42016602 104.98608398 C-430.84132382 116.74128179 -421.80438731 124.78335722 -412.81860352 131.68139648 C-382.1881843 153.94916857 -342.31423742 163.69983446 -305.99047852 172.18530273 C-305.00096191 172.41866333 -305.00096191 172.41866333 -303.99145508 172.65673828 C-215.24823818 193.55640893 -122.35406045 199.9496515 -31.42797852 201.74780273 C-30.38955811 201.76864929 -29.3511377 201.78949585 -28.28125 201.81097412 C-10.51504396 202.1624882 7.23983777 202.39084112 25.00952148 202.18530273 C25.8201001 202.17670227 26.63067871 202.16810181 27.46582031 202.15924072 C129.53265669 201.05149019 233.88903606 194.40502213 440.23608398 123.05249023 C446.41710321 116.34542682 450.48162786 108.74258948 450.27514648 99.45092773 C449.16362228 89.97028007 443.57287802 83.67157287 437.00952148 77.18530273 C436.42686523 76.58073242 435.84420898 75.97616211 435.24389648 75.35327148 C376.07885887 18.45356189 245.55532906 14.11897406 109.00952148 3.18530273 C108.00959167 3.12364929 107.00966187 3.06199585 105.97943115 2.99847412 C41.63471571 -0.95396427 -23.93772831 -0.78424059 -88.28497314 3.02709961 Z " fill="#555555" transform="translate(840.990478515625,1842.814697265625)"/>
<path d="M0 0 C11.98071833 0.60355975 23.80243009 1.96748858 35.6875 3.5625 C36.65554565 3.69182922 37.62359131 3.82115845 38.62097168 3.95440674 C71.77481599 8.42072423 104.67354423 14.33693661 137 23 C138.19351074 23.31936523 139.38702148 23.63873047 140.61669922 23.96777344 C207.6234945 42.19776746 207.6234945 42.19776746 224.6015625 67.375 C227.84850618 73.17959205 229.26534076 78.39553847 228 85 C222.64685077 100.51705812 209.07290171 109.17555851 195.0625 116.1875 C192.38748557 117.48593751 189.69683306 118.7476521 187 120 C185.95070313 120.50015625 184.90140625 121.0003125 183.8203125 121.515625 C99.45946988 159.80408724 -5.0040043 163.96430606 -130.30078125 168.16796875 C-132.5586092 168.17120247 -134.81643696 168.17456788 -137.07426453 168.17805481 C-141.77762332 168.18398278 -146.48096392 168.18590163 -151.18432617 168.18530273 C-155.90246461 168.18522204 -160.62050477 168.19208505 -165.33862305 168.20581055 C-195.95076243 168.29337696 -226.43772734 167.80506031 -257 166 C-258.29338287 165.92429779 -259.58676575 165.84859558 -260.91934204 165.77059937 C-268.11907725 165.33632173 -275.31007648 164.82314943 -282.5 164.25 C-283.55178436 164.16763092 -284.60356873 164.08526184 -285.68722534 164.00039673 C-492.52166783 147.65228929 -492.52166783 147.65228929 -540.19140625 97.18359375 C-544.85183193 91.55685951 -547.45452115 85.39194921 -547 78 C-544.69432904 66.26516719 -536.95248191 58.63368443 -527.375 52.0625 C-481.3586504 22.22765958 -421.26860489 13.61005968 -368.0625 5.5625 C-367.19371216 5.43058258 -366.32492432 5.29866516 -365.42980957 5.16275024 C-362.96576515 4.79132358 -360.50077668 4.42720774 -358.03515625 4.06640625 C-357.30871414 3.95742004 -356.58227203 3.84843384 -355.83381653 3.73614502 C-351.85560548 3.16585405 -348.01781692 2.89279015 -344 3 C-344.33 3.66 -344.66 4.32 -345 5 C-348.05891745 5.59917139 -351.06225231 6.0724304 -354.1484375 6.48046875 C-356.1063943 6.75629494 -358.06431939 7.03234627 -360.0222168 7.30859375 C-361.05825043 7.45151855 -362.09428406 7.59444336 -363.16171265 7.74169922 C-457.17416816 18.69126111 -457.17416816 18.69126111 -535 66 C-539.54255091 72.1253661 -539.97544714 78.5584445 -539 86 C-535.14684418 99.22384837 -522.28831169 106.72910726 -511.02172852 112.95263672 C-431.48790281 155.69445653 -325.88440509 160.08457882 141.53173828 133.04736328 C185.62094735 120.01259154 185.62094735 120.01259154 218.94140625 90.04296875 C221.22618625 85.63359627 221.80289036 80.88888683 221 76 C214.99192905 58.54572273 198.7611458 50.16789523 183.125 42.5 C126.62172447 16.55577444 61.15532098 8.90486747 0 2 C0 1.34 0 0.68 0 0 Z " fill="#808080" transform="translate(1009,1864)"/>
<path d="M0 0 C1.00996033 0.06552063 2.01992065 0.13104126 3.06048584 0.19854736 C221.32517647 14.43891881 221.32517647 14.43891881 266.4375 64.625 C271.88099244 71.51803434 272.97928785 77.29009869 272 86 C269.55493772 95.78024913 259.96129025 103.00200866 251.875 108.125 C249.59382473 109.44554114 247.3117133 110.73656223 245 112 C244.42604492 112.32178223 243.85208984 112.64356445 243.26074219 112.97509766 C182.15849824 146.90017015 100.32848428 152.60908523 31.875 158.1875 C30.92043915 158.26640472 29.9658783 158.34530945 28.98239136 158.42660522 C21.65937915 159.02391286 14.33228348 159.5309818 7 160 C6.33734634 160.04325535 5.67469269 160.0865107 4.99195862 160.13107681 C-24.77466564 162.06531131 -54.50004195 162.36382543 -84.32271957 162.31805801 C-88.05276279 162.31242025 -91.78280146 162.30959815 -95.5128479 162.30697632 C-129.72821397 162.27200459 -163.84928199 162.11439462 -197.96636963 159.25323486 C-201.16229042 158.98645267 -204.35908079 158.73257686 -207.55615234 158.47998047 C-400.33138712 143.05300326 -400.33138712 143.05300326 -444.6875 96.375 C-449.13838269 90.95197591 -451.76302238 85.30451767 -451.3984375 78.125 C-449.42493741 67.59966621 -441.45924467 59.97373592 -433.12890625 53.91015625 C-429.82782334 51.78652967 -426.45726757 49.85278481 -423 48 C-422.05713135 47.48469727 -422.05713135 47.48469727 -421.09521484 46.95898438 C-352.90440357 10.34512056 -262.63833996 5.29539478 -179 0 C-178.15028625 -0.05327454 -177.30057251 -0.10654907 -176.42510986 -0.16143799 C-117.97975629 -3.80337537 -58.42998091 -3.86269079 0 0 Z M-436.45703125 61.3515625 C-442.08006148 67.41025093 -446.18902929 73.4149199 -446 82 C-444.66432809 91.71877058 -437.27709213 98.4064175 -430.125 104.5 C-371.87607652 147.20919346 -276.63682 151.46738724 -207.125 157.1875 C-206.18751923 157.26640472 -205.25003845 157.34530945 -204.28414917 157.42660522 C-167.96729751 160.44199159 -131.60040326 161.34119692 -95.17260742 161.26074219 C-89.97496 161.24934138 -84.77751741 161.25615163 -79.5798769 161.26762009 C-43.79911126 161.33448361 -8.10406554 160.21643636 27.5625 157.25 C28.571987 157.16763092 29.581474 157.08526184 30.62155151 157.00039673 C154.56444274 150.14767426 154.56444274 150.14767426 261 96 C265.74533045 89.64240065 268.05054795 83.99652377 267 76 C262.36015624 61.53726749 249.28787648 53.78447761 236.59375 47.07275391 C161.51595971 8.54697312 63.9685491 3.95361408 -22.98937988 0.08856201 C-24.87822644 0.00536377 -26.7667658 -0.08472735 -28.65527344 -0.17529297 C-121.04906987 -4.52764262 -215.5896008 -0.44967614 -436.45703125 61.3515625 Z " fill="#898989" transform="translate(939,1864)"/>
<path d="M0 0 C1.34192917 0.00040031 1.34192917 0.00040031 2.71096802 0.00080872 C30.74764885 0.01129504 58.7064368 0.25639898 86.6875 2.1875 C87.62853577 2.25066406 88.56957153 2.31382813 89.53912354 2.37890625 C155.36410744 6.81004753 226.10364451 12.62261517 287.6875 38.1875 C288.5017041 38.52491211 289.3159082 38.86232422 290.15478516 39.20996094 C303.68732427 44.93816767 320.2028914 52.76575733 326.87109375 66.65234375 C328.63226201 72.12123468 328.56960226 77.95410442 326.25 83.25 C312.54234725 106.90522019 276.08361304 116.13978343 251.68896484 122.72717285 C164.80241549 145.66166696 72.50967046 149.92947267 -305.33886719 100.38378906 C-313.64239675 95.35072439 -322.78214859 88.05587048 -325.3125 78.1875 C-325.8988838 71.85455499 -324.5731382 67.19000138 -320.80078125 62.1796875 C-319.04204182 60.10081797 -317.21771166 58.1326532 -315.3125 56.1875 C-314.81105469 55.67316406 -314.30960938 55.15882812 -313.79296875 54.62890625 C-263.64958133 7.78609623 -152.52541142 6.77157765 -87.4375 2.5 C-86.51601166 2.43915222 -85.59452332 2.37830444 -84.64511108 2.31561279 C-78.20308714 1.89607846 -71.7594277 1.52319466 -65.3125 1.1875 C-64.36827179 1.1380423 -63.42404358 1.08858459 -62.45120239 1.03762817 C-41.64202877 -0.00764498 -20.82952928 -0.01393797 0 0 Z M-79.3125 3.1875 C-80.62495697 3.26387695 -80.62495697 3.26387695 -81.96392822 3.34179688 C-207.05062112 7.86822179 -207.05062112 7.86822179 -314.75 60.625 C-318.25131649 65.02408994 -320.49477654 69.84576344 -320.18359375 75.55078125 C-318.30872668 85.60074437 -311.25725485 92.72738355 -303.125 98.41796875 C-249.36854658 132.91138301 -172.05291174 138.19032526 -109.9375 143.4375 C-109.03831848 143.51463226 -108.13913696 143.59176453 -107.21270752 143.67123413 C-100.2509871 144.25853779 -93.28485967 144.74520697 -86.3125 145.1875 C-85.64303219 145.23024551 -84.97356438 145.27299103 -84.28380966 145.31703186 C-57.83635346 146.99086492 -31.45576265 147.50823153 -4.95874023 147.44824219 C0.10686341 147.43685652 5.17225656 147.44363915 10.23785305 147.45511913 C44.65088832 147.52120687 78.96294555 146.4410735 113.25 143.375 C114.20757202 143.29135193 115.16514404 143.20770386 116.1517334 143.121521 C224.6815701 136.68671088 224.6815701 136.68671088 316.55859375 89.08203125 C320.71734155 83.76641356 323.23628492 79.259271 322.98828125 72.2890625 C321.81276258 64.07569829 315.79941752 58.29422698 309.6875 53.1875 C240.0610599 3.21139849 122.15713109 3.39760874 -79.3125 3.1875 Z " fill="#969696" transform="translate(848.3125,1869.8125)"/>
<path d="M0 0 C185.04254799 17.73530056 185.04254799 17.73530056 227.375 63.4375 C231.24890952 68.2798869 234.15418035 73.78019463 234.4375 80.0625 C233.17032063 91.46711431 226.55021677 98.42105347 217.9375 105.5625 C173.40334485 138.14475369 107.81636059 147.71444064 54 154 C54.33 153.01 54.66 152.02 55 151 C56.07967041 150.82460693 57.15934082 150.64921387 58.27172852 150.46850586 C81.36922187 146.69871941 104.27404059 142.63330816 127 137 C128.14484863 136.71656738 129.28969727 136.43313477 130.46923828 136.14111328 C182.27087295 123.76367609 182.27087295 123.76367609 221.94140625 90.98046875 C224.81535733 85.60374108 224.63660774 79.93673734 224 74 C219.13332857 59.3999857 203.45112227 51.2360039 190.55664062 44.77587891 C154.89321366 27.83361642 115.60280428 19.98550426 77 13 C75.98534668 12.81566406 74.97069336 12.63132812 73.92529297 12.44140625 C64.20313404 10.70601074 54.49802641 9.59593257 44.65820312 8.77270508 C33.40407434 7.82261675 22.20514584 6.40310358 11 5 C11 4.34 11 3.68 11 3 C8.03 3 5.06 3 2 3 C2 2.34 2 1.68 2 1 C1.34 0.67 0.68 0.34 0 0 Z " fill="#8C8C8C" transform="translate(997,1864)"/>
<path d="M0 0 C1.0859375 1.62109375 1.0859375 1.62109375 0.9921875 3.6796875 C-0.5053576 6.88779059 -2.75505813 7.42669374 -5.94921875 8.671875 C-27.98683495 15.72739639 -63.1668534 17.07356131 -84.22802734 6.72753906 C-85.9140625 5.62109375 -85.9140625 5.62109375 -87.9140625 2.62109375 C-82.56373662 -3.84388336 -74.24471302 -4.96879792 -66.3515625 -6.06640625 C-64.99659668 -6.25529419 -64.99659668 -6.25529419 -63.61425781 -6.44799805 C-45.74525837 -8.71306088 -15.53576109 -11.19208911 0 0 Z " fill="#B4B4B4" transform="translate(892.9140625,1941.37890625)"/>
<path d="M0 0 C0 0.33 0 0.66 0 1 C-0.91362305 1.17539307 -1.82724609 1.35078613 -2.76855469 1.53149414 C-68.03989898 13.2051524 -68.03989898 13.2051524 -127 42 C-128.21042969 42.82757812 -128.21042969 42.82757812 -129.4453125 43.671875 C-136.49767951 48.74585522 -142.11241524 55.31711009 -144 64 C-144.81273038 71.17911836 -142.4458097 76.44804521 -138.4453125 82.2578125 C-99.27377753 130.50772896 3.82602772 135.23152049 61 142 C61 142.33 61 142.66 61 143 C54.42529181 143.1369384 48.20577744 142.65217179 41.703125 141.71484375 C40.72883041 141.57870163 39.75453583 141.44255951 38.75071716 141.30229187 C35.58253948 140.85580848 32.41615649 140.39808705 29.25 139.9375 C28.15998688 139.7800531 27.06997375 139.6226062 25.94692993 139.46038818 C-21.46036672 132.58260524 -71.75208625 124.61877252 -115 103 C-116.04486572 102.48252197 -116.04486572 102.48252197 -117.11083984 101.95458984 C-129.62311772 95.65089214 -141.47268391 87.82955232 -148 75 C-149.84869684 68.74381402 -149.66023325 63.80255848 -146.875 57.9375 C-132.13211914 31.25410407 -94.77843056 21.73338153 -67.4486084 13.69714355 C-17.14766052 -0.62404461 -17.14766052 -0.62404461 0 0 Z " fill="#808080" transform="translate(626,1877)"/>
<path d="M0 0 C10.86407642 0.4864349 21.27499693 2.09701154 31.9375 4.125 C32.7622583 4.27994934 33.5870166 4.43489868 34.43676758 4.59454346 C146.56568708 25.69074181 146.56568708 25.69074181 171.44140625 58.92578125 C174.78762748 64.55722673 174.84308039 70.62527988 174 77 C173.08684478 80.02162036 171.79681948 82.4146077 170 85 C169.59910156 85.58136719 169.19820312 86.16273437 168.78515625 86.76171875 C140.40301587 123.37056649 70.84506306 131.55508921 28.0625 139.0625 C27.20066101 139.21470001 26.33882202 139.36690002 25.4508667 139.52371216 C23.0011504 139.95263445 20.54996701 140.37135023 18.09765625 140.78515625 C17.37950241 140.90967163 16.66134857 141.03418701 15.9214325 141.16247559 C11.53722933 141.88206393 7.42236597 142.11215492 3 142 C3 141.67 3 141.34 3 141 C4.03777588 140.83508057 5.07555176 140.67016113 6.14477539 140.50024414 C87.28116556 129.39216493 87.28116556 129.39216493 158 92 C158.64324219 91.43667969 159.28648437 90.87335938 159.94921875 90.29296875 C165.75142865 84.90433356 169.13214897 79.66576916 169.5625 71.625 C169.24909187 64.08231089 166.08739413 57.9852892 161.0625 52.4375 C121.47881549 16.24428097 50.9737334 8.37619907 0 1 C0 0.67 0 0.34 0 0 Z " fill="#808080" transform="translate(1048,1873)"/>
<path d="M0 0 C125.68349139 -0.64325909 125.68349139 -0.64325909 171 3 C173.31883627 3.18276172 175.6376845 3.36537178 177.95654297 3.54785156 C183.97170164 4.02372456 189.98609849 4.50850868 196 5 C195.67 5.66 195.34 6.32 195 7 C179.41496252 7.19855835 163.96147512 6.75337139 148.4079895 5.77484131 C119.39278251 3.9669933 90.44703357 3.17347731 61.38478661 2.78993607 C58.95674135 2.75780866 56.52870145 2.72529905 54.10066223 2.69271851 C46.76924687 2.59480849 39.4378603 2.4991786 32.10623074 2.41863823 C29.03664423 2.38421986 25.96710858 2.34619813 22.89757347 2.3074913 C21.45369535 2.29016366 20.00979647 2.27447816 18.56588173 2.26053238 C16.56519723 2.24106027 14.56457599 2.21538866 12.56396484 2.18945312 C11.43662933 2.17692505 10.30929382 2.16439697 9.14779663 2.15148926 C6.02712095 2.00130521 3.06772682 1.57825571 0 1 C0 0.67 0 0.34 0 0 Z " fill="#898989" transform="translate(793,1858)"/>
<path d="M0 0 C0 0.33 0 0.66 0 1 C-31.21255937 3.4440811 -62.4059854 5.72545409 -93.69439697 6.91143799 C-95.88156921 6.99545088 -98.06846878 7.08455782 -100.25537109 7.17529297 C-122.31879428 8.07510231 -144.39309944 8.10201549 -166.47138977 8.12248993 C-168.77703137 8.12496197 -171.08266663 8.12891863 -173.38830566 8.13311768 C-191.28174595 8.16118894 -209.12649126 7.96668602 -227 7 C-227 6.34 -227 5.68 -227 5 C-226.05217651 5.00444122 -225.10435303 5.00888245 -224.12780762 5.01345825 C-155.19306747 5.32571684 -86.13083926 5.45247811 -17.40893555 -0.81958008 C-11.5831005 -1.25591251 -5.68803462 -1.51680923 0 0 Z " fill="#A0A0A0" transform="translate(1018,2040)"/>
<path d="M0 0 C2.48388181 -0.00322767 4.96776345 -0.00659276 7.4516449 -0.01008606 C12.65681393 -0.01604914 17.86196646 -0.01792948 23.06713867 -0.01733398 C28.29764329 -0.01725362 33.52805865 -0.02405389 38.75854492 -0.0378418 C72.36882817 -0.12503241 105.86971159 0.32951132 139.43359375 2.16796875 C140.50658155 2.22674131 140.50658155 2.22674131 141.60124588 2.2867012 C149.38409859 2.71829732 157.15934633 3.22918199 164.93359375 3.79296875 C166.88277 3.92899581 168.83198932 4.06440704 170.78125 4.19921875 C175.33254706 4.51522347 179.88322407 4.83889129 184.43359375 5.16796875 C175.02086972 11.4431181 153.75767973 6.3903777 142.87109375 5.73046875 C114.54948163 4.01777185 86.31601006 3.00762874 57.93992329 3.06657481 C54.31523662 3.07297833 50.69054838 3.07342518 47.06585693 3.07460022 C40.25274932 3.07766485 33.43965843 3.08580997 26.62655807 3.09594971 C18.84855001 3.10726541 11.07054101 3.11265956 3.29252672 3.11764514 C-12.6604605 3.12799881 -28.61343119 3.1455001 -44.56640625 3.16796875 C-41.81620216 0.41776466 -39.23739161 0.71390341 -35.53930664 0.5534668 C-34.79327462 0.5159389 -34.0472426 0.47841101 -33.27860355 0.4397459 C-22.1937636 -0.05644199 -11.09335816 0.00344524 0 0 Z " fill="#888888" transform="translate(816.56640625,1840.83203125)"/>
<path d="M0 0 C13.10393054 -0.1274659 26.15875703 0.253482 39.25 0.8125 C40.27150146 0.85501892 41.29300293 0.89753784 42.34545898 0.94134521 C64.9240881 1.88947978 87.46157847 3.37004749 110 5 C101.19410754 10.87059497 82.16399232 6.39003508 71.96029663 5.77456665 C52.31311045 4.59183787 32.67771194 3.50284708 13 3 C13 2.34 13 1.68 13 1 C8.71 1 4.42 1 0 1 C0 0.67 0 0.34 0 0 Z " fill="#919191" transform="translate(891,1841)"/>
<path d="M0 0 C11.92331667 3.37385701 23.85507833 14.11578451 30 24.8125 C33.47631051 31.4392169 33.98953269 38.16932071 32 45.375 C27.14303565 58.46182061 14.47285534 67.16041709 2.99609375 74.1015625 C2.33738281 74.39804688 1.67867187 74.69453125 1 75 C0.34 74.67 -0.32 74.34 -1 74 C-0.03320312 73.39414063 0.93359375 72.78828125 1.9296875 72.1640625 C12.93049237 65.14166968 25.23048554 57.25893893 29 44 C30.4711867 34.2034932 28.84349652 26.96959013 23 19 C18.76230036 13.58148302 13.20989497 9.88318112 7.53100586 6.10693359 C4.76212006 4.26485597 2.22989867 2.48115486 0 0 Z " fill="#AAAAAA" transform="translate(1258,1907)"/>
<path d="M0 0 C0.66 0.33 1.32 0.66 2 1 C1.19175781 1.59167969 0.38351562 2.18335938 -0.44921875 2.79296875 C-1.52880822 3.59092618 -2.60822616 4.38911572 -3.6875 5.1875 C-4.74324219 5.96480469 -5.79898437 6.74210937 -6.88671875 7.54296875 C-15.03310294 13.97217283 -22.70957653 21.82731801 -24.38671875 32.44921875 C-24.80586777 41.65604376 -21.55832903 48.55464319 -15.6875 55.5 C-8.29754324 63.24185946 0.8592105 68.56775939 10 74 C9.01 74.495 9.01 74.495 8 75 C-0.10697198 71.21589124 -7.29618731 65.86724922 -14 60 C-15.10021484 59.04287109 -15.10021484 59.04287109 -16.22265625 58.06640625 C-23.14260753 51.63796552 -27.19676224 45.09027199 -27.625 35.5 C-27.11441813 24.33265814 -21.03481474 16.38176739 -13 9 C-8.83827586 5.74778372 -4.44620183 2.84501941 0 0 Z " fill="#AAAAAA" transform="translate(436,1909)"/>
<path d="M0 0 C0 0.66 0 1.32 0 2 C-21.00912135 5.44852865 -42.65698117 8.99527031 -64 8 C-61.6275991 5.6275991 -60.8376408 5.65799377 -57.58544922 5.32983398 C-56.67044647 5.23310898 -55.75544373 5.13638397 -54.81271362 5.03672791 C-53.820065 4.94081863 -52.82741638 4.84490936 -51.8046875 4.74609375 C-50.78327667 4.64031509 -49.76186584 4.53453644 -48.70950317 4.42555237 C-45.43212178 4.08790521 -42.1536637 3.76243642 -38.875 3.4375 C-35.61808074 3.10626746 -32.36141798 2.77259297 -29.10476685 2.43873596 C-27.07704907 2.23180509 -25.04912324 2.02689968 -23.02096558 1.82432556 C-18.86085121 1.40750664 -14.70890505 0.97519437 -10.56298828 0.43383789 C-6.96953448 -0.00370955 -3.61174539 -0.0752447 0 0 Z " fill="#959595" transform="translate(1077,2032)"/>
<path d="M0 0 C-1.32 0.33 -2.64 0.66 -4 1 C-4 1.66 -4 2.32 -4 3 C-19.03922764 4.39623447 -33.8945373 5.30379702 -49 5 C-49.33 4.34 -49.66 3.68 -50 3 C-43.52296929 2.40261457 -37.04505055 1.81570644 -30.56640625 1.23608398 C-28.36241141 1.03765306 -26.15863131 0.83682172 -23.95507812 0.63354492 C-20.78829441 0.34182994 -17.62083958 0.05874697 -14.453125 -0.22265625 C-13.46757629 -0.31531265 -12.48202759 -0.40796906 -11.46661377 -0.50343323 C-10.5459613 -0.58359177 -9.62530884 -0.66375031 -8.67675781 -0.74633789 C-7.8684552 -0.81961807 -7.06015259 -0.89289825 -6.22735596 -0.96839905 C-3.96242377 -1.00053312 -2.16005824 -0.6524991 0 0 Z " fill="#898989" transform="translate(740,1862)"/>
<path d="M0 0 C5.56445946 0.26471738 11.12882415 0.53132732 16.69311523 0.79956055 C18.57915906 0.89022802 20.46522621 0.9804117 22.35131836 1.07006836 C25.08974707 1.20033111 27.82809947 1.33204329 30.56640625 1.46484375 C31.46579926 1.50846039 32.36519226 1.55207703 33.2918396 1.59701538 C38.5688614 1.85956187 43.83570074 2.18562908 49.10546875 2.56640625 C55.33475369 2.99987753 61.50851036 3.08840637 67.75 3 C69.64056809 2.97452065 71.53120273 2.95347751 73.421875 2.9375 C74.63762207 2.92009766 74.63762207 2.92009766 75.87792969 2.90234375 C78 3 78 3 81 4 C81 4.66 81 5.32 81 6 C83.64 6 86.28 6 89 6 C89 6.33 89 6.66 89 7 C81.02213331 7.12042039 73.14918064 6.75702592 65.1953125 6.16015625 C63.99550751 6.07374374 62.79570251 5.98733124 61.55953979 5.89830017 C57.74774631 5.62341018 53.93635379 5.34341555 50.125 5.0625 C33.42241432 3.83765806 16.73441906 2.68553666 0 2 C0 1.34 0 0.68 0 0 Z " fill="#555555" transform="translate(929,1844)"/>
<path d="M0 0 C-3.96799692 3.96799692 -9.99648855 3.26530703 -15.34375 3.53515625 C-16.14929321 3.57813339 -16.95483643 3.62111053 -17.78479004 3.66539001 C-19.48924523 3.75536841 -21.19379833 3.84350875 -22.8984375 3.92993164 C-25.46384875 4.06065783 -28.02877903 4.19882296 -30.59375 4.33789062 C-56.90018159 5.73106116 -56.90018159 5.73106116 -62 3 C-54.77774713 2.5686275 -47.5552311 2.14188398 -40.33251953 1.71826172 C-37.87868143 1.57380424 -35.42490402 1.42831179 -32.97119141 1.28173828 C-29.43147221 1.07047611 -25.89154692 0.86301463 -22.3515625 0.65625 C-20.722827 0.55781799 -20.722827 0.55781799 -19.06118774 0.45739746 C-12.69859685 0.0900584 -6.37300465 -0.08386262 0 0 Z " fill="#9C9C9C" transform="translate(774,1842)"/>
<path d="M0 0 C-0.33 0.66 -0.66 1.32 -1 2 C-3.55225921 2.39534468 -6.01597666 2.66151422 -8.5859375 2.8515625 C-9.74326889 2.94719986 -9.74326889 2.94719986 -10.92398071 3.04476929 C-12.56631104 3.17854376 -14.20902421 3.30768438 -15.85205078 3.43261719 C-18.33072393 3.62162381 -20.80785686 3.82509746 -23.28515625 4.03125 C-31.5343054 4.69935671 -39.71653121 5.22862097 -48 5 C-45.13477385 2.13477385 -41.98682933 2.32285064 -38.125 1.9375 C-36.96871094 1.8139917 -36.96871094 1.8139917 -35.7890625 1.68798828 C-33.52683461 1.44998306 -31.26358089 1.22469751 -29 1 C-27.41832031 0.82791016 -27.41832031 0.82791016 -25.8046875 0.65234375 C-17.21061081 -0.19748835 -8.62521642 -0.09197506 0 0 Z " fill="#989898" transform="translate(716,1846)"/>
<path d="M0 0 C0 0.33 0 0.66 0 1 C-5.2833265 1.43082428 -10.56693452 1.85795035 -15.85083008 2.28173828 C-17.64615842 2.42624387 -19.44140752 2.57173773 -21.23657227 2.71826172 C-23.82547842 2.92939581 -26.41465419 3.1369064 -29.00390625 3.34375 C-30.19651817 3.44218201 -30.19651817 3.44218201 -31.41322327 3.54260254 C-35.95951944 3.90177027 -40.43949691 4.06367195 -45 4 C-41.78906558 1.15617955 -39.51921378 0.55723622 -35.2734375 0.26953125 C-34.15839844 0.18896484 -33.04335938 0.10839844 -31.89453125 0.02539062 C-30.73308594 -0.04486328 -29.57164062 -0.11511719 -28.375 -0.1875 C-27.23675781 -0.26935547 -26.09851563 -0.35121094 -24.92578125 -0.43554688 C-6.38333821 -1.70222352 -6.38333821 -1.70222352 0 0 Z " fill="#9D9D9D" transform="translate(1018,2040)"/>
<path d="M0 0 C0.8264502 0.08290283 1.65290039 0.16580566 2.50439453 0.2512207 C8.38167058 0.87833529 8.38167058 0.87833529 10.625 2 C10.625 2.66 10.625 3.32 10.625 4 C-3.43826457 3.31685985 -17.39463376 1.61938861 -31.375 0 C-31.375 -0.33 -31.375 -0.66 -31.375 -1 C-21.57810888 -3.47716068 -9.96961455 -1.01519508 0 0 Z " fill="#9A9A9A" transform="translate(665.375,2036)"/>
<path d="M0 0 C15.0162103 -0.19306556 29.99751434 0.40136532 45 1 C41.45856475 3.19629783 38.60332753 3.23275752 34.484375 3.1953125 C32.60878906 3.18564453 32.60878906 3.18564453 30.6953125 3.17578125 C29.39335938 3.15902344 28.09140625 3.14226562 26.75 3.125 C25.43257812 3.11597656 24.11515625 3.10695313 22.7578125 3.09765625 C19.50502538 3.07408533 16.25260411 3.04118022 13 3 C13 2.34 13 1.68 13 1 C8.71 1 4.42 1 0 1 C0 0.67 0 0.34 0 0 Z " fill="#AEAEAE" transform="translate(891,1841)"/>
<path d="M0 0 C0.7734375 -0.00257812 1.546875 -0.00515625 2.34375 -0.0078125 C4.5 0.125 4.5 0.125 7.5 1.125 C7.5 1.785 7.5 2.445 7.5 3.125 C10.14 3.125 12.78 3.125 15.5 3.125 C15.5 3.455 15.5 3.785 15.5 4.125 C7.77227893 4.26190844 0.19118596 3.87666913 -7.5 3.125 C-7.5 2.465 -7.5 1.805 -7.5 1.125 C-4.68772378 0.18757459 -2.91253156 -0.00970844 0 0 Z " fill="#676767" transform="translate(1002.5,1846.875)"/>
<path d="M0 0 C-0.33 0.99 -0.66 1.98 -1 3 C-3.04071515 3.33910994 -5.08262621 3.67102704 -7.125 4 C-8.83042969 4.2784375 -8.83042969 4.2784375 -10.5703125 4.5625 C-13.76137602 4.96956049 -16.78817791 5.07809902 -20 5 C-17.4396784 1.77752626 -15.11380648 1.39440818 -11.125 0.8125 C-10.09632813 0.65394531 -9.06765625 0.49539063 -8.0078125 0.33203125 C-5.30443215 0.03360615 -2.71608477 -0.06514594 0 0 Z " fill="#9A9A9A" transform="translate(599,1858)"/>
<path d="M0 0 C1.86785156 0.01353516 1.86785156 0.01353516 3.7734375 0.02734375 C5.18496094 0.04474609 5.18496094 0.04474609 6.625 0.0625 C6.625 0.7225 6.625 1.3825 6.625 2.0625 C-0.73540917 2.85975902 -7.97260355 3.19136183 -15.375 3.0625 C-11.39476243 -0.91773757 -5.32684196 -0.05025323 0 0 Z " fill="#8E8E8E" transform="translate(683.375,1847.9375)"/>
<path d="M0 0 C0 0.66 0 1.32 0 2 C-4.65537356 2.92092281 -9.14685433 3.12205997 -13.875 3.0625 C-14.90753906 3.05573242 -14.90753906 3.05573242 -15.9609375 3.04882812 C-17.64066335 3.03716336 -19.32034375 3.01923271 -21 3 C-16.3432613 -1.6567387 -6.23703952 -0.10059741 0 0 Z " fill="#8E8E8E" transform="translate(1034,2037)"/>
<path d="M0 0 C-3.43844969 3.43844969 -6.79051497 3.16112665 -11.4375 3.1875 C-12.57058594 3.20167969 -13.70367188 3.21585938 -14.87109375 3.23046875 C-17.85457979 3.01071135 -19.49295423 2.55843386 -22 1 C-14.65623924 0.42240084 -7.36901413 -0.14738028 0 0 Z " fill="#ABABAB" transform="translate(734,1844)"/>
<path d="M0 0 C6.11090483 -0.09945415 11.97403427 -0.0712828 18 1 C12.65498614 4.56334257 6.08273091 3.01378848 0 2 C0 1.34 0 0.68 0 0 Z " fill="#9B9B9B" transform="translate(1074,1855)"/>
<path d="M0 0 C6.6 0.33 13.2 0.66 20 1 C16.36804504 3.42130331 14.61650652 3.21022785 10.3125 3.125 C9.13300781 3.10695313 7.95351563 3.08890625 6.73828125 3.0703125 C5.83464844 3.04710937 4.93101562 3.02390625 4 3 C4 2.34 4 1.68 4 1 C2.68 0.67 1.36 0.34 0 0 Z " fill="#ADADAD" transform="translate(981,1845)"/>
<path d="M0 0 C2.48020497 0.11341491 4.95844969 0.24014686 7.4375 0.375 C8.14455078 0.4059375 8.85160156 0.436875 9.58007812 0.46875 C11.39239188 0.57280629 13.19817988 0.77919892 15 1 C15.33 1.66 15.66 2.32 16 3 C13.89590361 3.02701408 11.79170822 3.04640223 9.6875 3.0625 C8.51574219 3.07410156 7.34398437 3.08570313 6.13671875 3.09765625 C3 3 3 3 0 2 C0 1.34 0 0.68 0 0 Z " fill="#8E8E8E" transform="translate(623,2032)"/>
<path d="M0 0 C0 0.33 0 0.66 0 1 C-8.415 1.495 -8.415 1.495 -17 2 C-17 1.34 -17 0.68 -17 0 C-12.2418865 -2.37905675 -5.00367323 -1.33431286 0 0 Z " fill="#ABABAB" transform="translate(1018,2040)"/>
<path d="M0 0 C5.61 0.33 11.22 0.66 17 1 C13.57905758 3.28062828 12.31812778 3.21925007 8.3125 3.125 C6.82169922 3.09792969 6.82169922 3.09792969 5.30078125 3.0703125 C4.54152344 3.04710937 3.78226563 3.02390625 3 3 C3 2.34 3 1.68 3 1 C2.01 0.67 1.02 0.34 0 0 Z " fill="#ADADAD" transform="translate(1007,1847)"/>
<path d="M0 0 C0.90105469 0.00902344 1.80210937 0.01804687 2.73046875 0.02734375 C3.41753906 0.03894531 4.10460937 0.05054688 4.8125 0.0625 C4.8125 0.7225 4.8125 1.3825 4.8125 2.0625 C0.1925 2.3925 -4.4275 2.7225 -9.1875 3.0625 C-7.31499103 -0.68251794 -3.72136574 -0.04832943 0 0 Z " fill="#8C8C8C" transform="translate(620.1875,1854.9375)"/>
<path d="M0 0 C4.51617599 -0.07654536 8.59085217 -0.10228696 13 1 C13 1.33 13 1.66 13 2 C8.38 2.33 3.76 2.66 -1 3 C-0.67 2.01 -0.34 1.02 0 0 Z " fill="#ABABAB" transform="translate(1035,2036)"/>
<path d="M0 0 C-0.99 0.495 -0.99 0.495 -2 1 C-2 1.66 -2 2.32 -2 3 C-3.4370809 3.05422947 -4.87475462 3.09289723 -6.3125 3.125 C-7.11300781 3.14820313 -7.91351562 3.17140625 -8.73828125 3.1953125 C-11 3 -11 3 -14 1 C-4.58997722 -0.14806378 -4.58997722 -0.14806378 0 0 Z " fill="#ABABAB" transform="translate(670,1849)"/>
<path d="M0 0 C0.33 0.99 0.66 1.98 1 3 C-3.29 2.67 -7.58 2.34 -12 2 C-12 1.67 -12 1.34 -12 1 C-7.9472484 0.01751476 -4.16138263 -0.08159574 0 0 Z " fill="#AFAFAF" transform="translate(646,2034)"/>
<path d="M0 0 C4.29 0.33 8.58 0.66 13 1 C9.91111478 3.05925681 9.29064073 3.2390374 5.8125 3.125 C3.9253125 3.063125 3.9253125 3.063125 2 3 C2 2.34 2 1.68 2 1 C1.34 0.67 0.68 0.34 0 0 Z " fill="#AFAFAF" transform="translate(1048,1851)"/>
<path d="M0 0 C-2 2 -2 2 -3.875 2.265625 C-4.57625 2.26046875 -5.2775 2.2553125 -6 2.25 C-6.70125 2.25515625 -7.4025 2.2603125 -8.125 2.265625 C-10 2 -10 2 -12 0 C-10.56359829 -0.19573608 -9.12580496 -0.38127816 -7.6875 -0.5625 C-6.88699219 -0.66691406 -6.08648438 -0.77132813 -5.26171875 -0.87890625 C-3 -1 -3 -1 0 0 Z " fill="#8E8E8E" transform="translate(684,1867)"/>
<path d="M0 0 C2.97 0.33 5.94 0.66 9 1 C9 1.33 9 1.66 9 2 C5.7 2.33 2.4 2.66 -1 3 C-0.67 2.01 -0.34 1.02 0 0 Z " fill="#AEAEAE" transform="translate(1112,2026)"/>
</svg>
