<?xml version="1.0" encoding="UTF-8"?>
<svg version="1.1" xmlns="http://www.w3.org/2000/svg" width="512" height="512">
<path d="M0 0 C1.44474197 0.00090637 1.44474197 0.00090637 2.91867065 0.00183105 C49.36592047 0.08057392 101.43558306 4.22977353 143.66601562 25.18457031 C145.66701799 26.17733815 147.68359538 27.13155646 149.703125 28.0859375 C161.37898939 33.77425398 174.50386122 42.89271871 179.56910402 55.35688436 C181.63935234 61.88952573 182.10665612 67.81490509 182.04826355 74.64028931 C182.05082682 75.75139269 182.0533901 76.86249608 182.05603105 78.00726926 C182.06094837 81.70763341 182.04450948 85.40758398 182.02807617 89.10791016 C182.02722946 91.76945917 182.027574 94.43098332 182.02940369 97.0925293 C182.0309719 102.81096249 182.02161018 108.52929249 182.00469017 114.24769974 C181.98024315 122.51539981 181.97248909 130.78305031 181.9687262 139.05078261 C181.96217063 152.46666326 181.94223383 165.88248899 181.91381836 179.29833984 C181.88625458 192.32568081 181.86503237 205.35300683 181.85229492 218.38037109 C181.85150675 219.18423266 181.85071858 219.98809424 181.84990653 220.81631525 C181.84599123 224.84930805 181.84220015 228.88230096 181.83847082 232.91529393 C181.80740279 266.33940244 181.75459145 299.76344447 181.6875 333.1875 C182.45835937 332.8265625 183.22921875 332.465625 184.0234375 332.09375 C185.52777344 331.39765625 185.52777344 331.39765625 187.0625 330.6875 C188.06023437 330.2234375 189.05796875 329.759375 190.0859375 329.28125 C192.6875 328.1875 192.6875 328.1875 194.6875 328.1875 C194.94273437 327.13175781 194.94273437 327.13175781 195.203125 326.0546875 C197.17140845 318.03497941 199.38750565 310.11851501 201.6875 302.1875 C208.9475 302.1875 216.2075 302.1875 223.6875 302.1875 C232.6875 323.4375 232.6875 323.4375 232.6875 328.1875 C233.3475 328.414375 234.0075 328.64125 234.6875 328.875 C238.01062814 330.32886856 240.70903126 332.2194302 243.625 334.359375 C245.70102523 335.43415838 245.70102523 335.43415838 248 334.5546875 C251.85532537 332.59340279 255.70704341 330.6288997 259.515625 328.578125 C265.93331121 325.25766996 265.93331121 325.25766996 269.6875 326.1875 C272.41334634 328.1421881 274.71422431 330.42580671 277.0625 332.8125 C277.71605469 333.42996094 278.36960937 334.04742187 279.04296875 334.68359375 C283.64465028 339.28527528 283.64465028 339.28527528 283.828125 343.1484375 C282.13975562 347.64690111 280.16107839 351.95679884 278.0390625 356.265625 C276.00011266 360.64435334 275.20902824 363.37387102 276.6875 368.1875 C277.60121244 370.22061156 277.60121244 370.22061156 278.75 371.9375 C280.6875 375.1875 280.6875 375.1875 280.6875 377.1875 C281.491875 377.31705078 281.491875 377.31705078 282.3125 377.44921875 C290.69269556 378.95158934 298.5931649 381.58084971 306.6875 384.1875 C306.6875 391.4475 306.6875 398.7075 306.6875 406.1875 C303.3875 407.1775 300.0875 408.1675 296.6875 409.1875 C293.2565147 410.46825687 289.86792209 411.82735329 286.47265625 413.19921875 C283.6875 414.1875 283.6875 414.1875 280.6875 414.1875 C280.584375 414.868125 280.48125 415.54875 280.375 416.25 C279.6875 419.1875 279.6875 419.1875 278.0625 422.6875 C276.54175136 426.55849653 276.51319414 427.34233105 277.6875 431.1875 C279.26401846 434.43240862 281.08521939 437.53975912 282.89257812 440.66015625 C284.96950702 444.37834722 286.21671442 446.93185469 285.6875 451.1875 C284.31054688 453.13208008 284.31054688 453.13208008 282.40625 454.95703125 C281.72949219 455.61767578 281.05273438 456.27832031 280.35546875 456.95898438 C279.64003906 457.63251953 278.92460937 458.30605469 278.1875 459 C277.47207031 459.69287109 276.75664062 460.38574219 276.01953125 461.09960938 C274.25289579 462.80735699 272.47567513 464.50236688 270.6875 466.1875 C270.01283691 465.85314941 269.33817383 465.51879883 268.64306641 465.17431641 C265.55285305 463.67441302 262.4350361 462.2438149 259.3125 460.8125 C257.72115234 460.02166016 257.72115234 460.02166016 256.09765625 459.21484375 C250.0715655 456.37877895 250.0715655 456.37877895 243.73730469 457.23730469 C241.25360618 458.75755339 239.0017641 460.4268876 236.6875 462.1875 C236.0275 462.1875 235.3675 462.1875 234.6875 462.1875 C234.43226563 463.27804687 234.43226563 463.27804687 234.171875 464.390625 C229.30912162 484.56587838 229.30912162 484.56587838 226.6875 487.1875 C225.05277118 487.27450342 223.41435945 487.29451063 221.77734375 487.28515625 C220.78798828 487.28193359 219.79863281 487.27871094 218.77929688 487.27539062 C217.21791992 487.26282227 217.21791992 487.26282227 215.625 487.25 C214.58021484 487.24548828 213.53542969 487.24097656 212.45898438 487.23632812 C209.8684334 487.22449913 207.27799441 487.20801689 204.6875 487.1875 C202.66409088 482.84131594 200.7230591 478.5333213 199.30078125 473.94921875 C197.14454278 466.39750192 197.14454278 466.39750192 192.51171875 460.3046875 C190.18666582 459.24962147 188.19951028 458.6271018 185.6875 458.1875 C184.77097656 457.92324219 183.85445313 457.65898437 182.91015625 457.38671875 C178.36912319 457.10600034 175.5438331 458.80061995 171.625 460.9375 C170.93083984 461.2984375 170.23667969 461.659375 169.52148438 462.03125 C166.53817408 463.59515055 163.72025512 465.16494883 160.94140625 467.078125 C158.6875 468.1875 158.6875 468.1875 156.65625 467.66015625 C153.36280447 465.19660671 150.70639241 462.1803215 147.90625 459.18359375 C145.5941112 457.10348297 144.69176376 456.59032173 141.6875 456.1875 C139.57995252 456.67615708 139.57995252 456.67615708 137.44140625 457.62890625 C136.61560059 457.96237061 135.78979492 458.29583496 134.93896484 458.6394043 C134.05160645 459.00590088 133.16424805 459.37239746 132.25 459.75 C51.04554741 491.79037633 -63.05730606 489.55611171 -143 455.3125 C-158.29209742 448.39987269 -173.77956028 438.24764348 -180.3125 422.1875 C-181.24867598 418.43334672 -181.43942157 414.93189794 -181.44392776 411.06885147 C-181.44776891 409.83132448 -181.45161005 408.5937975 -181.4555676 407.31876969 C-181.45478741 405.94837326 -181.45390863 404.57797688 -181.45294189 403.20758057 C-181.45552635 401.7494994 -181.45853973 400.29141894 -181.4619453 398.83333945 C-181.47000905 394.82585103 -181.47180452 390.81838053 -181.47254276 386.81088495 C-181.47439439 382.48901038 -181.48194225 378.16714508 -181.48867798 373.84527588 C-181.50225708 364.39485711 -181.50828527 354.94444259 -181.51268864 345.49401569 C-181.5154516 339.5930529 -181.51968903 333.69209175 -181.52419281 327.79113007 C-181.53638459 311.45260343 -181.5466843 295.11407811 -181.5500679 278.77554703 C-181.55028747 277.72995231 -181.55050703 276.68435759 -181.55073325 275.60707818 C-181.55095153 274.55898623 -181.55116981 273.51089427 -181.5513947 272.43104196 C-181.55183817 270.30721807 -181.55228473 268.18339419 -181.55273438 266.05957031 C-181.5529558 265.00608098 -181.55317723 263.95259166 -181.55340537 262.86717841 C-181.55735371 245.79546028 -181.57480923 228.72378483 -181.5980939 211.65208319 C-181.62180771 194.12425739 -181.63426976 176.59645301 -181.63543582 159.06861091 C-181.63635253 149.22758392 -181.64210384 139.38661255 -181.66025543 129.54560089 C-181.67565676 121.16616025 -181.68077665 112.78679242 -181.67251733 104.40734032 C-181.66861104 100.13282327 -181.66953941 95.85845285 -181.68357468 91.58395386 C-181.69631466 87.66810182 -181.69511531 83.75250656 -181.68298396 79.83665487 C-181.68102714 78.42278838 -181.68410476 77.00890369 -181.69282833 75.59506276 C-181.77715501 60.99986464 -178.46411136 52.09322518 -168.5390625 41.25 C-136.75821507 11.27330548 -79.70599106 4.20716255 -38.3125 1.1875 C-37.11455811 1.09992432 -35.91661621 1.01234863 -34.68237305 0.92211914 C-23.12222424 0.13323116 -11.58416959 -0.01350967 0 0 Z M190.6875 377.1875 C185.20293272 385.1970822 183.30707001 392.56081718 184.6875 402.1875 C186.64061156 410.71126464 191.43638751 416.64458073 198.6328125 421.5 C205.47269439 425.26608881 212.57686759 426.99861645 220.25 425.1875 C229.20828147 422.28997675 235.89423658 417.34390563 240.6875 409.1875 C244.27317503 401.3596179 244.471897 393.48120045 241.62890625 385.3984375 C238.65838597 378.42202888 233.12305252 371.46590581 226.0625 368.3125 C213.07425873 363.98308624 199.73246157 366.27048757 190.6875 377.1875 Z " fill="#006ABC" transform="translate(194.3125,12.8125)"/>
<path d="M0 0 C1.44474197 0.00090637 1.44474197 0.00090637 2.91867065 0.00183105 C49.36592047 0.08057392 101.43558306 4.22977353 143.66601562 25.18457031 C145.66701799 26.17733815 147.68359538 27.13155646 149.703125 28.0859375 C161.58005391 33.87220978 174.55871859 43.04746595 179.70703125 55.69140625 C182.45978657 64.12564742 181.93161744 69.98596379 178.359375 78.09375 C167.26904774 98.61603783 142.67041396 108.33850095 121.6875 115.1875 C120.7814502 115.48398438 119.87540039 115.78046875 118.94189453 116.0859375 C103.08256598 121.18270369 87.10940144 124.49373811 70.6875 127.1875 C69.55876465 127.37973145 68.4300293 127.57196289 67.26708984 127.77001953 C51.03731224 130.51795526 35.14017127 132.0156149 18.6875 132.1875 C17.88195679 132.19738953 17.07641357 132.20727905 16.24645996 132.21746826 C-17.53528326 132.62780131 -50.01787656 131.0562933 -83.3125 125.1875 C-84.36179687 125.00348633 -85.41109375 124.81947266 -86.4921875 124.62988281 C-114.07052026 119.62992369 -146.44028832 110.83689524 -167.3125 91.1875 C-167.96089844 90.62804687 -168.60929687 90.06859375 -169.27734375 89.4921875 C-174.10531179 85.10312564 -176.75680545 80.14121539 -179.3125 74.1875 C-179.87517578 72.95966797 -179.87517578 72.95966797 -180.44921875 71.70703125 C-182.28297524 66.35511752 -181.3935428 60.69746442 -179.18359375 55.56640625 C-177.69887736 52.97320951 -176.08951422 50.58939835 -174.3125 48.1875 C-173.75691406 47.42566406 -173.20132813 46.66382813 -172.62890625 45.87890625 C-146.99716013 14.07349225 -88.09590741 6.32164303 -50.35229492 2.25073242 C-46.34136064 1.84477702 -42.33342623 1.48082729 -38.3125 1.1875 C-37.11455811 1.09992432 -35.91661621 1.01234863 -34.68237305 0.92211914 C-23.12222424 0.13323116 -11.58416959 -0.01350967 0 0 Z " fill="#E6E7E7" transform="translate(194.3125,12.8125)"/>
<path d="M0 0 C8.91 0 17.82 0 27 0 C27 31.68 27 63.36 27 96 C41.19 96 55.38 96 70 96 C70 103.26 70 110.52 70 118 C71.98 118.33 73.96 118.66 76 119 C78.14648438 119.86376953 78.14648438 119.86376953 80.09375 120.8828125 C80.81433594 121.24503906 81.53492188 121.60726562 82.27734375 121.98046875 C83.76230722 122.74513359 85.24408976 123.51600674 86.72265625 124.29296875 C91.23305278 126.54413267 93.97103468 127.58398201 99 126 C101.47384357 125.06734086 101.47384357 125.06734086 103.75 123.9375 C107.80427046 122 107.80427046 122 110 122 C110.17015625 121.29617188 110.3403125 120.59234375 110.515625 119.8671875 C112.48390845 111.84747941 114.70000565 103.93101501 117 96 C124.26 96 131.52 96 139 96 C148 117.25 148 117.25 148 122 C148.66 122.226875 149.32 122.45375 150 122.6875 C153.32312814 124.14136856 156.02153126 126.0319302 158.9375 128.171875 C161.01352523 129.24665838 161.01352523 129.24665838 163.3125 128.3671875 C167.16782537 126.40590279 171.01954341 124.4413997 174.828125 122.390625 C181.24581121 119.07016996 181.24581121 119.07016996 185 120 C187.72584634 121.9546881 190.02672431 124.23830671 192.375 126.625 C193.02855469 127.24246094 193.68210937 127.85992187 194.35546875 128.49609375 C198.95715028 133.09777528 198.95715028 133.09777528 199.140625 136.9609375 C197.45225562 141.45940111 195.47357839 145.76929884 193.3515625 150.078125 C191.31261266 154.45685334 190.52152824 157.18637102 192 162 C192.91371244 164.03311156 192.91371244 164.03311156 194.0625 165.75 C196 169 196 169 196 171 C196.804375 171.12955078 196.804375 171.12955078 197.625 171.26171875 C206.00519556 172.76408934 213.9056649 175.39334971 222 178 C222 185.26 222 192.52 222 200 C218.7 200.99 215.4 201.98 212 203 C208.5690147 204.28075687 205.18042209 205.63985329 201.78515625 207.01171875 C199 208 199 208 196 208 C195.896875 208.680625 195.79375 209.36125 195.6875 210.0625 C195 213 195 213 193.375 216.5 C191.85425136 220.37099653 191.82569414 221.15483105 193 225 C194.57651846 228.24490862 196.39771939 231.35225912 198.20507812 234.47265625 C200.28200702 238.19084722 201.52921442 240.74435469 201 245 C199.62304688 246.94458008 199.62304688 246.94458008 197.71875 248.76953125 C197.04199219 249.43017578 196.36523438 250.09082031 195.66796875 250.77148438 C194.95253906 251.44501953 194.23710937 252.11855469 193.5 252.8125 C192.42685547 253.85180664 192.42685547 253.85180664 191.33203125 254.91210938 C189.56539579 256.61985699 187.78817513 258.31486688 186 260 C185.32533691 259.66564941 184.65067383 259.33129883 183.95556641 258.98681641 C180.86535305 257.48691302 177.7475361 256.0563149 174.625 254.625 C173.56410156 254.09777344 172.50320313 253.57054687 171.41015625 253.02734375 C165.3840655 250.19127895 165.3840655 250.19127895 159.04980469 251.04980469 C156.56610618 252.57005339 154.3142641 254.2393876 152 256 C151.34 256 150.68 256 150 256 C149.82984375 256.72703125 149.6596875 257.4540625 149.484375 258.203125 C144.62162162 278.37837838 144.62162162 278.37837838 142 281 C140.36527118 281.08700342 138.72685945 281.10701063 137.08984375 281.09765625 C136.10048828 281.09443359 135.11113281 281.09121094 134.09179688 281.08789062 C132.53041992 281.07532227 132.53041992 281.07532227 130.9375 281.0625 C129.89271484 281.05798828 128.84792969 281.05347656 127.77148438 281.04882812 C125.1809334 281.03699913 122.59049441 281.02051689 120 281 C117.97659088 276.65381594 116.0355591 272.3458213 114.61328125 267.76171875 C112.45704278 260.21000192 112.45704278 260.21000192 107.82421875 254.1171875 C105.49916582 253.06212147 103.51201028 252.4396018 101 252 C99.62521484 251.60361328 99.62521484 251.60361328 98.22265625 251.19921875 C93.68162319 250.91850034 90.8563331 252.61311995 86.9375 254.75 C85.89625977 255.29140625 85.89625977 255.29140625 84.83398438 255.84375 C81.85067408 257.40765055 79.03275512 258.97744883 76.25390625 260.890625 C74 262 74 262 71.9765625 261.47265625 C69.53293862 259.65201158 67.48535137 257.63607676 65.375 255.4375 C62.48929319 252.30957946 62.48929319 252.30957946 59 250 C57.2571044 244.29051443 58.48111415 241.17216786 61.16015625 235.97265625 C62.05338542 234.32421875 62.94661458 232.67578125 63.83984375 231.02734375 C66.48112455 225.90111965 67.62550391 222.80846731 66 217 C65.30854364 214.93844343 65.30854364 214.93844343 64.4375 213.25 C63 210 63 210 63 207 C62.195625 206.87044922 62.195625 206.87044922 61.375 206.73828125 C52.99480444 205.23591066 45.0943351 202.60665029 37 200 C37 193.07 37 186.14 37 179 C45.85219036 175.68042862 45.85219036 175.68042862 49.54296875 174.81640625 C58.43774793 172.69173448 58.43774793 172.69173448 65.3125 167.1171875 C67.52075484 162.01059819 68.39437343 158.41183565 67 153 C65.95759359 150.71970099 65.95759359 150.71970099 64.64453125 148.49609375 C63.95907227 147.26149414 63.95907227 147.26149414 63.25976562 146.00195312 C62.29041053 144.28432393 61.31376414 142.57079038 60.33007812 140.86132812 C59.87697266 140.03955078 59.42386719 139.21777344 58.95703125 138.37109375 C58.53397705 137.62786865 58.11092285 136.88464355 57.67504883 136.11889648 C57 134 57 134 59 130 C61.97 126.7 64.94 123.4 68 120 C34.34 119.505 34.34 119.505 0 119 C0 79.73 0 40.46 0 0 Z M106 171 C100.51543272 179.0095822 98.61957001 186.37331718 100 196 C101.95311156 204.52376464 106.74888751 210.45708073 113.9453125 215.3125 C120.78519439 219.07858881 127.88936759 220.81111645 135.5625 219 C144.52078147 216.10247675 151.20673658 211.15640563 156 203 C159.58567503 195.1721179 159.784397 187.29370045 156.94140625 179.2109375 C153.97088597 172.23452888 148.43555252 165.27840581 141.375 162.125 C128.38675873 157.79558624 115.04496157 160.08298757 106 171 Z " fill="#939394" transform="translate(279,219)"/>
<path d="M0 0 C1.18822357 -0.00250763 1.18822357 -0.00250763 2.40045166 -0.00506592 C14.57057181 -0.00658328 26.62892476 0.54283815 38.75 1.625 C39.81302338 1.71968567 39.81302338 1.71968567 40.89752197 1.81628418 C53.64512422 2.97782912 66.41470215 4.24557626 78.875 7.25 C80.4406939 7.57764149 82.00713699 7.90171842 83.57421875 8.22265625 C93.25409439 10.29622417 102.44575475 12.95586411 111.625 16.6875 C112.96244263 17.22612671 112.96244263 17.22612671 114.3269043 17.77563477 C124.66810058 22.1411393 134.39979786 28.11073678 139.875 38.25 C140.64983976 44.44871805 139.17726448 48.21202566 135.45703125 53.12109375 C128.11142993 61.4396224 116.57603742 66.56849201 106.02636719 69.61425781 C103.90433515 70.24133128 101.82473858 70.94684332 99.734375 71.671875 C82.06229975 77.57698264 63.3052042 80.04063427 44.875 82.25 C44.16180603 82.33860291 43.44861206 82.42720581 42.71380615 82.51849365 C29.60047341 84.11929854 16.62496034 84.56382367 3.41992188 84.51074219 C0.24590064 84.49998611 -2.92755783 84.51072975 -6.1015625 84.5234375 C-18.25840456 84.53187676 -30.08246313 83.89424597 -42.125 82.25 C-44.13928208 82.00097151 -46.15359959 81.75222934 -48.16796875 81.50390625 C-58.58047737 80.1282262 -68.87595386 78.57409422 -79.125 76.25 C-79.87958496 76.08274414 -80.63416992 75.91548828 -81.41162109 75.74316406 C-101.89455384 71.15138573 -123.87540429 65.62439357 -136.125 47.25 C-136.90924712 43.00450837 -136.94565514 38.96673815 -135.0625 35.02734375 C-121.65097452 16.11271949 -92.23977565 9.71181938 -70.78759766 5.82910156 C-57.32192016 3.70001297 -43.69668277 2.49171161 -30.125 1.25 C-29.0014209 1.14397461 -27.8778418 1.03794922 -26.72021484 0.92871094 C-17.8178684 0.15675922 -8.9294492 0.01005964 0 0 Z " fill="#50E5FE" transform="translate(193.125,31.75)"/>
<path d="M0 0 C11.3053583 9.2937842 18.50819736 21.54910696 21 36 C22.39680586 58.28531497 20.71138768 77.65686288 5.75 95.375 C1.10425678 100.27617927 -4.18371353 103.64371666 -10 107 C-10.99 107.66 -11.98 108.32 -13 109 C-6.86090095 115.27642082 -6.86090095 115.27642082 -0.375 121.1875 C3.84581789 124.81395782 7.92397944 128.58767775 12 132.375 C12.68400879 133.00688232 13.36801758 133.63876465 14.07275391 134.28979492 C14.70874512 134.88252197 15.34473633 135.47524902 16 136.0859375 C16.5775 136.6226709 17.155 137.1594043 17.75 137.71240234 C19 139 19 139 19 140 C-13.03736439 142.42869057 -13.03736439 142.42869057 -19.68359375 137.1640625 C-22.32548288 134.3265795 -24.27900449 131.16595142 -26.05615234 127.73095703 C-27.37462351 125.31296413 -29.11449386 123.43052991 -31 121.4375 C-32.7543394 119.45929958 -34.27063514 117.59344049 -35.7421875 115.3828125 C-38.727094 112.23265166 -40.87239052 112.06185642 -45.125 111.4375 C-60.56718646 108.82535183 -73.6294532 101.84111969 -83 89 C-85.29343034 85.11070346 -87.21679987 81.14551026 -89 77 C-89.32871094 76.24332031 -89.65742188 75.48664063 -89.99609375 74.70703125 C-95.89134885 60.12403179 -95.10809044 39.8569471 -89.4765625 25.34375 C-83.19608227 11.12128684 -73.48960087 -0.04133015 -59.03125 -6.28125 C-39.4943128 -13.63386078 -17.41155721 -11.62226906 0 0 Z " fill="#EFF0F1" transform="translate(238,227)"/>
<path d="M0 0 C1.92102539 -0.01063477 1.92102539 -0.01063477 3.88085938 -0.02148438 C12.41782171 0.0350518 21.28377876 0.54813938 29.0625 4.4375 C29.0625 12.3575 29.0625 20.2775 29.0625 28.4375 C27.4125 27.7775 25.7625 27.1175 24.0625 26.4375 C22.2326473 25.74078884 20.39920342 25.05344522 18.5625 24.375 C17.6446875 24.03339844 16.726875 23.69179687 15.78125 23.33984375 C8.1335319 20.80159248 -1.02244788 19.65643372 -8.5 23.1875 C-11.37131405 24.90670675 -13.54558488 26.30569099 -14.9375 29.4375 C-15.44987487 33.97567745 -15.39707742 36.39300586 -13.5625 40.5625 C-8.46986383 46.14014914 -1.74290318 49.06612573 4.97412109 52.30078125 C16.36645725 57.81981808 25.56582541 63.51113594 31.0625 75.4375 C33.82430193 83.51832786 33.09557821 94.53598415 29.43359375 102.1640625 C23.86413529 111.39889106 17.11670313 115.74732918 7.0625 119.4375 C6.04414062 119.81261719 5.02578125 120.18773437 3.9765625 120.57421875 C-1.54393945 122.07759354 -7.32281345 121.8195185 -13 121.8125 C-14.20269531 121.81233887 -15.40539062 121.81217773 -16.64453125 121.81201172 C-26.37483297 121.68696049 -35.62192331 120.98121779 -43.9375 115.4375 C-44.27807617 112.82373047 -44.27807617 112.82373047 -44.23046875 109.5546875 C-44.2159668 107.80478516 -44.2159668 107.80478516 -44.20117188 106.01953125 C-44.17603516 104.79621094 -44.15089844 103.57289063 -44.125 102.3125 C-44.11146484 101.08144531 -44.09792969 99.85039062 -44.08398438 98.58203125 C-44.04853543 95.53342157 -43.99912079 92.485675 -43.9375 89.4375 C-42.57818359 90.25154297 -42.57818359 90.25154297 -41.19140625 91.08203125 C-29.29748165 98.11718203 -20.21869836 101.88449367 -5.9375 100.4375 C-1.43803734 99.09555499 1.40425222 97.42487168 4.0625 93.4375 C4.49020472 91.32875815 4.49020472 91.32875815 4.5 89.0625 C4.53996094 88.31226563 4.57992187 87.56203125 4.62109375 86.7890625 C3.52544748 82.17662158 -0.21502009 79.90273327 -4.03125 77.4453125 C-5.1553125 76.82398438 -6.279375 76.20265625 -7.4375 75.5625 C-8.04625977 75.22081787 -8.65501953 74.87913574 -9.28222656 74.52709961 C-12.28991921 72.84877603 -15.31915466 71.24365052 -18.390625 69.68359375 C-29.73807792 63.88886364 -39.28106687 56.77307394 -44.0390625 44.625 C-46.27698673 36.68523405 -46.10535942 27.80762623 -42.19140625 20.45703125 C-41.77761719 19.79058594 -41.36382812 19.12414062 -40.9375 18.4375 C-40.30134766 17.39142578 -40.30134766 17.39142578 -39.65234375 16.32421875 C-30.43461307 2.6901937 -15.46792074 -0.24059485 0 0 Z " fill="#EFF0F1" transform="translate(100.9375,217.5625)"/>
<path d="M0 0 C2.93028953 0.01344693 5.86042772 0.00815227 8.79073429 0.00314617 C29.78224314 -0.02412198 50.5306924 0.57288368 71.19458008 4.6350708 C72.88103638 4.95665161 72.88103638 4.95665161 74.6015625 5.284729 C86.41507001 7.59528117 98.11510133 10.40601924 109.50708008 14.3225708 C108.50708008 17.3225708 108.50708008 17.3225708 106.55786133 18.3147583 C87.01717714 24.61460798 66.85066746 27.88383359 46.50708008 30.3225708 C45.79388611 30.41117371 45.08069214 30.49977661 44.34588623 30.59106445 C31.23255349 32.19186934 18.25704042 32.63639447 5.05200195 32.58331299 C1.87798072 32.57255691 -1.29547775 32.58330055 -4.46948242 32.5960083 C-16.62632448 32.60444756 -28.45038305 31.96681677 -40.49291992 30.3225708 C-42.507202 30.07354231 -44.52151951 29.82480015 -46.53588867 29.57647705 C-60.53962093 27.72633163 -74.20540799 25.18538708 -87.93041992 21.8225708 C-89.1739624 21.52020508 -89.1739624 21.52020508 -90.44262695 21.21173096 C-95.62143473 19.91154631 -100.52599807 18.28424832 -105.49291992 16.3225708 C-104.49291992 14.3225708 -104.49291992 14.3225708 -102.66479492 13.62408447 C-101.86557617 13.41501465 -101.06635742 13.20594482 -100.24291992 12.99053955 C-98.88481201 12.63246216 -98.88481201 12.63246216 -97.49926758 12.26715088 C-96.50717285 12.01731445 -95.51507813 11.76747803 -94.49291992 11.5100708 C-92.94870361 11.11694702 -92.94870361 11.11694702 -91.37329102 10.71588135 C-83.98669387 8.87062702 -76.57377335 7.17619475 -69.11791992 5.6350708 C-67.77987305 5.35022827 -67.77987305 5.35022827 -66.41479492 5.05963135 C-44.34228881 0.6669122 -22.41031421 -0.13928373 0 0 Z " fill="#1B8BB4" transform="translate(191.492919921875,83.67742919921875)"/>
<path d="M0 0 C8.91 0 17.82 0 27 0 C27 31.68 27 63.36 27 96 C41.19 96 55.38 96 70 96 C70 103.26 70 110.52 70 118 C46.9 118 23.8 118 0 118 C0 79.06 0 40.12 0 0 Z " fill="#ECEFF0" transform="translate(279,219)"/>
<path d="M0 0 C8.52606715 6.24939331 12.94339099 15.38040439 15.1796875 25.59765625 C16.3248015 38.38186692 15.85975363 52.07779797 8.5546875 63.09765625 C4.45716923 67.98315881 -1.19911624 70.78705812 -6.8203125 73.59765625 C-16.34667769 74.37668144 -24.84786696 74.58842317 -32.8203125 68.59765625 C-39.36537409 63.01040855 -43.66161483 54.06690007 -44.8203125 45.59765625 C-45.69306129 30.57453142 -45.0275918 18.08246823 -35.8203125 5.59765625 C-26.4687115 -4.61386209 -12.19095487 -7.17467672 0 0 Z " fill="#0278D2" transform="translate(216.8203125,241.40234375)"/>
</svg>
