<?xml version="1.0" encoding="UTF-8"?>
<svg version="1.1" xmlns="http://www.w3.org/2000/svg" width="1184" height="1026">
<path d="M0 0 C57.95534815 -0.29743762 115.91063313 -0.5265918 173.86659262 -0.66384928 C180.70598496 -0.68006468 187.54537567 -0.69691988 194.38476562 -0.71411133 C195.40566892 -0.71666113 195.40566892 -0.71666113 196.44719652 -0.71926244 C218.50833506 -0.77466209 240.56904079 -0.87230991 262.62991711 -0.99186387 C285.94268161 -1.11797271 309.25513134 -1.19594784 332.56826448 -1.22315043 C346.53544771 -1.24100451 360.50138847 -1.29742804 374.4681893 -1.40291407 C384.04073604 -1.47153701 393.61263881 -1.49242329 403.18541378 -1.47551791 C408.7121847 -1.46717551 414.23678221 -1.48011955 419.76316833 -1.54967117 C424.82256617 -1.61288151 429.87832769 -1.61618022 434.93789202 -1.57168563 C436.76851263 -1.56618637 438.59935891 -1.58274046 440.42953438 -1.62348137 C445.89027165 -1.7379791 450.76732101 -1.67045422 456 0 C459.92695918 3.93057394 461.79816046 7.89099852 464 13 C465.20849615 15.21973459 466.49615216 17.37786303 467.7890625 19.55078125 C469.06957672 21.80362654 470.34816611 24.05756679 471.625 26.3125 C473.0309032 28.78609637 474.43897565 31.25845319 475.84765625 33.73046875 C476.19833664 34.34607666 476.54901703 34.96168457 476.9103241 35.59594727 C480.25562191 41.46164301 483.65199438 47.29699476 487.0625 53.125 C493.79228681 64.6286069 500.45655825 76.16923519 507.10888672 87.71777344 C510.23680148 93.14659942 513.36858448 98.57319281 516.5 104 C517.75001879 106.16665583 519.00001878 108.3333225 520.25 110.5 C520.86875 111.5725 521.4875 112.645 522.125 113.75 C557.75 175.5 557.75 175.5 559.62695312 178.75341797 C560.8704051 180.90871311 562.11389436 183.06398673 563.35742188 185.21923828 C566.24462875 190.22337674 569.1315043 195.2277052 572.01696777 200.23284912 C573.02619104 201.98341241 574.03553836 203.73390411 575.04492188 205.484375 C576.3016766 207.66392165 577.55820586 209.84359832 578.81445312 212.0234375 C579.39130859 213.02375 579.96816406 214.0240625 580.5625 215.0546875 C581.12195313 216.02631836 581.68140625 216.99794922 582.2578125 217.99902344 C583.4911778 220.12353665 584.73725904 222.24069131 585.9921875 224.35253906 C586.95511719 225.97627441 586.95511719 225.97627441 587.9375 227.6328125 C588.81728516 229.10451904 588.81728516 229.10451904 589.71484375 230.60595703 C591 233 591 233 591 235 C591.66 235 592.32 235 593 235 C593.20238281 234.23171875 593.40476562 233.4634375 593.61328125 232.671875 C595.56255854 227.51040836 598.36607698 222.97907448 601.1875 218.25 C602.46419778 216.08632451 603.74021671 213.92224834 605.015625 211.7578125 C605.67498047 210.64180664 606.33433594 209.52580078 607.01367188 208.37597656 C610.18925356 202.9787367 613.3137656 197.55236 616.4375 192.125 C617.69658348 189.94008624 618.95569823 187.75519051 620.21484375 185.5703125 C620.83987793 184.48524414 621.46491211 183.40017578 622.10888672 182.28222656 C625.23680148 176.85340058 628.36858448 171.42680719 631.5 166 C632.75001879 163.83334417 634.00001878 161.6666775 635.25 159.5 C637.75 155.16666667 640.25 150.83333333 642.75 146.5 C643.36883057 145.42733887 643.98766113 144.35467773 644.62524414 143.24951172 C645.87435518 141.08442929 647.12354129 138.91939018 648.37280273 136.75439453 C651.51202309 131.31384294 654.64990563 125.87252784 657.78515625 120.4296875 C663.80747329 109.97793801 669.84669337 99.53700452 675.9375 89.125 C681.01275247 80.44737548 686.02244553 71.73386463 691 63 C697.66760833 51.30185954 704.42101507 39.65596052 711.22509766 28.03662109 C713.13843698 24.76315279 715.04448712 21.48551508 716.94921875 18.20703125 C717.59552246 17.09553711 718.24182617 15.98404297 718.90771484 14.83886719 C720.15524392 12.69302764 721.40170399 10.54656616 722.64697266 8.39941406 C723.20304199 7.44389648 723.75911133 6.48837891 724.33203125 5.50390625 C724.82421143 4.65642822 725.3163916 3.8089502 725.82348633 2.93579102 C727 1 727 1 728 0 C730.4241822 -0.09877674 732.81986885 -0.13178599 735.24456882 -0.12304783 C736.01562107 -0.12420167 736.78667331 -0.12535552 737.58109078 -0.12654433 C740.1980075 -0.12921821 742.81486427 -0.12468253 745.43177795 -0.12025452 C747.31355012 -0.12069006 749.19532223 -0.12156466 751.07709402 -0.12284368 C756.27395999 -0.12509194 761.47080557 -0.12106287 766.66766894 -0.11606562 C772.26211399 -0.11176602 777.85655779 -0.11320719 783.45100403 -0.1139679 C793.15236244 -0.11449344 802.85371415 -0.11134344 812.55507088 -0.10573006 C826.58178024 -0.09761921 840.60848635 -0.09500026 854.63519781 -0.09374207 C877.39002005 -0.09155089 900.14483811 -0.08489759 922.8996582 -0.07543945 C945.01000958 -0.06625977 967.12035999 -0.05917383 989.23071289 -0.05493164 C989.91187086 -0.05480011 990.59302883 -0.05466859 991.29482795 -0.05453308 C998.13509869 -0.05321459 1004.97536943 -0.05193877 1011.81564019 -0.05069422 C1069.21042928 -0.0402475 1126.60521448 -0.02259607 1184 0 C1182.46855447 4.82991105 1180.43989217 8.93796414 1177.8125 13.25 C1176.90501595 14.76618915 1175.99885194 16.28316888 1175.09375 17.80078125 C1174.59875 18.62916504 1174.10375 19.45754883 1173.59375 20.31103516 C1170.6209771 25.32667865 1167.72060528 30.38418227 1164.8125 35.4375 C1164.17546143 36.54319336 1163.53842285 37.64888672 1162.88208008 38.78808594 C1161.57299343 41.06024082 1160.26415738 43.33254009 1158.95556641 45.60498047 C1155.80667946 51.0716998 1152.65316736 56.53574887 1149.5 62 C1148.2499765 64.16665311 1146.99997653 66.33331979 1145.75 68.5 C1133.25 90.16666667 1120.75 111.83333333 1108.25 133.5 C1107.63116943 134.57266113 1107.01233887 135.64532227 1106.37475586 136.75048828 C1105.12564482 138.91557071 1103.87645871 141.08060982 1102.62719727 143.24560547 C1099.48797691 148.68615706 1096.35009437 154.12747216 1093.21484375 159.5703125 C1087.19252671 170.02206199 1081.15330663 180.46299548 1075.0625 190.875 C1069.98724877 199.55262241 1064.97741233 208.26605568 1060 217 C1054.4599827 226.72115617 1048.86625191 236.40894658 1043.21655273 246.06689453 C1037.06233258 256.59084625 1030.97630004 267.15380137 1024.89111328 277.71777344 C1021.76319852 283.14659942 1018.63141552 288.57319281 1015.5 294 C1014.24998121 296.16665583 1012.99998122 298.3333225 1011.75 300.5 C974.25 365.5 936.75 430.5 899.25 495.5 C898.63116943 496.57266113 898.01233887 497.64532227 897.37475586 498.75048828 C896.12564482 500.91557071 894.87645871 503.08060982 893.62719727 505.24560547 C890.48797691 510.68615706 887.35009437 516.12747216 884.21484375 521.5703125 C878.19252671 532.02206199 872.15330663 542.46299548 866.0625 552.875 C860.98724877 561.55262241 855.97741233 570.26605568 851 579 C845.4599827 588.72115617 839.86625191 598.40894658 834.21655273 608.06689453 C828.06233258 618.59084625 821.97630004 629.15380137 815.89111328 639.71777344 C812.76319852 645.14659942 809.63141552 650.57319281 806.5 656 C805.24998121 658.16665583 803.99998122 660.3333225 802.75 662.5 C765.25 727.5 727.75 792.5 690.25 857.5 C689.63116943 858.57266113 689.01233887 859.64532227 688.37475586 860.75048828 C687.12564482 862.91557071 685.87645871 865.08060982 684.62719727 867.24560547 C681.48797691 872.68615706 678.35009437 878.12747216 675.21484375 883.5703125 C669.19252671 894.02206199 663.15330663 904.46299548 657.0625 914.875 C651.98724877 923.55262241 646.97741233 932.26605568 642 941 C636.46209671 950.71744668 630.87028188 960.40141036 625.22314453 970.0559082 C614.36015066 988.633448 603.65597097 1007.30309418 593 1026 C592.34 1026 591.68 1026 591 1026 C590.67950684 1025.42894531 590.35901367 1024.85789062 590.02880859 1024.26953125 C583.24037143 1012.18625718 576.37311092 1000.15439352 569.37231445 988.19287109 C563.16403197 977.58353211 557.02671226 966.93371497 550.89111328 956.28222656 C547.76319852 950.85340058 544.63141552 945.42680719 541.5 940 C540.24998121 937.83334417 538.99998122 935.6666775 537.75 933.5 C536.821875 931.89125 536.821875 931.89125 535.875 930.25 C440.25 764.49999999 440.25 764.49999999 438.37475586 761.24951172 C437.12564482 759.08442929 435.87645871 756.91939018 434.62719727 754.75439453 C431.48797691 749.31384294 428.35009437 743.87252784 425.21484375 738.4296875 C419.19252671 727.97793801 413.15330663 717.53700452 407.0625 707.125 C401.64078822 697.85500223 396.29795085 688.54168248 390.98077393 679.21154785 C385.77954871 670.0871716 380.51972122 660.99867226 375.21655273 651.93310547 C369.06233258 641.40915375 362.97630004 630.84619863 356.89111328 620.28222656 C353.76319852 614.85340058 350.63141552 609.42680719 347.5 604 C346.24998121 601.83334417 344.99998122 599.6666775 343.75 597.5 C343.13125 596.4275 342.5125 595.355 341.875 594.25 C231.25 402.5 231.25 402.5 229.37475586 399.24951172 C228.12564482 397.08442929 226.87645871 394.91939018 225.62719727 392.75439453 C222.48797691 387.31384294 219.35009437 381.87252784 216.21484375 376.4296875 C210.19252671 365.97793801 204.15330663 355.53700452 198.0625 345.125 C192.64078822 335.85500223 187.29795085 326.54168248 181.98077393 317.21154785 C176.77954871 308.0871716 171.51972122 298.99867226 166.21655273 289.93310547 C160.06233258 279.40915375 153.97630004 268.84619863 147.89111328 258.28222656 C144.76319852 252.85340058 141.63141552 247.42680719 138.5 242 C137.24998121 239.83334417 135.99998122 237.6666775 134.75 235.5 C134.13125 234.4275 133.5125 233.355 132.875 232.25 C37.25 66.5 37.25 66.5 35.37402344 63.24829102 C34.12729744 61.08731012 32.88055273 58.92634002 31.63378906 56.76538086 C28.45854117 51.26181149 25.28364505 45.75803968 22.109375 40.25390625 C21.4687915 39.14337891 20.82820801 38.03285156 20.16821289 36.88867188 C18.90384799 34.69626926 17.64000103 32.50356786 16.37670898 30.31054688 C13.47120517 25.26933721 10.55642826 20.23418434 7.61328125 15.21484375 C7.09540039 14.32917725 6.57751953 13.44351074 6.04394531 12.53100586 C5.08211292 10.88774342 4.11681477 9.24650284 3.14746094 7.60766602 C-0 2.22318174 -0 2.22318174 0 0 Z " fill="#40B783" transform="translate(0,0)"/>
<path d="M0 0 C28.41553757 -0.30367812 56.83083201 -0.53292394 85.24766541 -0.67355824 C98.44219198 -0.74059324 111.63571039 -0.83198273 124.82958984 -0.98071289 C136.32942497 -1.11028487 147.82853006 -1.19415558 159.32907486 -1.22315043 C165.41905338 -1.24010053 171.50694342 -1.27992783 177.59625244 -1.37449074 C183.32935258 -1.46279985 189.05950676 -1.48994053 194.79322243 -1.47039986 C196.89602493 -1.47397371 198.99892681 -1.49980391 201.10114098 -1.54967117 C216.55641421 -1.89827803 216.55641421 -1.89827803 220.59766388 1.24113107 C223.6645674 4.73068469 225.27290412 8.70944321 227 13 C228.19765262 15.22812094 229.48904376 17.37892925 230.7890625 19.55078125 C232.06957672 21.80362654 233.34816611 24.05756679 234.625 26.3125 C236.0309032 28.78609637 237.43897565 31.25845319 238.84765625 33.73046875 C239.19833664 34.34607666 239.54901703 34.96168457 239.9103241 35.59594727 C243.25562191 41.46164301 246.65199438 47.29699476 250.0625 53.125 C256.79228681 64.6286069 263.45655825 76.16923519 270.10888672 87.71777344 C273.23680148 93.14659942 276.36858448 98.57319281 279.5 104 C280.75001879 106.16665583 282.00001878 108.3333225 283.25 110.5 C283.86875 111.5725 284.4875 112.645 285.125 113.75 C320.74999999 175.49999999 320.74999999 175.49999999 322.62695312 178.75341797 C323.8704051 180.90871311 325.11389436 183.06398673 326.35742188 185.21923828 C329.24462875 190.22337674 332.1315043 195.2277052 335.01696777 200.23284912 C336.02619104 201.98341241 337.03553836 203.73390411 338.04492188 205.484375 C339.3016766 207.66392165 340.55820586 209.84359832 341.81445312 212.0234375 C342.39130859 213.02375 342.96816406 214.0240625 343.5625 215.0546875 C344.12195313 216.02631836 344.68140625 216.99794922 345.2578125 217.99902344 C346.4911778 220.12353665 347.73725904 222.24069131 348.9921875 224.35253906 C349.95511719 225.97627441 349.95511719 225.97627441 350.9375 227.6328125 C351.52402344 228.6139502 352.11054687 229.59508789 352.71484375 230.60595703 C354 233 354 233 354 235 C354.66 235 355.32 235 356 235 C356.20238281 234.23171875 356.40476562 233.4634375 356.61328125 232.671875 C358.56255854 227.51040836 361.36607698 222.97907448 364.1875 218.25 C365.46419778 216.08632451 366.74021671 213.92224834 368.015625 211.7578125 C368.67498047 210.64180664 369.33433594 209.52580078 370.01367188 208.37597656 C373.18925356 202.9787367 376.3137656 197.55236 379.4375 192.125 C380.69658348 189.94008624 381.95569823 187.75519051 383.21484375 185.5703125 C383.83987793 184.48524414 384.46491211 183.40017578 385.10888672 182.28222656 C388.23680148 176.85340058 391.36858448 171.42680719 394.5 166 C395.75001879 163.83334417 397.00001878 161.6666775 398.25 159.5 C400.75 155.16666667 403.25 150.83333333 405.75 146.5 C406.36883057 145.42733887 406.98766113 144.35467773 407.62524414 143.24951172 C408.87435518 141.08442929 410.12354129 138.91939018 411.37280273 136.75439453 C414.51202309 131.31384294 417.64990563 125.87252784 420.78515625 120.4296875 C426.80747329 109.97793801 432.84669337 99.53700452 438.9375 89.125 C444.01275247 80.44737548 449.02244553 71.73386463 454 63 C460.66760833 51.30185954 467.42101507 39.65596052 474.22509766 28.03662109 C476.13843698 24.76315279 478.04448712 21.48551508 479.94921875 18.20703125 C480.59552246 17.09553711 481.24182617 15.98404297 481.90771484 14.83886719 C483.15524392 12.69302764 484.40170399 10.54656616 485.64697266 8.39941406 C486.20304199 7.44389648 486.75911133 6.48837891 487.33203125 5.50390625 C487.82421143 4.65642822 488.3163916 3.8089502 488.82348633 2.93579102 C490 1 490 1 491 0 C493.81947145 -0.09791283 496.61444625 -0.12992699 499.43434143 -0.12025452 C500.32949382 -0.12110894 501.22464621 -0.12196337 502.14692444 -0.12284368 C505.17031648 -0.12450124 508.19365401 -0.11897263 511.21704102 -0.11352539 C513.37479654 -0.11324355 515.53255215 -0.11340119 517.69030762 -0.1139679 C523.56816845 -0.114256 529.44600906 -0.10835719 535.32386518 -0.10139394 C541.45914944 -0.09516255 547.59443412 -0.09455677 553.72972107 -0.09336853 C565.35675432 -0.09025458 576.98377823 -0.08204033 588.61080736 -0.07201904 C601.84395117 -0.06085988 615.07709543 -0.05534795 628.31024277 -0.05032361 C655.54016704 -0.03985777 682.770083 -0.0222571 710 0 C709.20106748 1.6060913 708.40119407 3.21171459 707.60092163 4.81713867 C706.93292825 6.15841072 706.93292825 6.15841072 706.25144005 7.52677917 C704.91053008 10.1768194 703.48611935 12.75488687 701.9765625 15.3125 C701.43845947 16.2288623 700.90035645 17.14522461 700.34594727 18.08935547 C699.49407837 19.53012451 699.49407837 19.53012451 698.625 21 C697.37572478 23.12726524 696.12704725 25.25488158 694.87890625 27.3828125 C693.91815186 29.01911621 693.91815186 29.01911621 692.93798828 30.68847656 C689.78857787 36.07000879 686.67480693 41.47195024 683.5625 46.875 C682.62978271 48.49341797 682.62978271 48.49341797 681.67822266 50.14453125 C680.41567477 52.33550936 679.15330512 54.52659019 677.89111328 56.71777344 C674.76319852 62.14659942 671.63141552 67.57319281 668.5 73 C667.24998121 75.16665583 665.99998122 77.3333225 664.75 79.5 C622.25 153.16666667 579.75 226.83333333 537.25 300.5 C536.63116943 301.57266113 536.01233887 302.64532227 535.37475586 303.75048828 C534.12564482 305.91557071 532.87645871 308.08060982 531.62719727 310.24560547 C528.48797691 315.68615706 525.35009437 321.12747216 522.21484375 326.5703125 C516.19252671 337.02206199 510.15330663 347.46299548 504.0625 357.875 C498.98724877 366.55262241 493.97741233 375.26605568 489 384 C483.4599827 393.72115617 477.86625191 403.40894658 472.21655273 413.06689453 C466.06233258 423.59084625 459.97630004 434.15380137 453.89111328 444.71777344 C450.76319852 450.14659942 447.63141552 455.57319281 444.5 461 C443.24998121 463.16665583 441.99998122 465.3333225 440.75 467.5 C423.25 497.83333333 405.75 528.16666667 388.25 558.5 C387.6305249 559.57378906 387.0110498 560.64757812 386.37280273 561.75390625 C385.13023981 563.9076172 383.88756511 566.06126367 382.64477539 568.21484375 C379.74685377 573.23684262 376.84996651 578.25942807 373.95724487 583.28442383 C372.94052802 585.05045522 371.92344342 586.81627431 370.90625 588.58203125 C369.63599127 590.78734155 368.36640982 592.99304216 367.09765625 595.19921875 C363.46359212 601.50633895 359.76901741 607.77255337 356 614 C352.22983584 612.74327861 351.99288597 611.70437669 350.13671875 608.27734375 C349.58701416 607.27646729 349.03730957 606.27559082 348.47094727 605.24438477 C347.88240967 604.15311279 347.29387207 603.06184082 346.6875 601.9375 C345.4211316 599.63178953 344.15285461 597.32712644 342.8828125 595.0234375 C342.55928299 594.4346431 342.23575348 593.84584869 341.90242004 593.23921204 C338.71876177 587.45653569 335.40554125 581.75404915 332.0625 576.0625 C330.89562073 574.07173919 329.72895613 572.08085253 328.5625 570.08984375 C327.97855469 569.0932373 327.39460938 568.09663086 326.79296875 567.06982422 C323.69562962 561.7667275 320.62886142 556.44605065 317.5625 551.125 C316.93996338 550.04484619 316.31742676 548.96469238 315.67602539 547.85180664 C314.41423174 545.66203666 313.15259466 543.47217645 311.89111328 541.28222656 C308.76319852 535.85340058 305.63141552 530.42680719 302.5 525 C301.24998121 522.83334417 299.99998122 520.6666775 298.75 518.5 C298.13125 517.4275 297.5125 516.355 296.875 515.25 C261.25 453.5 261.25 453.5 259.37475586 450.24951172 C258.12564482 448.08442929 256.87645871 445.91939018 255.62719727 443.75439453 C252.48797691 438.31384294 249.35009437 432.87252784 246.21484375 427.4296875 C240.16944841 416.93767906 234.10889781 406.45518324 228 396 C221.25298806 384.45270484 214.56660682 372.87097973 207.89111328 361.28222656 C204.76319852 355.85340058 201.63141552 350.42680719 198.5 345 C197.24998121 342.83334417 195.99998122 340.6666775 194.75 338.5 C194.13125 337.4275 193.5125 336.355 192.875 335.25 C82.25 143.5 82.25 143.5 80.37475586 140.24951172 C79.12564482 138.08442929 77.87645871 135.91939018 76.62719727 133.75439453 C73.48797691 128.31384294 70.35009437 122.87252784 67.21484375 117.4296875 C61.19252671 106.97793801 55.15330663 96.53700452 49.0625 86.125 C43.64177983 76.85669767 38.29940317 67.54535637 32.98379517 58.21658325 C28.28474188 49.9717045 23.54274519 41.75338557 18.75 33.5625 C14.17829845 25.74625991 9.6291755 17.91788437 5.125 10.0625 C4.60647461 9.16152588 4.08794922 8.26055176 3.55371094 7.33227539 C2.85036621 6.10238892 2.85036621 6.10238892 2.1328125 4.84765625 C1.71918457 4.12586182 1.30555664 3.40406738 0.87939453 2.66040039 C0 1 0 1 0 0 Z " fill="#34495E" transform="translate(237,0)"/>
</svg>
